<svg width="25" height="26" viewBox="0 0 25 26" fill="none" xmlns="http://www.w3.org/2000/svg">
  <path
    d="M6.96991 17.2211C7.11494 17.7538 7.65803 18.0664 8.18294 17.9193C8.70786 17.7721 9.01584 17.2209 8.87081 16.6881L6.96991 17.2211ZM1.309 3.15704C0.78425 3.00928 0.240818 3.32123 0.0952247 3.85381C-0.0503688 4.3864 0.257003 4.93793 0.781765 5.0857L1.309 3.15704ZM23.6438 17.8359C24.1709 17.697 24.4872 17.1506 24.3502 16.6156C24.2132 16.0807 23.675 15.7598 23.1479 15.8988L23.6438 17.8359ZM10.5086 20.2822C10.9156 21.7776 10.0221 23.3552 8.4393 23.7727L8.93533 25.7099C11.5346 25.0243 13.1229 22.3706 12.4094 19.7493L10.5086 20.2822ZM8.4393 23.7727C6.8462 24.1929 5.24756 23.2545 4.83709 21.7465L2.93619 22.2795C3.64631 24.8882 6.34633 26.3928 8.93533 25.7099L8.4393 23.7727ZM4.83709 21.7465C4.43005 20.2512 5.32352 18.6736 6.90633 18.2561L6.4103 16.3189C3.811 17.0044 2.22265 19.6582 2.93619 22.2795L4.83709 21.7465ZM6.90633 18.2561C8.49942 17.8359 10.0981 18.7743 10.5086 20.2822L12.4094 19.7493C11.6993 17.1405 8.99928 15.6361 6.4103 16.3189L6.90633 18.2561ZM8.87081 16.6881L6.04116 6.29291L4.14027 6.8259L6.96991 17.2211L8.87081 16.6881ZM3.54891 3.78776L1.309 3.15704L0.781765 5.0857L3.02168 5.71641L3.54891 3.78776ZM6.04116 6.29291C5.70836 5.07035 4.75438 4.1272 3.54891 3.78776L3.02168 5.71641C3.58121 5.87397 3.99792 6.30296 4.14027 6.8259L6.04116 6.29291ZM11.707 20.9844L23.6438 17.8359L23.1479 15.8988L11.2109 19.0472L11.707 20.9844Z"
    fill="#9C6CFF" />
  <path
    d="M22.2087 5.77162C21.561 3.48189 21.2372 2.33701 20.2852 1.81629C19.3333 1.29556 18.1247 1.60233 15.7079 2.21586L13.1443 2.86661C10.7273 3.48014 9.51886 3.7869 8.96919 4.68884C8.41954 5.59077 8.74334 6.73563 9.39097 9.02536L10.0778 11.4541C10.7254 13.7437 11.0492 14.8886 12.0013 15.4094C12.9533 15.93 14.1619 15.6233 16.5787 15.0097L19.1423 14.359C21.5593 13.7455 22.7677 13.4388 23.3173 12.5367C23.6194 12.0414 23.6577 11.4727 23.5236 10.6811"
    stroke="#9C6CFF" stroke-width="2" stroke-linecap="round" />
</svg>