<svg width="48" height="48" viewBox="0 0 48 48" fill="none" xmlns="http://www.w3.org/2000/svg">
<g clip-path="url(#clip0_181_279)">
<path d="M42 40H8V33.7L8.4 33.4L18 23.8L24.1 29.9L38 16.1V20.9C37.991 21.3941 38.1565 21.8756 38.4674 22.2597C38.7784 22.6438 39.2148 22.9059 39.7 23C39.9866 23.0435 40.2793 23.0242 40.5577 22.9433C40.8362 22.8625 41.0937 22.7221 41.3125 22.5319C41.5313 22.3416 41.7061 22.1061 41.8248 21.8416C41.9435 21.5771 42.0033 21.2899 42 21V11C42 10.4696 41.7893 9.96086 41.4142 9.58579C41.0391 9.21071 40.5304 9 40 9H30C29.7101 8.99672 29.4229 9.0565 29.1584 9.17522C28.8939 9.29393 28.6584 9.46873 28.4681 9.68751C28.2779 9.90629 28.1375 10.1638 28.0567 10.4423C27.9758 10.7207 27.9565 11.0134 28 11.3C28.094 11.7852 28.3562 12.2216 28.7403 12.5326C29.1244 12.8435 29.6059 13.009 30.1 13H35.3L23.9 24L18 18.2L8 28.2V6C8 5.46957 7.78929 4.96086 7.41421 4.58579C7.03914 4.21071 6.53043 4 6 4C5.46957 4 4.96086 4.21071 4.58579 4.58579C4.21071 4.96086 4 5.46957 4 6V44H42C42.5304 44 43.0391 43.7893 43.4142 43.4142C43.7893 43.0391 44 42.5304 44 42C44 41.4696 43.7893 40.9609 43.4142 40.5858C43.0391 40.2107 42.5304 40 42 40Z" fill="black"/>
</g>
<defs>
<clipPath id="clip0_181_279">
<rect width="48" height="48" fill="white"/>
</clipPath>
</defs>
</svg>
