<svg width="16" height="16" viewBox="0 0 16 16" fill="none" xmlns="http://www.w3.org/2000/svg">
<path fill-rule="evenodd" clip-rule="evenodd" d="M8 14.25C11.4517 14.25 14.25 11.4517 14.25 8C14.25 4.54822 11.4517 1.75 8 1.75C4.54822 1.75 1.75 4.54822 1.75 8C1.75 11.4517 4.54822 14.25 8 14.25ZM8 15.5C12.1422 15.5 15.5 12.1422 15.5 8C15.5 3.85787 12.1422 0.5 8 0.5C3.85787 0.5 0.5 3.85787 0.5 8C0.5 12.1422 3.85787 15.5 8 15.5ZM8.625 10.5V11.75H7.375V10.5H8.625ZM6.75 6.69317C6.75 6.05219 7.29142 5.5 8 5.5C8.70858 5.5 9.25 6.05219 9.25 6.69317C9.25 6.94917 9.09592 7.25258 8.75633 7.59658C8.42717 7.93008 8.00867 8.21608 7.66067 8.441L7.375 8.62575V9.875H8.625V9.30192C8.94267 9.08583 9.319 8.80592 9.646 8.47467C10.0682 8.047 10.5 7.44133 10.5 6.69317C10.5 5.32586 9.36242 4.25 8 4.25C6.63758 4.25 5.5 5.32586 5.5 6.69317H6.75Z" fill="#8044FD"/>
</svg>
