<svg width="35" height="32" viewBox="0 0 35 32" fill="none" xmlns="http://www.w3.org/2000/svg">
<g clip-path="url(#clip0_188_279)">
<path d="M34.991 4.60741L32.7277 26.2317C32.6191 27.8065 31.6685 27.9955 30.0027 27.7975L29.9755 26.0337L30.8084 26.1237L33.0898 4.41844L8.88136 1.89875L8.5645 4.94037L6.63615 5.03036L6.98923 1.70078C7.08881 0.656906 8.0213 -0.0989993 9.08053 0.00898719L33.2981 2.52867C34.3483 2.63666 35.1087 3.57254 35.0001 4.61641L34.991 4.60741ZM28.1377 6.89313L29.1517 28.9044C29.1969 29.9482 28.3821 30.8391 27.332 30.8841L3.01483 31.991C1.96465 32.036 1.06838 31.2261 1.02311 30.1822L8.93991e-05 8.17997C-0.045177 7.1361 0.769619 6.24521 1.8198 6.20021L26.1369 5.09335C27.1871 5.04836 28.0834 5.85826 28.1286 6.90213L28.1377 6.89313ZM2.91525 29.9032L27.2324 28.7964L26.2275 6.99211L1.91033 8.09898L2.91525 29.9032ZM25.983 22.2902C25.9559 21.6153 25.6843 20.9764 25.2225 20.4814L23.5115 18.6457C22.914 18.0787 21.9724 18.1237 21.4292 18.7446L18.333 22.3082L11.6155 14.0742C11.036 13.3633 9.9406 13.3723 9.37929 14.0922L4.12839 20.9764C3.72099 21.5073 3.52182 22.1642 3.54898 22.8301L3.82963 28.9134L26.2456 27.8875L25.983 22.2902ZM22.0539 14.7761C23.5024 14.7131 24.625 13.4893 24.5526 12.0495C24.4892 10.6097 23.258 9.4938 21.8095 9.56579C20.3609 9.62878 19.2383 10.8526 19.3107 12.2925C19.3741 13.7323 20.6054 14.8481 22.0539 14.7761Z" fill="#915CFF"/>
</g>
<defs>
<clipPath id="clip0_188_279">
<rect width="35" height="32" fill="white"/>
</clipPath>
</defs>
</svg>
