<svg width="28" height="28" viewBox="0 0 28 28" fill="none" xmlns="http://www.w3.org/2000/svg">
<rect width="28" height="28" rx="8" fill="#B4B4B4"/>
<path fill-rule="evenodd" clip-rule="evenodd" d="M14 20.25C17.4517 20.25 20.25 17.4517 20.25 14C20.25 10.5482 17.4517 7.75 14 7.75C10.5482 7.75 7.75 10.5482 7.75 14C7.75 17.4517 10.5482 20.25 14 20.25ZM14 21.5C18.1422 21.5 21.5 18.1422 21.5 14C21.5 9.85787 18.1422 6.5 14 6.5C9.85787 6.5 6.5 9.85787 6.5 14C6.5 18.1422 9.85787 21.5 14 21.5ZM14.625 16.5V17.75H13.375V16.5H14.625ZM12.75 12.6932C12.75 12.0522 13.2914 11.5 14 11.5C14.7086 11.5 15.25 12.0522 15.25 12.6932C15.25 12.9492 15.0959 13.2526 14.7563 13.5966C14.4272 13.9301 14.0087 14.2161 13.6607 14.441L13.375 14.6257V15.875H14.625V15.3019C14.9427 15.0858 15.319 14.8059 15.646 14.4747C16.0682 14.047 16.5 13.4413 16.5 12.6932C16.5 11.3259 15.3624 10.25 14 10.25C12.6376 10.25 11.5 11.3259 11.5 12.6932H12.75Z" fill="white"/>
</svg>
