<svg width="213" height="27" viewBox="0 0 213 27" fill="none" xmlns="http://www.w3.org/2000/svg">
  <path
    d="M6.49196 20.1519C5.19357 20.1519 4.0683 19.8052 3.02958 19.1983C2.07743 18.5915 1.29839 17.7246 0.779035 16.6843C0.259678 15.644 0 14.4304 0 13.2167C0 11.9164 0.259678 10.7894 0.779035 9.66243C1.29839 8.62215 2.07743 7.75525 3.02958 7.14841C3.98174 6.54158 5.19357 6.19482 6.49196 6.19482C7.61723 6.19482 8.56939 6.3682 9.34842 6.80165C10.1275 7.23511 10.8199 7.84194 11.3393 8.53546V6.45489H13.3302V19.9786H11.3393V17.8113C10.8199 18.5048 10.214 19.1117 9.34842 19.5451C8.56939 19.9786 7.61723 20.1519 6.49196 20.1519ZM6.75164 18.3314C7.79035 18.3314 8.56939 18.0714 9.26186 17.6379C9.95434 17.2045 10.4737 16.5109 10.8199 15.7307C11.1662 14.9505 11.3393 14.0836 11.3393 13.2167C11.3393 12.2631 11.1662 11.3962 10.8199 10.616C10.4737 9.83581 9.95434 9.22898 9.26186 8.79553C8.65595 8.36208 7.79035 8.10201 6.75164 8.10201C5.79948 8.10201 4.93389 8.36208 4.15485 8.79553C3.46238 9.22898 2.85646 9.9225 2.51022 10.616C2.16399 11.3962 1.90431 12.2631 1.90431 13.2167C1.90431 14.1703 2.07743 14.9505 2.51022 15.7307C2.85646 16.5109 3.46238 17.1178 4.15485 17.6379C4.93389 18.0714 5.79948 18.3314 6.75164 18.3314Z"
    fill="white" />
  <path
    d="M22.6786 20.1519C21.2937 20.1519 20.1684 19.8052 19.2162 19.1983C18.2641 18.5915 17.485 17.7246 16.8791 16.6843C16.2732 15.644 16.1001 14.4304 16.1001 13.2167C16.1001 11.9164 16.3598 10.7894 16.8791 9.66243C17.3985 8.53546 18.1775 7.75525 19.2162 7.14841C20.1684 6.54158 21.3802 6.19482 22.6786 6.19482C24.2367 6.19482 25.6216 6.62827 26.7469 7.40849C27.8722 8.27539 28.6512 9.31567 28.9975 10.616H26.8335C26.4872 9.83581 26.0544 9.22898 25.362 8.70884C24.6695 8.1887 23.8904 8.01532 22.9383 8.01532C21.9861 8.01532 21.1205 8.27539 20.3415 8.70884C19.5625 9.14229 19.0431 9.83581 18.6103 10.5293C18.1775 11.3095 18.0044 12.1764 18.0044 13.13C18.0044 14.0836 18.1775 14.8638 18.6103 15.644C19.0431 16.4243 19.5625 17.0311 20.3415 17.5512C21.1205 17.9847 21.8996 18.2448 22.9383 18.2448C23.8904 18.2448 24.6695 17.9847 25.362 17.5512C26.0544 17.0311 26.4872 16.4243 26.8335 15.644H28.9975C28.5647 16.9444 27.8722 18.0714 26.7469 18.8516C25.6216 19.8052 24.2367 20.1519 22.6786 20.1519Z"
    fill="white" />
  <path
    d="M32.9793 19.9779V8.27475H30.2094V6.45426H32.9793V1.59961H34.9701V6.45426H38.0863V8.27475H34.9701V19.9779H32.9793Z"
    fill="white" />
  <path
    d="M40.2513 4.20009V1.5127H42.4153V4.20009H40.2513ZM40.3379 19.9777V6.45403H42.3288V19.9777H40.3379Z"
    fill="white" />
  <path
    d="M49.5121 19.9778L44.2319 6.4541H46.4825L50.7239 17.8105L54.9653 6.4541H57.1293L51.8492 19.9778H49.5121Z"
    fill="white" />
  <path
    d="M64.7443 20.1519C63.3594 20.1519 62.1475 19.8052 61.1954 19.1983C60.1567 18.5915 59.3776 17.7246 58.7717 16.6843C58.1658 15.644 57.9061 14.4304 57.9061 13.2167C57.9061 11.9164 58.1658 10.7894 58.6852 9.66243C59.2045 8.62215 59.9836 7.75525 61.0223 7.14841C62.061 6.54158 63.1863 6.19482 64.5712 6.19482C65.9562 6.19482 67.168 6.54158 68.1201 7.14841C69.1589 7.75525 69.8513 8.62215 70.4572 9.66243C70.9766 10.7027 71.2363 11.9164 71.2363 13.2167V13.9969H59.9836C60.0701 14.7771 60.3298 15.4707 60.7626 16.1642C61.1954 16.8577 61.7147 17.3778 62.4072 17.7246C63.0997 18.0714 63.8787 18.3314 64.7443 18.3314C65.6965 18.3314 66.4755 18.1581 67.168 17.7246C67.7739 17.2912 68.2933 16.771 68.6395 16.0775H70.89C70.4572 17.2912 69.6782 18.2448 68.6395 19.025C67.6008 19.8052 66.3024 20.1519 64.7443 20.1519ZM59.9836 12.1764H69.1589C68.9857 11.0495 68.4664 10.0959 67.6873 9.31567C66.9083 8.53546 65.8696 8.1887 64.5712 8.1887C63.2728 8.1887 62.2341 8.53546 61.4551 9.31567C60.676 10.0092 60.2432 10.9628 59.9836 12.1764Z"
    fill="white" />
  <path
    d="M81.4533 7.23382C80.9339 7.23382 80.5011 7.4072 80.1549 7.75397C79.8086 8.10073 79.5489 8.44749 79.5489 8.96763C79.5489 9.40108 79.7221 9.92122 80.1549 10.268C80.5877 10.7014 81.107 11.0482 81.7129 11.3949C82.3189 11.7417 82.9248 12.0885 83.5307 12.4352C84.1366 12.782 84.656 13.3021 85.0888 13.909C85.5216 14.5158 85.6947 15.2093 85.6947 15.9028C85.6947 17.0298 85.2619 17.9834 84.3963 18.7636C83.5307 19.5438 82.492 19.9773 81.3667 19.9773C80.5877 19.9773 79.8952 19.8039 79.2027 19.4571C78.5102 19.1104 78.0774 18.6769 77.7312 18.1568V16.7697C78.4237 18.3302 79.6355 19.1971 81.1936 19.1971C82.1457 19.1971 83.0113 18.8503 83.7038 18.2435C84.3963 17.6366 84.7425 16.9431 84.7425 16.1629C84.7425 15.3827 84.5694 14.7759 84.1366 14.2557C83.7038 13.7356 83.1844 13.3021 82.5785 12.9554C81.9726 12.6086 81.3667 12.2618 80.7608 11.9151C80.1549 11.5683 79.6355 11.1349 79.2027 10.6147C78.7699 10.0946 78.5968 9.48777 78.5968 8.88094C78.5968 8.27411 78.8565 7.66727 79.3758 7.14713C79.8952 6.71368 80.5877 6.45361 81.4533 6.45361C82.3188 6.45361 83.0113 6.80037 83.6172 7.49389V8.53418C83.0979 7.66727 82.4054 7.23382 81.4533 7.23382Z"
    fill="white" />
  <path
    d="M89.676 17.8967C88.3777 16.5097 87.6852 14.9492 87.6852 13.1288C87.6852 11.3083 88.3777 9.74784 89.676 8.44749C90.9744 7.14713 92.6191 6.45361 94.5234 6.45361C96.4277 6.45361 97.9857 7.14713 99.2841 8.44749C100.583 9.74784 101.275 11.3083 101.275 13.1288C101.275 14.9492 100.669 16.5097 99.3707 17.8967C98.0723 19.2837 96.5142 19.8906 94.6965 19.8906H94.4368C92.6191 19.8906 91.061 19.1971 89.676 17.8967ZM100.409 13.2154C100.409 11.5683 99.8035 10.1813 98.6782 9.05432C97.553 7.84066 96.168 7.32051 94.5234 7.32051C92.8787 7.32051 91.5804 7.92735 90.3685 9.14101C89.1567 10.3547 88.6373 11.7417 88.6373 13.3021C88.6373 14.8626 89.2432 16.2496 90.3685 17.4633C91.5804 18.6769 92.9653 19.1971 94.5234 19.1971C96.168 19.1971 97.4664 18.5902 98.6782 17.4633C99.8035 16.1629 100.409 14.7759 100.409 13.2154Z"
    fill="white" />
  <path
    d="M114.346 6.71338H115.298V19.5435H114.346V16.9428C113.394 18.85 111.749 19.8903 109.412 19.8903C107.854 19.8903 106.469 19.3701 105.43 18.2432C104.305 17.1162 103.786 15.8158 103.786 14.2554V6.71338H104.738V14.1687C104.738 15.4691 105.17 16.5961 106.123 17.6363C107.075 18.5899 108.2 19.1101 109.498 19.1101C110.797 19.1101 112.009 18.5899 112.961 17.6363C113.913 16.6827 114.432 15.5558 114.432 14.1687V6.71338H114.346Z"
    fill="white" />
  <path
    d="M123.174 7.23382C122.135 7.23382 121.27 7.58058 120.491 8.3608C119.711 9.14101 119.365 10.0079 119.365 11.0482V19.6305H118.413V6.71368H119.365V8.62087C119.711 8.01404 120.231 7.4072 120.923 7.06044C121.616 6.62699 122.481 6.45361 123.347 6.45361C124.213 6.45361 125.078 6.80037 125.944 7.4072V8.53418C125.078 7.66727 124.213 7.23382 123.174 7.23382Z"
    fill="white" />
  <path
    d="M134.601 19.9765H134.341C132.523 19.9765 130.965 19.283 129.667 17.9826C128.369 16.5956 127.676 15.0352 127.676 13.2147C127.676 11.3942 128.369 9.83378 129.667 8.53342C130.965 7.23307 132.61 6.53955 134.601 6.53955C136.505 6.53955 138.236 7.23307 139.535 8.7068V10.1805C138.929 9.31363 138.236 8.62011 137.284 8.09997C136.332 7.57983 135.466 7.31976 134.428 7.31976C132.87 7.31976 131.485 7.92659 130.273 9.05356C129.061 10.2672 128.542 11.6543 128.542 13.2147C128.542 14.8618 129.148 16.2488 130.273 17.3758C131.485 18.5895 132.783 19.1096 134.428 19.1096C135.38 19.1096 136.332 18.8495 137.284 18.3294C138.236 17.8093 138.929 17.1157 139.535 16.2488V17.7226C138.15 19.1963 136.505 19.9765 134.601 19.9765Z"
    fill="white" />
  <path
    d="M148.364 19.9773H148.104C146.287 19.9773 144.729 19.2837 143.344 17.8967C142.045 16.5097 141.353 14.9492 141.353 13.1288C141.353 11.3083 142.045 9.74784 143.344 8.44749C144.642 7.14713 146.287 6.45361 148.278 6.45361C150.268 6.45361 151.913 7.23382 153.298 8.79425L144.296 17.6366C145.508 18.5902 146.719 19.1104 147.845 19.1104C148.97 19.1104 150.009 18.8503 150.874 18.3302C151.74 17.81 152.519 17.1165 153.125 16.2496V17.7233C151.913 19.1971 150.268 19.9773 148.364 19.9773ZM148.104 7.23382C146.633 7.23382 145.248 7.84065 144.123 8.96763C142.911 10.1813 142.391 11.4816 142.391 13.0421C142.391 14.6025 142.911 15.9028 143.863 17.0298L152.173 8.79425C150.961 7.75396 149.576 7.23382 148.104 7.23382Z"
    fill="white" />
  <path d="M173.035 19.0245V7.32129H174.334V17.7241H180.739V19.0245H173.035Z" fill="white" />
  <path
    d="M185.672 19.0245L190.606 7.32129H192.25L197.184 19.0245H195.713L194.241 15.6435H188.442L186.97 19.0245H185.672ZM189.048 14.4299H193.808L191.385 8.70833L189.048 14.4299Z"
    fill="white" />
  <path
    d="M203.245 19.0245V7.32129H208.525C209.477 7.32129 210.169 7.49467 210.689 7.84143C211.208 8.18819 211.641 8.53495 211.814 9.05509C212.074 9.48854 212.16 10.0087 212.16 10.4421C212.16 11.2223 211.987 11.7425 211.727 12.1759C211.381 12.6094 211.035 12.8695 210.602 13.0428C210.948 13.1295 211.295 13.3029 211.641 13.563C211.987 13.823 212.247 14.0831 212.506 14.5166C212.766 14.95 212.853 15.3835 212.853 15.9903C212.853 16.8572 212.506 17.5507 211.814 18.1576C211.121 18.7644 210.169 19.0245 208.784 19.0245H203.245ZM204.629 12.6094H208.525C208.957 12.6094 209.304 12.5227 209.65 12.436C209.996 12.3493 210.342 12.0892 210.515 11.7425C210.775 11.4824 210.862 11.049 210.862 10.6155C210.862 10.2688 210.775 10.0087 210.602 9.66192C210.429 9.31516 210.256 9.14178 209.91 8.9684C209.563 8.79502 209.131 8.70833 208.611 8.70833H204.543V12.6094H204.629ZM204.629 17.8108H208.957C209.736 17.8108 210.342 17.6374 210.862 17.2907C211.295 16.9439 211.554 16.5104 211.554 15.9036C211.554 15.3835 211.381 14.8633 210.948 14.4299C210.515 13.9964 209.823 13.823 208.957 13.823H204.716V17.8108H204.629Z"
    fill="white" />
  <path d="M163.559 26.3444V0" stroke="white" stroke-width="0.75" stroke-miterlimit="10" />
</svg>