<svg width="232" height="30" viewBox="0 0 232 30" fill="none" xmlns="http://www.w3.org/2000/svg">
<path d="M7.07602 22.8178C5.66081 22.8178 4.4343 22.4252 3.30214 21.738C2.26433 21.0509 1.4152 20.0693 0.849122 18.8913C0.283041 17.7134 0 16.3391 0 14.9648C0 13.4924 0.283041 12.2163 0.849122 10.9402C1.4152 9.76222 2.26433 8.78059 3.30214 8.09346C4.33996 7.40632 5.66081 7.01367 7.07602 7.01367C8.30253 7.01367 9.34034 7.21 10.1895 7.70081C11.0386 8.19162 11.7934 8.87876 12.3594 9.66405V7.30816H14.5294V22.6215H12.3594V20.1674C11.7934 20.9527 11.1329 21.6399 10.1895 22.1307C9.34034 22.6215 8.30253 22.8178 7.07602 22.8178ZM7.35906 20.7564C8.49122 20.7564 9.34034 20.4619 10.0951 19.9711C10.8499 19.4803 11.416 18.695 11.7934 17.8115C12.1708 16.9281 12.3594 15.9464 12.3594 14.9648C12.3594 13.885 12.1708 12.9034 11.7934 12.02C11.416 11.1365 10.8499 10.4494 10.0951 9.95854C9.43469 9.46773 8.49122 9.17324 7.35906 9.17324C6.32124 9.17324 5.37777 9.46773 4.52865 9.95854C3.77388 10.4494 3.11345 11.2347 2.73606 12.02C2.35867 12.9034 2.07563 13.885 2.07563 14.9648C2.07563 16.0446 2.26433 16.9281 2.73606 17.8115C3.11345 18.695 3.77388 19.3821 4.52865 19.9711C5.37777 20.4619 6.32124 20.7564 7.35906 20.7564Z" fill="#2C2C2C"/>
<path d="M24.7191 22.8178C23.2095 22.8178 21.983 22.4252 20.9452 21.738C19.9074 21.0509 19.0583 20.0693 18.3978 18.8913C17.7374 17.7134 17.5487 16.3391 17.5487 14.9648C17.5487 13.4924 17.8317 12.2163 18.3978 10.9402C18.9639 9.66406 19.813 8.78059 20.9452 8.09346C21.983 7.40632 23.3039 7.01367 24.7191 7.01367C26.4173 7.01367 27.9269 7.50448 29.1534 8.38794C30.3799 9.36957 31.229 10.5475 31.6064 12.02H29.2477C28.8703 11.1365 28.3986 10.4494 27.6438 9.86038C26.889 9.27141 26.0399 9.07508 25.0021 9.07508C23.9643 9.07508 23.0208 9.36957 22.1717 9.86038C21.3226 10.3512 20.7565 11.1365 20.2848 11.9218C19.813 12.8053 19.6243 13.7869 19.6243 14.8667C19.6243 15.9464 19.813 16.8299 20.2848 17.7134C20.7565 18.5968 21.3226 19.284 22.1717 19.8729C23.0208 20.3637 23.8699 20.6582 25.0021 20.6582C26.0399 20.6582 26.889 20.3637 27.6438 19.8729C28.3986 19.284 28.8703 18.5968 29.2477 17.7134H31.6064C31.1347 19.1858 30.3799 20.4619 29.1534 21.3454C27.9269 22.4252 26.4173 22.8178 24.7191 22.8178Z" fill="#2C2C2C"/>
<path d="M35.9465 22.6212V9.36929H32.9274V7.30788H35.9465V1.81079H38.1164V7.30788H41.5129V9.36929H38.1164V22.6212H35.9465Z" fill="#2C2C2C"/>
<path d="M43.8717 4.75592V1.71289H46.2304V4.75592H43.8717ZM43.966 22.6215V7.30814H46.136V22.6215H43.966Z" fill="#2C2C2C"/>
<path d="M53.9667 22.6212L48.2115 7.30786H50.6645L55.2875 20.1671L59.9105 7.30786H62.2692L56.514 22.6212H53.9667Z" fill="#2C2C2C"/>
<path d="M70.5707 22.8178C69.0611 22.8178 67.7402 22.4252 66.7024 21.738C65.5703 21.0509 64.7211 20.0693 64.0607 18.8913C63.4003 17.7134 63.1172 16.3391 63.1172 14.9648C63.1172 13.4924 63.4003 12.2163 63.9664 10.9402C64.5325 9.76222 65.3816 8.78059 66.5137 8.09346C67.6459 7.40632 68.8724 7.01367 70.382 7.01367C71.8915 7.01367 73.2124 7.40632 74.2502 8.09346C75.3823 8.78059 76.1371 9.76222 76.7976 10.9402C77.3636 12.1181 77.6467 13.4924 77.6467 14.9648V15.8483H65.3816C65.4759 16.7317 65.759 17.517 66.2307 18.3023C66.7024 19.0876 67.2685 19.6766 68.0233 20.0693C68.7781 20.4619 69.6272 20.7564 70.5707 20.7564C71.6085 20.7564 72.4576 20.5601 73.2124 20.0693C73.8728 19.5785 74.4389 18.9895 74.8163 18.2042H77.2693C76.7976 19.5785 75.9484 20.6582 74.8163 21.5417C73.6841 22.4252 72.2689 22.8178 70.5707 22.8178ZM65.3816 13.7869H75.3823C75.1937 12.5108 74.6276 11.431 73.7784 10.5475C72.9293 9.66405 71.7972 9.27141 70.382 9.27141C68.9668 9.27141 67.8346 9.66405 66.9855 10.5475C66.1363 11.3328 65.6646 12.4126 65.3816 13.7869Z" fill="#2C2C2C"/>
<path d="M88.7815 8.19059C88.2154 8.19059 87.7437 8.38692 87.3663 8.77956C86.9889 9.17221 86.7059 9.56486 86.7059 10.1538C86.7059 10.6446 86.8946 11.2336 87.3663 11.6263C87.8381 12.1171 88.4041 12.5097 89.0646 12.9024C89.725 13.295 90.3854 13.6877 91.0458 14.0803C91.7063 14.473 92.2724 15.062 92.7441 15.7491C93.2158 16.4362 93.4045 17.2215 93.4045 18.0068C93.4045 19.2829 92.9328 20.3627 91.9893 21.2462C91.0458 22.1296 89.9137 22.6205 88.6872 22.6205C87.8381 22.6205 87.0833 22.4241 86.3285 22.0315C85.5737 21.6388 85.102 21.148 84.7246 20.559V18.9884C85.4794 20.7554 86.8002 21.737 88.4985 21.737C89.5363 21.737 90.4798 21.3443 91.2345 20.6572C91.9893 19.9701 92.3667 19.1848 92.3667 18.3013C92.3667 17.4178 92.178 16.7307 91.7063 16.1417C91.2345 15.5528 90.6685 15.062 90.008 14.6693C89.3476 14.2767 88.6872 13.884 88.0268 13.4914C87.3663 13.0987 86.8002 12.6079 86.3285 12.0189C85.8568 11.4299 85.6681 10.7428 85.6681 10.0557C85.6681 9.36854 85.9511 8.6814 86.5172 8.09243C87.0833 7.60162 87.8381 7.30713 88.7815 7.30713C89.725 7.30713 90.4798 7.69978 91.1402 8.48508V9.66303C90.5741 8.6814 89.8193 8.19059 88.7815 8.19059Z" fill="#2C2C2C"/>
<path d="M97.7438 20.2646C96.3286 18.694 95.5739 16.927 95.5739 14.8656C95.5739 12.8042 96.3286 11.0373 97.7438 9.56486C99.159 8.09243 100.952 7.30713 103.027 7.30713C105.103 7.30713 106.801 8.09243 108.216 9.56486C109.632 11.0373 110.386 12.8042 110.386 14.8656C110.386 16.927 109.726 18.694 108.311 20.2646C106.895 21.8352 105.197 22.5223 103.216 22.5223H102.933C100.952 22.5223 99.2534 21.737 97.7438 20.2646ZM109.443 14.9638C109.443 13.0987 108.782 11.5281 107.556 10.252C106.329 8.87773 104.82 8.28875 103.027 8.28875C101.235 8.28875 99.8195 8.97589 98.4986 10.3502C97.1777 11.7244 96.6117 13.295 96.6117 15.062C96.6117 16.8289 97.2721 18.3995 98.4986 19.7737C99.8195 21.148 101.329 21.737 103.027 21.737C104.82 21.737 106.235 21.0499 107.556 19.7737C108.782 18.3013 109.443 16.7307 109.443 14.9638Z" fill="#2C2C2C"/>
<path d="M124.632 7.60181H125.67V22.1298H124.632V19.185C123.594 21.3445 121.802 22.5225 119.254 22.5225C117.556 22.5225 116.046 21.9335 114.914 20.6574C113.688 19.3813 113.122 17.9089 113.122 16.1419V7.60181H114.16V16.0438C114.16 17.5162 114.631 18.7923 115.669 19.9703C116.707 21.05 117.933 21.639 119.349 21.639C120.764 21.639 122.085 21.05 123.122 19.9703C124.16 18.8905 124.726 17.6144 124.726 16.0438V7.60181H124.632Z" fill="#2C2C2C"/>
<path d="M134.256 8.19059C133.123 8.19059 132.18 8.58324 131.331 9.4667C130.482 10.3502 130.104 11.3318 130.104 12.5097V22.2278H129.067V7.60162H130.104V9.76119C130.482 9.07405 131.048 8.38691 131.803 7.99427C132.557 7.50345 133.501 7.30713 134.444 7.30713C135.388 7.30713 136.331 7.69978 137.275 8.38691V9.66303C136.331 8.6814 135.388 8.19059 134.256 8.19059Z" fill="#2C2C2C"/>
<path d="M146.71 22.6202H146.427C144.446 22.6202 142.748 21.8349 141.332 20.3625C139.917 18.7919 139.162 17.0249 139.162 14.9635C139.162 12.9021 139.917 11.1352 141.332 9.66276C142.748 8.19033 144.54 7.40503 146.71 7.40503C148.786 7.40503 150.673 8.19033 152.088 9.85909V11.5278C151.427 10.5462 150.673 9.76093 149.635 9.17195C148.597 8.58298 147.654 8.28849 146.521 8.28849C144.823 8.28849 143.314 8.97563 141.993 10.2517C140.672 11.626 140.106 13.1966 140.106 14.9635C140.106 16.8286 140.766 18.3992 141.993 19.6753C143.314 21.0496 144.729 21.6386 146.521 21.6386C147.559 21.6386 148.597 21.3441 149.635 20.7551C150.673 20.1661 151.427 19.3808 152.088 18.3992V20.068C150.578 21.7367 148.786 22.6202 146.71 22.6202Z" fill="#2C2C2C"/>
<path d="M161.712 22.6205H161.429C159.448 22.6205 157.75 21.8352 156.24 20.2646C154.825 18.694 154.07 16.927 154.07 14.8656C154.07 12.8042 154.825 11.0373 156.24 9.56486C157.655 8.09243 159.448 7.30713 161.618 7.30713C163.788 7.30713 165.58 8.19059 167.09 9.95751L157.278 19.9701C158.599 21.0499 159.92 21.6388 161.146 21.6388C162.373 21.6388 163.505 21.3443 164.448 20.7554C165.392 20.1664 166.241 19.3811 166.901 18.3995V20.0682C165.58 21.737 163.788 22.6205 161.712 22.6205ZM161.429 8.19059C159.825 8.19059 158.316 8.87773 157.089 10.1538C155.768 11.5281 155.202 13.0005 155.202 14.7675C155.202 16.5344 155.768 18.0068 156.806 19.2829L165.863 9.95751C164.543 8.77956 163.033 8.19059 161.429 8.19059Z" fill="#2C2C2C"/>
<path d="M188.6 21.5417V8.28979H190.015V20.0693H196.997V21.5417H188.6Z" fill="#2C2C2C"/>
<path d="M202.374 21.5417L207.752 8.28979H209.545L214.922 21.5417H213.318L211.714 17.7134H205.393L203.789 21.5417H202.374ZM206.054 16.3391H211.243L208.601 9.86039L206.054 16.3391Z" fill="#2C2C2C"/>
<path d="M221.528 21.5417V8.28979H227.283C228.321 8.28979 229.075 8.48612 229.641 8.87877C230.207 9.27142 230.679 9.66407 230.868 10.253C231.151 10.7439 231.245 11.3328 231.245 11.8236C231.245 12.7071 231.057 13.2961 230.774 13.7869C230.396 14.2777 230.019 14.5722 229.547 14.7685C229.924 14.8667 230.302 15.063 230.679 15.3575C231.057 15.652 231.34 15.9465 231.623 16.4373C231.906 16.9281 232 17.4189 232 18.106C232 19.0877 231.623 19.873 230.868 20.5601C230.113 21.2472 229.075 21.5417 227.566 21.5417H221.528ZM223.037 14.2777H227.283C227.754 14.2777 228.132 14.1795 228.509 14.0814C228.887 13.9832 229.264 13.6887 229.453 13.2961C229.736 13.0016 229.83 12.5108 229.83 12.02C229.83 11.6273 229.736 11.3328 229.547 10.9402C229.358 10.5475 229.17 10.3512 228.792 10.1549C228.415 9.95855 227.943 9.86039 227.377 9.86039H222.943V14.2777H223.037ZM223.037 20.1674H227.754C228.604 20.1674 229.264 19.9711 229.83 19.5785C230.302 19.1858 230.585 18.695 230.585 18.0079C230.585 17.4189 230.396 16.8299 229.924 16.3391C229.453 15.8483 228.698 15.652 227.754 15.652H223.131V20.1674H223.037Z" fill="#2C2C2C"/>
<path d="M178.274 29.8308V0" stroke="#2C2C2C" stroke-width="0.75" stroke-miterlimit="10"/>
</svg>
