<svg width="43" height="43" viewBox="0 0 43 43" fill="none" xmlns="http://www.w3.org/2000/svg">
<path fill-rule="evenodd" clip-rule="evenodd" d="M1.79163 7.16667C1.79163 4.19815 4.1981 1.79167 7.16663 1.79167H35.8333C38.8019 1.79167 41.2083 4.19815 41.2083 7.16667V19.7083H37.625V7.16667C37.625 6.17717 36.8228 5.37501 35.8333 5.37501H7.16663C6.17712 5.37501 5.37496 6.17717 5.37496 7.16667V35.8333C5.37496 36.8229 6.17712 37.625 7.16663 37.625H19.7083V41.2083H7.16663C4.1981 41.2083 1.79163 38.802 1.79163 35.8333V7.16667Z" fill="black"/>
<path fill-rule="evenodd" clip-rule="evenodd" d="M14.3333 3.58334C14.3333 2.59384 15.1354 1.79167 16.1249 1.79167H26.8749C27.8645 1.79167 28.6666 2.59384 28.6666 3.58334V16.125C28.6666 16.7009 28.3898 17.2417 27.9225 17.5785C27.4552 17.9152 26.8547 18.0068 26.3084 17.8247L21.4999 16.2219L16.6915 17.8247C16.1451 18.0068 15.5445 17.9152 15.0773 17.5785C14.6101 17.2417 14.3333 16.7009 14.3333 16.125V3.58334ZM17.9166 5.37501V13.6392L20.9334 12.6336C21.301 12.511 21.6988 12.511 22.0664 12.6336L25.0833 13.6392V5.37501H17.9166Z" fill="black"/>
<path fill-rule="evenodd" clip-rule="evenodd" d="M30.4583 23.2917C26.5003 23.2917 23.2916 26.5004 23.2916 30.4583C23.2916 34.4163 26.5003 37.625 30.4583 37.625C34.4162 37.625 37.6249 34.4163 37.6249 30.4583C37.6249 26.5004 34.4162 23.2917 30.4583 23.2917ZM19.7083 30.4583C19.7083 24.5213 24.5212 19.7083 30.4583 19.7083C36.3953 19.7083 41.2083 24.5213 41.2083 30.4583C41.2083 36.3954 36.3953 41.2083 30.4583 41.2083C24.5212 41.2083 19.7083 36.3954 19.7083 30.4583Z" fill="black"/>
<path fill-rule="evenodd" clip-rule="evenodd" d="M29.3385 36.3366C29.9929 36.8601 30.9227 36.8601 31.577 36.3366L36.0562 32.7533L33.8177 29.9552L32.2495 31.2098V25.0833H28.6661V31.2098L27.0979 29.9552L24.8594 32.7533L29.3385 36.3366Z" fill="black"/>
</svg>
