<svg width="30" height="29" viewBox="0 0 30 29" fill="none" xmlns="http://www.w3.org/2000/svg">
  <path
    d="M14.861 1.4436C7.49441 1.4436 1.52258 7.23979 1.52258 14.3898C1.52258 21.5397 7.49441 27.3359 14.861 27.3359C22.2276 27.3359 28.1995 21.5397 28.1995 14.3898C28.1995 7.23979 22.2276 1.4436 14.861 1.4436Z"
    stroke="#9C6CFF" stroke-width="2" stroke-linecap="round" stroke-linejoin="round" />
  <path d="M9.3689 25.7666V16.2396L14.8612 6.93579L20.3535 16.2396V25.7666" stroke="#9C6CFF"
    stroke-width="2" stroke-linecap="round" stroke-linejoin="round" />
  <path
    d="M9.3689 17.1357C9.3689 17.1357 10.916 17.9204 12.1151 17.9204C13.314 17.9204 14.8612 17.1357 14.8612 17.1357C14.8612 17.1357 16.4084 17.9204 17.6074 17.9204C18.8063 17.9204 20.3535 17.1357 20.3535 17.1357"
    stroke="#9C6CFF" stroke-width="2" stroke-linecap="round" stroke-linejoin="round" />
</svg>