<svg width="230" height="18" viewBox="0 0 230 18" fill="none" xmlns="http://www.w3.org/2000/svg">
<path d="M2.184 9.242H3.926C5.278 9.242 5.85 8.605 5.85 7.591C5.85 6.538 5.278 5.914 3.926 5.914H2.184V9.242ZM7.059 7.591C7.059 8.969 6.175 10.217 3.926 10.217H2.184V14H1.001V4.939H3.926C6.058 4.939 7.059 6.109 7.059 7.591ZM15.2893 10.425C15.2893 12.687 13.6643 14.117 11.6363 14.117C9.62132 14.117 8.08732 12.687 8.08732 10.425C8.08732 8.176 9.67332 6.759 11.6883 6.759C13.7163 6.759 15.2893 8.176 15.2893 10.425ZM9.29632 10.425C9.29632 12.232 10.4013 13.077 11.6363 13.077C12.8713 13.077 14.0803 12.232 14.0803 10.425C14.0803 8.631 12.8973 7.786 11.6753 7.786C10.4273 7.786 9.29632 8.631 9.29632 10.425ZM18.2358 14L15.9998 6.876H17.2088L18.8468 12.856L20.6148 6.876H21.8238L23.5528 12.869L25.1648 6.876H26.3348L24.1118 14H22.8898L21.1738 8.345L19.4578 14H18.2358ZM30.5378 7.76C29.3808 7.76 28.4188 8.527 28.2888 9.918H32.7868C32.7998 8.527 31.7598 7.76 30.5378 7.76ZM33.8658 11.803C33.5018 13.103 32.3578 14.117 30.5898 14.117C28.5618 14.117 27.0668 12.687 27.0668 10.425C27.0668 8.176 28.5098 6.759 30.5898 6.759C32.6568 6.759 34.0088 8.215 34.0088 10.165C34.0088 10.425 33.9958 10.633 33.9698 10.88H28.2758C28.3668 12.323 29.3808 13.116 30.5898 13.116C31.6558 13.116 32.3318 12.57 32.5918 11.803H33.8658ZM36.7533 10.126V14H35.5703V6.876H36.7533V8.033C37.1563 7.24 37.9233 6.746 39.0543 6.746V7.968H38.7423C37.6113 7.968 36.7533 8.475 36.7533 10.126ZM43.4489 7.76C42.2919 7.76 41.3299 8.527 41.1999 9.918H45.6979C45.7109 8.527 44.6709 7.76 43.4489 7.76ZM46.7769 11.803C46.4129 13.103 45.2689 14.117 43.5009 14.117C41.4729 14.117 39.9779 12.687 39.9779 10.425C39.9779 8.176 41.4209 6.759 43.5009 6.759C45.5679 6.759 46.9199 8.215 46.9199 10.165C46.9199 10.425 46.9069 10.633 46.8809 10.88H41.1869C41.2779 12.323 42.2919 13.116 43.5009 13.116C44.5669 13.116 45.2429 12.57 45.5029 11.803H46.7769ZM48.0395 10.412C48.0395 8.189 49.5085 6.759 51.4325 6.759C52.5505 6.759 53.5775 7.331 54.0715 8.15V4.38H55.2675V14H54.0715V12.661C53.6425 13.454 52.7195 14.117 51.4195 14.117C49.5085 14.117 48.0395 12.622 48.0395 10.412ZM54.0715 10.425C54.0715 8.774 52.9535 7.786 51.6535 7.786C50.3535 7.786 49.2485 8.735 49.2485 10.412C49.2485 12.089 50.3535 13.077 51.6535 13.077C52.9535 13.077 54.0715 12.102 54.0715 10.425ZM61.9154 8.202C62.3704 7.409 63.3194 6.759 64.5804 6.759C66.5044 6.759 67.9604 8.189 67.9604 10.412C67.9604 12.622 66.4914 14.117 64.5804 14.117C63.2804 14.117 62.3574 13.467 61.9154 12.687V14H60.7324V4.38H61.9154V8.202ZM66.7514 10.412C66.7514 8.735 65.6464 7.786 64.3334 7.786C63.0464 7.786 61.9154 8.774 61.9154 10.425C61.9154 12.102 63.0464 13.077 64.3334 13.077C65.6464 13.077 66.7514 12.089 66.7514 10.412ZM72.2216 12.648L74.4316 6.876H75.6536L71.3636 17.354H70.1416L71.5456 13.922L68.6726 6.876H69.9856L72.2216 12.648Z" fill="#C7C7C7"/>
<path d="M88.4388 13.7667C87.551 13.7667 86.7816 13.5298 86.0714 13.1152C85.4204 12.7006 84.8878 12.1083 84.5327 11.3975C84.1776 10.6867 84 9.85747 84 9.02822C84 8.13975 84.1776 7.36974 84.5327 6.59973C84.8878 5.88895 85.4204 5.29664 86.0714 4.88202C86.7224 4.46739 87.551 4.23047 88.4388 4.23047C89.2081 4.23047 89.8592 4.34893 90.3918 4.64509C90.9245 4.94125 91.3979 5.35587 91.753 5.82972V4.40816H93.1143V13.6483H91.753V12.1675C91.3979 12.6413 90.9837 13.056 90.3918 13.3521C89.8592 13.6483 89.2081 13.7667 88.4388 13.7667ZM88.6163 12.5229C89.3265 12.5229 89.8592 12.3452 90.3326 12.049C90.8061 11.7529 91.1612 11.279 91.3979 10.7459C91.6347 10.2129 91.753 9.62054 91.753 9.02822C91.753 8.37668 91.6347 7.78436 91.3979 7.25128C91.1612 6.71819 90.8061 6.30357 90.3326 6.00742C89.9184 5.71126 89.3265 5.53356 88.6163 5.53356C87.9653 5.53356 87.3735 5.71126 86.8408 6.00742C86.3673 6.30357 85.9531 6.77742 85.7163 7.25128C85.4796 7.78436 85.302 8.37668 85.302 9.02822C85.302 9.67977 85.4204 10.2129 85.7163 10.7459C85.9531 11.279 86.3673 11.6936 86.8408 12.049C87.3735 12.3452 87.9653 12.5229 88.6163 12.5229Z" fill="white"/>
<path d="M99.5058 13.7667C98.5588 13.7667 97.7894 13.5298 97.1384 13.1152C96.4874 12.7006 95.9547 12.1083 95.5405 11.3975C95.1262 10.6867 95.0078 9.85747 95.0078 9.02822C95.0078 8.13975 95.1854 7.36974 95.5405 6.59973C95.8956 5.82972 96.4282 5.29664 97.1384 4.88202C97.7894 4.46739 98.618 4.23047 99.5058 4.23047C100.571 4.23047 101.518 4.52663 102.287 5.05971C103.057 5.65203 103.589 6.3628 103.826 7.25128H102.347C102.11 6.71819 101.814 6.30357 101.34 5.94818C100.867 5.59279 100.334 5.47433 99.6833 5.47433C99.0323 5.47433 98.4405 5.65203 97.9078 5.94818C97.3752 6.24434 97.0201 6.71819 96.7241 7.19205C96.4282 7.72513 96.3098 8.31745 96.3098 8.96899C96.3098 9.62054 96.4282 10.1536 96.7241 10.6867C97.0201 11.2198 97.3752 11.6344 97.9078 11.9898C98.4405 12.286 98.9731 12.4637 99.6833 12.4637C100.334 12.4637 100.867 12.286 101.34 11.9898C101.814 11.6344 102.11 11.2198 102.347 10.6867H103.826C103.53 11.5752 103.057 12.3452 102.287 12.8783C101.518 13.5298 100.571 13.7667 99.5058 13.7667Z" fill="white"/>
<path d="M106.548 13.6489V5.65263H104.654V4.40876H106.548V1.0918H107.909V4.40876H110.04V5.65263H107.909V13.6489H106.548Z" fill="white"/>
<path d="M111.52 2.86938V1.0332H112.999V2.86938H111.52ZM111.579 13.6495V4.4094H112.94V13.6495H111.579Z" fill="white"/>
<path d="M117.852 13.6503L114.242 4.41016H115.781L118.681 12.1695L121.581 4.41016H123.061L119.45 13.6503H117.852Z" fill="white"/>
<path d="M128.269 13.7667C127.322 13.7667 126.494 13.5298 125.843 13.1152C125.133 12.7006 124.6 12.1083 124.186 11.3975C123.771 10.6867 123.594 9.85747 123.594 9.02822C123.594 8.13975 123.771 7.36974 124.126 6.59973C124.482 5.88895 125.014 5.29664 125.724 4.88202C126.435 4.46739 127.204 4.23047 128.151 4.23047C129.098 4.23047 129.926 4.46739 130.577 4.88202C131.288 5.29664 131.761 5.88895 132.175 6.59973C132.53 7.31051 132.708 8.13975 132.708 9.02822V9.56131H125.014C125.073 10.0944 125.251 10.5682 125.547 11.0421C125.843 11.5159 126.198 11.8713 126.671 12.1083C127.145 12.3452 127.677 12.5229 128.269 12.5229C128.92 12.5229 129.453 12.4044 129.926 12.1083C130.341 11.8121 130.696 11.4567 130.933 10.9829H132.471C132.175 11.8121 131.643 12.4637 130.933 12.9967C130.222 13.5298 129.335 13.7667 128.269 13.7667ZM125.014 8.31744H131.288C131.169 7.54744 130.814 6.89589 130.281 6.3628C129.749 5.82972 129.039 5.59279 128.151 5.59279C127.263 5.59279 126.553 5.82972 126.02 6.3628C125.488 6.83666 125.192 7.4882 125.014 8.31744Z" fill="white"/>
<path d="M139.693 4.94324C139.338 4.94324 139.042 5.0617 138.806 5.29863C138.569 5.53556 138.391 5.77248 138.391 6.12787C138.391 6.42403 138.51 6.77942 138.806 7.01634C139.101 7.3125 139.457 7.54943 139.871 7.78635C140.285 8.02328 140.699 8.26021 141.114 8.49713C141.528 8.73406 141.883 9.08945 142.179 9.50407C142.475 9.91869 142.593 10.3925 142.593 10.8664C142.593 11.6364 142.297 12.288 141.706 12.821C141.114 13.3541 140.404 13.6503 139.634 13.6503C139.101 13.6503 138.628 13.5318 138.155 13.2949C137.681 13.058 137.385 12.7618 137.148 12.4064V11.4587C137.622 12.5249 138.45 13.1172 139.516 13.1172C140.167 13.1172 140.759 12.8803 141.232 12.4656C141.706 12.051 141.942 11.5772 141.942 11.0441C141.942 10.511 141.824 10.0964 141.528 9.74099C141.232 9.38561 140.877 9.08945 140.463 8.85252C140.048 8.6156 139.634 8.37867 139.22 8.14174C138.806 7.90482 138.45 7.60866 138.155 7.25327C137.859 6.89788 137.74 6.48326 137.74 6.06864C137.74 5.65402 137.918 5.2394 138.273 4.88401C138.628 4.58785 139.101 4.41016 139.693 4.41016C140.285 4.41016 140.759 4.64708 141.173 5.12093V5.83171C140.818 5.2394 140.344 4.94324 139.693 4.94324Z" fill="white"/>
<path d="M145.314 12.2287C144.427 11.281 143.953 10.2148 143.953 8.97099C143.953 7.72712 144.427 6.66095 145.314 5.77248C146.202 4.88401 147.327 4.41016 148.629 4.41016C149.931 4.41016 150.996 4.88401 151.884 5.77248C152.771 6.66095 153.245 7.72712 153.245 8.97099C153.245 10.2148 152.831 11.281 151.943 12.2287C151.055 13.1764 149.99 13.591 148.747 13.591H148.569C147.327 13.591 146.261 13.1172 145.314 12.2287ZM152.653 9.03022C152.653 7.90482 152.239 6.95711 151.469 6.1871C150.7 5.35786 149.753 5.00247 148.629 5.00247C147.504 5.00247 146.616 5.41709 145.788 6.24633C144.959 7.07558 144.604 8.02328 144.604 9.08945C144.604 10.1556 145.018 11.1033 145.788 11.9326C146.616 12.7618 147.563 13.1172 148.629 13.1172C149.753 13.1172 150.641 12.7026 151.469 11.9326C152.239 11.0441 152.653 10.0964 152.653 9.03022Z" fill="white"/>
<path d="M162.181 4.58789H162.832V13.3542H162.181V11.5772C161.53 12.8803 160.406 13.5911 158.808 13.5911C157.743 13.5911 156.796 13.2357 156.085 12.4657C155.316 11.6957 154.961 10.8072 154.961 9.74104V4.58789H155.612V9.6818C155.612 10.5703 155.908 11.3403 156.559 12.0511C157.21 12.7026 157.979 13.058 158.867 13.058C159.755 13.058 160.583 12.7026 161.234 12.0511C161.885 11.3995 162.241 10.6295 162.241 9.6818V4.58789H162.181Z" fill="white"/>
<path d="M168.22 4.94324C167.51 4.94324 166.918 5.18017 166.385 5.71325C165.853 6.24633 165.616 6.83865 165.616 7.54943V13.4134H164.965V4.58785H165.616V5.89095C165.853 5.47632 166.208 5.0617 166.681 4.82478C167.155 4.52862 167.746 4.41016 168.338 4.41016C168.93 4.41016 169.522 4.64708 170.114 5.0617V5.83171C169.522 5.2394 168.93 4.94324 168.22 4.94324Z" fill="white"/>
<path d="M176.032 13.6496H175.854C174.611 13.6496 173.546 13.1758 172.658 12.2873C171.77 11.3396 171.297 10.2734 171.297 9.02958C171.297 7.78572 171.77 6.71955 172.658 5.83108C173.546 4.9426 174.67 4.46875 176.032 4.46875C177.334 4.46875 178.517 4.9426 179.405 5.94954V6.95648C178.991 6.36416 178.517 5.89031 177.866 5.53492C177.215 5.17953 176.623 5.00183 175.913 5.00183C174.848 5.00183 173.901 5.41646 173.072 6.18647C172.244 7.01571 171.889 7.96341 171.889 9.02958C171.889 10.155 172.303 11.1027 173.072 11.8727C173.901 12.7019 174.789 13.0573 175.913 13.0573C176.564 13.0573 177.215 12.8796 177.866 12.5242C178.517 12.1689 178.991 11.695 179.405 11.1027V12.1096C178.458 13.1166 177.334 13.6496 176.032 13.6496Z" fill="white"/>
<path d="M185.442 13.6503H185.265C184.022 13.6503 182.957 13.1764 182.01 12.2287C181.122 11.281 180.648 10.2148 180.648 8.97098C180.648 7.72712 181.122 6.66095 182.01 5.77248C182.897 4.88401 184.022 4.41016 185.383 4.41016C186.744 4.41016 187.869 4.94324 188.816 6.00941L182.661 12.051C183.489 12.7026 184.318 13.058 185.087 13.058C185.857 13.058 186.567 12.8803 187.159 12.5249C187.75 12.1695 188.283 11.6956 188.697 11.1033V12.1103C187.869 13.1172 186.744 13.6503 185.442 13.6503ZM185.265 4.94324C184.259 4.94324 183.312 5.35786 182.542 6.12787C181.714 6.95711 181.359 7.84559 181.359 8.91175C181.359 9.97792 181.714 10.8664 182.365 11.6364L188.046 6.00941C187.218 5.29863 186.271 4.94324 185.265 4.94324Z" fill="white"/>
<path d="M202.311 12.9982V5.00195H203.198V12.1097H207.578V12.9982H202.311Z" fill="white"/>
<path d="M210.951 12.9982L214.325 5.00195H215.449L218.823 12.9982H217.816L216.81 10.6882H212.845L211.839 12.9982H210.951ZM213.259 9.85894H216.514L214.857 5.94966L213.259 9.85894Z" fill="white"/>
<path d="M222.967 12.9982V5.00195H226.577C227.228 5.00195 227.701 5.12042 228.057 5.35734C228.412 5.59427 228.708 5.83119 228.826 6.18658C229.004 6.48274 229.063 6.83813 229.063 7.13429C229.063 7.66737 228.944 8.02276 228.767 8.31892C228.53 8.61508 228.293 8.79277 227.997 8.91123C228.234 8.97047 228.471 9.08893 228.708 9.26662C228.944 9.44432 229.122 9.62201 229.299 9.91817C229.477 10.2143 229.536 10.5105 229.536 10.9251C229.536 11.5174 229.299 11.9913 228.826 12.4059C228.352 12.8205 227.701 12.9982 226.755 12.9982H222.967ZM223.914 8.61508H226.577C226.873 8.61508 227.11 8.55585 227.346 8.49661C227.583 8.43738 227.82 8.25969 227.938 8.02276C228.116 7.84507 228.175 7.54891 228.175 7.25275C228.175 7.01583 228.116 6.83813 227.997 6.6012C227.879 6.36428 227.761 6.24582 227.524 6.12735C227.287 6.00889 226.991 5.94966 226.636 5.94966H223.855V8.61508H223.914ZM223.914 12.169H226.873C227.406 12.169 227.82 12.0505 228.175 11.8136C228.471 11.5767 228.648 11.2805 228.648 10.8659C228.648 10.5105 228.53 10.1551 228.234 9.85894C227.938 9.56278 227.465 9.44432 226.873 9.44432H223.973V12.169H223.914Z" fill="white"/>
<path d="M195.832 18V0" stroke="white" stroke-width="0.75" stroke-miterlimit="10"/>
</svg>
