<svg width="51" height="51" viewBox="0 0 51 51" fill="none" xmlns="http://www.w3.org/2000/svg">
<g clip-path="url(#clip0_181_252)">
<path d="M10.9437 11.7938C11.2402 11.4314 11.6129 11.1389 12.0352 10.9369C12.4576 10.7349 12.9193 10.6284 13.3874 10.625H14.6624L14.3437 8.81875C14.284 8.38951 14.3095 7.95269 14.4189 7.53335C14.5283 7.114 14.7194 6.72036 14.9812 6.375C15.5915 5.72893 16.4306 5.34754 17.3187 5.3125H42.7124C43.276 5.3125 43.8165 5.53638 44.215 5.9349C44.6136 6.33341 44.8374 6.87391 44.8374 7.4375C44.8374 8.00109 44.6136 8.54159 44.215 8.9401C43.8165 9.33862 43.276 9.5625 42.7124 9.5625H18.8062L23.0562 33.8937C23.5359 34.571 23.8953 35.3257 24.1187 36.125H29.0062C29.4686 34.5969 30.4104 33.2582 31.6923 32.3067C32.9743 31.3552 34.5284 30.8415 36.1249 30.8415C37.7214 30.8415 39.2756 31.3552 40.5575 32.3067C41.8395 33.2582 42.7813 34.5969 43.2437 36.125H44.4124L43.8812 33.0438C43.788 32.4949 43.9139 31.9314 44.2318 31.4745C44.5497 31.0175 45.0342 30.7035 45.5812 30.6C46.13 30.5068 46.6935 30.6327 47.1505 30.9506C47.6075 31.2685 47.9215 31.753 48.0249 32.3L48.8749 36.8688C48.9402 37.3058 48.9073 37.7518 48.7787 38.1745C48.65 38.5972 48.4289 38.986 48.1312 39.3125C47.8571 39.6392 47.5161 39.9031 47.1311 40.0864C46.7461 40.2697 46.3263 40.3681 45.8999 40.375H43.2437C42.7813 41.9031 41.8395 43.2418 40.5575 44.1933C39.2756 45.1448 37.7214 45.6585 36.1249 45.6585C34.5284 45.6585 32.9743 45.1448 31.6923 44.1933C30.4104 43.2418 29.4686 41.9031 29.0062 40.375H24.1187C23.6563 41.9031 22.7145 43.2418 21.4325 44.1933C20.1506 45.1448 18.5964 45.6585 16.9999 45.6585C15.4034 45.6585 13.8493 45.1448 12.5673 44.1933C11.2854 43.2418 10.3436 41.9031 9.88119 40.375H7.75619C6.95767 40.3598 6.18998 40.064 5.58772 39.5395C4.98547 39.0149 4.58709 38.2951 4.46244 37.5062L2.12494 23.9062L10.9437 11.7938ZM36.1249 41.4375C36.9703 41.4375 37.7811 41.1017 38.3788 40.5039C38.9766 39.9061 39.3124 39.0954 39.3124 38.25C39.3124 37.4046 38.9766 36.5939 38.3788 35.9961C37.7811 35.3983 36.9703 35.0625 36.1249 35.0625C35.2796 35.0625 34.4688 35.3983 33.871 35.9961C33.2733 36.5939 32.9374 37.4046 32.9374 38.25C32.9374 39.0954 33.2733 39.9061 33.871 40.5039C34.4688 41.1017 35.2796 41.4375 36.1249 41.4375ZM15.4062 14.875H14.0249L7.75619 23.375H16.8937L15.4062 14.875ZM16.9999 41.4375C17.8453 41.4375 18.6561 41.1017 19.2538 40.5039C19.8516 39.9061 20.1874 39.0954 20.1874 38.25C20.1874 37.4046 19.8516 36.5939 19.2538 35.9961C18.6561 35.3983 17.8453 35.0625 16.9999 35.0625C16.1546 35.0625 15.3438 35.3983 14.746 35.9961C14.1483 36.5939 13.8124 37.4046 13.8124 38.25C13.8124 39.0954 14.1483 39.9061 14.746 40.5039C15.3438 41.1017 16.1546 41.4375 16.9999 41.4375ZM8.49994 36.125H9.88119C10.3384 34.5915 11.278 33.2464 12.5604 32.2893C13.8428 31.3323 15.3998 30.8144 16.9999 30.8125H18.1687L17.6374 27.5187H7.11869L8.49994 36.125Z" fill="black"/>
<path d="M46.75 15.9375H36.125C35.5614 15.9375 35.0209 15.7136 34.6224 15.3151C34.2239 14.9166 34 14.3761 34 13.8125C34 13.2489 34.2239 12.7084 34.6224 12.3099C35.0209 11.9114 35.5614 11.6875 36.125 11.6875H46.75C47.3136 11.6875 47.8541 11.9114 48.2526 12.3099C48.6511 12.7084 48.875 13.2489 48.875 13.8125C48.875 14.3761 48.6511 14.9166 48.2526 15.3151C47.8541 15.7136 47.3136 15.9375 46.75 15.9375Z" fill="black"/>
<path d="M35.0625 20.1875C35.0625 19.6239 35.2864 19.0834 35.6849 18.6849C36.0834 18.2864 36.6239 18.0625 37.1875 18.0625H45.6875C46.2511 18.0625 46.7916 18.2864 47.1901 18.6849C47.5886 19.0834 47.8125 19.6239 47.8125 20.1875C47.8125 20.7511 47.5886 21.2916 47.1901 21.6901C46.7916 22.0886 46.2511 22.3125 45.6875 22.3125H37.1875C36.6239 22.3125 36.0834 22.0886 35.6849 21.6901C35.2864 21.2916 35.0625 20.7511 35.0625 20.1875Z" fill="black"/>
<path d="M44.625 24.4375C45.1886 24.4375 45.7291 24.6614 46.1276 25.0599C46.5261 25.4584 46.75 25.9989 46.75 26.5625C46.75 27.1261 46.5261 27.6666 46.1276 28.0651C45.7291 28.4636 45.1886 28.6875 44.625 28.6875H38.25C37.6864 28.6875 37.1459 28.4636 36.7474 28.0651C36.3489 27.6666 36.125 27.1261 36.125 26.5625C36.125 25.9989 36.3489 25.4584 36.7474 25.0599C37.1459 24.6614 37.6864 24.4375 38.25 24.4375H44.625Z" fill="black"/>
</g>
<defs>
<clipPath id="clip0_181_252">
<rect width="51" height="51" fill="white" transform="matrix(-1 0 0 1 51 0)"/>
</clipPath>
</defs>
</svg>
