<svg width="26" height="26" viewBox="0 0 26 26" fill="none" xmlns="http://www.w3.org/2000/svg">
<path d="M7.10321 17.1062C7.25228 17.6537 7.81049 17.9751 8.35001 17.8238C8.88954 17.6725 9.20609 17.106 9.05702 16.5583L7.10321 17.1062ZM1.28471 2.65062C0.745355 2.49874 0.186795 2.81938 0.0371488 3.36678C-0.112498 3.91419 0.20343 4.48108 0.742801 4.63296L1.28471 2.65062ZM24.2413 17.7381C24.783 17.5953 25.1081 17.0337 24.9673 16.4838C24.8265 15.934 24.2733 15.6042 23.7315 15.7471L24.2413 17.7381ZM10.7404 20.2525C11.1587 21.7896 10.2404 23.4111 8.6135 23.8402L9.12335 25.8313C11.795 25.1267 13.4275 22.3991 12.6941 19.7048L10.7404 20.2525ZM8.6135 23.8402C6.97605 24.2721 5.33291 23.3075 4.91101 21.7576L2.9572 22.3054C3.68708 24.9868 6.46227 26.5332 9.12335 25.8313L8.6135 23.8402ZM4.91101 21.7576C4.49264 20.2206 5.41099 18.5991 7.03786 18.1699L6.52802 16.1788C3.85637 16.8835 2.22379 19.6111 2.9572 22.3054L4.91101 21.7576ZM7.03786 18.1699C8.6753 17.7381 10.3184 18.7026 10.7404 20.2525L12.6941 19.7048C11.9643 17.0234 9.18907 15.477 6.52802 16.1788L7.03786 18.1699ZM9.05702 16.5583L6.1486 5.87378L4.19479 6.42161L7.10321 17.1062L9.05702 16.5583ZM3.58698 3.29889L1.28471 2.65062L0.742801 4.63296L3.04507 5.28123L3.58698 3.29889ZM6.1486 5.87378C5.80654 4.61719 4.826 3.64778 3.58698 3.29889L3.04507 5.28123C3.62018 5.44318 4.04848 5.88411 4.19479 6.42161L6.1486 5.87378ZM11.9721 20.9742L24.2413 17.7381L23.7315 15.7471L11.4623 18.9831L11.9721 20.9742Z" fill="black"/>
<path d="M22.7661 5.33783C22.1005 2.98436 21.7677 1.80762 20.7891 1.27239C19.8107 0.737169 18.5685 1.05249 16.0844 1.68309L13.4494 2.35196C10.9652 2.98257 9.7231 3.29787 9.15813 4.22492C8.59318 5.15195 8.926 6.32868 9.59165 8.68215L10.2976 11.1785C10.9633 13.5318 11.2961 14.7086 12.2746 15.2439C13.2532 15.779 14.4954 15.4637 16.9795 14.8331L19.6145 14.1643C22.0987 13.5337 23.3408 13.2184 23.9057 12.2913C24.2161 11.7821 24.2555 11.1976 24.1177 10.384" stroke="black" stroke-width="2" stroke-linecap="round"/>
</svg>
