<svg width="26" height="26" viewBox="0 0 26 26" fill="none" xmlns="http://www.w3.org/2000/svg">
<path d="M8.71148 2.39486C4.97343 1.03988 2.97941 0.487369 1.8872 1.57959C0.643427 2.82336 1.5325 5.23658 3.31066 10.0631L6.28346 18.132C7.17481 20.5514 7.62048 21.761 8.60026 21.9763C9.58005 22.1915 10.4917 21.2799 12.3148 19.4568L14.0957 17.6759L19.9275 23.5076C20.5312 24.1115 20.8331 24.4134 21.17 24.5529C21.6191 24.7389 22.1236 24.7389 22.5727 24.5529C22.9094 24.4134 23.2114 24.1115 23.8152 23.5076C24.4191 22.9038 24.721 22.6018 24.8605 22.2651C25.0465 21.816 25.0465 21.3115 24.8605 20.8624C24.721 20.5255 24.4191 20.2236 23.8152 19.6198L17.9835 13.7881L19.7644 12.0072C21.5876 10.1841 22.4991 9.27243 22.284 8.29265C22.0687 7.31286 20.859 6.8672 18.4396 5.97584L14.6346 4.57398" stroke="black" stroke-width="2" stroke-linecap="round" stroke-linejoin="round"/>
</svg>
