<svg width="28" height="28" viewBox="0 0 28 28" fill="none" xmlns="http://www.w3.org/2000/svg">
<path d="M14 1C6.82029 1 1 6.64911 1 13.6176C1 20.5861 6.82029 26.2353 14 26.2353C21.1796 26.2353 27 20.5861 27 13.6176C27 6.64911 21.1796 1 14 1Z" stroke="black" stroke-width="2" stroke-linecap="round" stroke-linejoin="round"/>
<path d="M8.64722 24.7058V15.4206L14.0002 6.35284L19.3531 15.4206V24.7058" stroke="black" stroke-width="2" stroke-linecap="round" stroke-linejoin="round"/>
<path d="M8.64722 16.294C8.64722 16.294 10.1551 17.0587 11.3237 17.0587C12.4922 17.0587 14.0002 16.294 14.0002 16.294C14.0002 16.294 15.5081 17.0587 16.6766 17.0587C17.8452 17.0587 19.3531 16.294 19.3531 16.294" stroke="black" stroke-width="2" stroke-linecap="round" stroke-linejoin="round"/>
</svg>
