<svg width="29" height="29" viewBox="0 0 29 29" fill="none" xmlns="http://www.w3.org/2000/svg">
<path d="M23.0187 27.8164H5.98121V12.7066L3.67476 13.7875L0 8.09784L6.44036 2.32429L11.2351 1.18359L11.5469 1.75826C11.61 1.8622 12.4853 3.2399 14.4999 3.2399C16.5872 3.2399 17.443 1.77604 17.4513 1.76125L17.7778 1.18665L22.5596 2.32429L28.9999 8.09784L25.3252 13.7875L23.0187 12.7066V27.8164ZM7.74199 26.0556H21.2579V9.93698L24.6803 11.5407L26.7052 8.40539L21.7172 3.93382L18.5753 3.18631C17.9707 3.88781 16.6695 5.00068 14.5 5.00068C12.3305 5.00068 11.0293 3.88781 10.4247 3.18631L7.28284 3.93382L2.29477 8.40539L4.31973 11.5407L7.74205 9.93698V26.0556H7.74199Z" fill="#8044FD"/>
</svg>
