<svg width="2975" height="2975" viewBox="0 0 2975 2975" fill="none" xmlns="http://www.w3.org/2000/svg">
<path d="M440.502 285.558C404.159 316.459 382.124 360.88 361.143 403.984C249.565 633.812 137.898 863.727 28.0761 1089.87C19.1217 1108.21 10.2552 1126.48 1.38867 1144.64C120.516 1246.48 256.5 1328.74 408.021 1385.19C421.453 1367.89 434.709 1350.16 447.526 1332.25C501.251 1257.54 548.744 1178.54 589.478 1096.11V1095.93C582.895 815.971 554.714 535.841 440.414 285.646L440.502 285.558Z" fill="white"/>
<mask id="mask0_2218_16" style="mask-type:luminance" maskUnits="userSpaceOnUse" x="1" y="285" width="589" height="1101">
<path d="M440.502 285.558C404.159 316.459 382.124 360.88 361.143 403.984C249.565 633.812 137.898 863.727 28.0761 1089.87C19.1217 1108.21 10.2552 1126.48 1.38867 1144.64C120.516 1246.48 256.5 1328.74 408.021 1385.19C421.453 1367.89 434.709 1350.16 447.526 1332.25C501.251 1257.54 548.744 1178.54 589.478 1096.11V1095.93C582.895 815.971 554.714 535.841 440.414 285.646L440.502 285.558Z" fill="white"/>
</mask>
<g mask="url(#mask0_2218_16)">
<path d="M557.876 1269.49C503.009 1248.06 451.126 1218.92 404.248 1183.19" stroke="#E4E5EB" stroke-linecap="round" stroke-linejoin="round"/>
<path d="M497.302 1314.43C425.842 1280.01 356.929 1240.07 291.439 1195.21" stroke="#E4E5EB" stroke-linecap="round" stroke-linejoin="round"/>
<path d="M573.412 484.134C515.472 559.807 473.246 647.419 450.158 739.859" stroke="#E4E5EB" stroke-linecap="round" stroke-linejoin="round"/>
</g>
<path d="M28.0762 1089.96C154.842 1190.91 296.794 1272.9 447.613 1332.25" stroke="#797E91" stroke-linecap="round" stroke-linejoin="round"/>
<g style="mix-blend-mode:multiply" opacity="0.09">
<path d="M408.023 1385.1C421.455 1367.8 434.711 1350.07 447.528 1332.16C501.254 1257.46 548.747 1178.45 589.481 1096.02V1095.84C587.724 1020.86 584.389 945.896 578.243 871.453C428.214 1073.1 313.125 1223.05 244.475 1311.27C296.709 1339.27 351.225 1364.03 407.936 1385.1H408.023Z" fill="#383838"/>
</g>
<path d="M440.502 285.558C404.159 316.459 382.124 360.88 361.143 403.984C249.565 633.812 137.898 863.727 28.0761 1089.87C19.1218 1108.21 10.2552 1126.48 1.38867 1144.64C120.516 1246.48 256.5 1328.74 408.021 1385.19C421.453 1367.89 434.709 1350.16 447.526 1332.25C501.251 1257.54 548.744 1178.54 589.478 1096.11V1095.93C582.895 815.971 554.714 535.841 440.414 285.646L440.502 285.558Z" stroke="#292F44" stroke-linecap="round" stroke-linejoin="round"/>
<path d="M2535.11 285.558C2571.46 316.459 2593.5 360.88 2614.47 403.984C2726.06 633.9 2837.81 863.727 2947.63 1089.87C2956.58 1108.21 2965.45 1126.48 2974.32 1144.64C2855.19 1246.48 2719.21 1328.74 2567.68 1385.19C2554.26 1367.89 2541 1350.16 2528.18 1332.25C2474.46 1257.54 2426.96 1178.54 2386.23 1096.11V1095.93C2392.82 815.971 2420.99 535.841 2535.29 285.646L2535.11 285.558Z" fill="white"/>
<mask id="mask1_2218_16" style="mask-type:luminance" maskUnits="userSpaceOnUse" x="2386" y="285" width="589" height="1101">
<path d="M2535.11 285.558C2571.46 316.459 2593.5 360.88 2614.47 403.984C2726.06 633.9 2837.81 863.727 2947.63 1089.87C2956.58 1108.21 2965.45 1126.48 2974.32 1144.64C2855.19 1246.48 2719.21 1328.74 2567.68 1385.19C2554.26 1367.89 2541 1350.16 2528.18 1332.25C2474.46 1257.54 2426.96 1178.54 2386.23 1096.11V1095.93C2392.82 815.971 2420.99 535.841 2535.29 285.646L2535.11 285.558Z" fill="white"/>
</mask>
<g mask="url(#mask1_2218_16)">
<path d="M2417.74 1269.49C2472.61 1248.06 2524.5 1218.92 2571.37 1183.19" stroke="#E4E5EB" stroke-linecap="round" stroke-linejoin="round"/>
<path d="M2478.31 1314.43C2549.78 1280.01 2618.69 1240.07 2684.18 1195.21" stroke="#E4E5EB" stroke-linecap="round" stroke-linejoin="round"/>
<path d="M2402.2 484.134C2460.14 559.807 2502.37 647.419 2525.45 739.859" stroke="#E4E5EB" stroke-linecap="round" stroke-linejoin="round"/>
</g>
<path d="M2947.63 1089.96C2820.87 1190.91 2678.91 1272.9 2528.09 1332.25" stroke="#797E91" stroke-linecap="round" stroke-linejoin="round"/>
<g style="mix-blend-mode:multiply" opacity="0.09">
<path d="M2395.44 894.277C2390.45 961.172 2387.64 1028.5 2386.06 1095.84V1096.02C2426.88 1178.54 2474.37 1257.46 2528 1332.16C2540.91 1350.07 2554.08 1367.71 2567.5 1385.1C2622.55 1364.55 2675.58 1340.59 2726.49 1313.64C2625.36 1140.53 2496.22 994.531 2395.44 894.277Z" fill="#383838"/>
</g>
<path d="M2535.11 285.558C2571.46 316.459 2593.5 360.88 2614.47 403.984C2726.06 633.9 2837.81 863.727 2947.63 1089.87C2956.58 1108.21 2965.45 1126.48 2974.32 1144.64C2855.19 1246.48 2719.21 1328.74 2567.68 1385.19C2554.26 1367.89 2541 1350.16 2528.18 1332.25C2474.46 1257.54 2426.96 1178.54 2386.23 1096.11V1095.93C2392.82 815.971 2420.99 535.841 2535.29 285.646L2535.11 285.558Z" stroke="#292F44" stroke-linecap="round" stroke-linejoin="round"/>
<path d="M2384.21 1347.35C2384.04 1264.04 2384.12 1180.03 2386.06 1095.93C2392.64 815.972 2420.82 535.753 2535.11 285.558C2534.5 284.943 2533.8 284.505 2533.18 283.891C2503.51 259.397 2466.73 245.702 2430.65 232.447C2246.12 164.674 2061.5 96.8148 1876.97 29.1305L1801.47 1.38965C1734.06 22.7221 1584.64 53.0088 1487.8 53.0088C1390.98 53.0088 1241.74 22.7221 1174.23 1.38965L1098.73 29.1305C914.117 96.9026 729.499 164.762 544.97 232.447C508.977 245.702 472.106 259.397 442.521 283.891C441.82 284.505 441.117 284.943 440.59 285.558C554.802 535.753 583.07 815.884 589.653 1095.84C591.497 1180.03 591.585 1264.04 591.409 1347.35C590.531 1856.52 589.478 2365.68 588.601 2874.85C588.513 2898.03 588.513 2921.38 588.513 2944.56C887.254 2973.88 1200.57 2974.05 1487.89 2974.05C1775.23 2974.05 2088.54 2973.88 2387.37 2944.56C2387.37 2921.38 2387.29 2898.03 2387.29 2874.85C2386.32 2365.68 2385.35 1856.52 2384.3 1347.35H2384.21Z" fill="white"/>
<mask id="mask2_2218_16" style="mask-type:luminance" maskUnits="userSpaceOnUse" x="440" y="1" width="2096" height="2974">
<path d="M2384.21 1347.35C2384.04 1264.04 2384.12 1180.03 2386.06 1095.93C2392.64 815.972 2420.82 535.753 2535.11 285.558C2534.5 284.943 2533.8 284.505 2533.18 283.891C2503.51 259.397 2466.73 245.702 2430.65 232.447C2246.12 164.674 2061.5 96.8148 1876.97 29.1305L1801.47 1.38965C1734.06 22.7221 1584.64 53.0088 1487.8 53.0088C1390.98 53.0088 1241.74 22.7221 1174.23 1.38965L1098.73 29.1305C914.117 96.9026 729.499 164.762 544.97 232.447C508.977 245.702 472.106 259.397 442.521 283.891C441.82 284.505 441.117 284.943 440.59 285.558C554.802 535.753 583.07 815.884 589.653 1095.84C591.497 1180.03 591.585 1264.04 591.409 1347.35C590.531 1856.52 589.478 2365.68 588.601 2874.85C588.513 2898.03 588.513 2921.38 588.513 2944.56C887.254 2973.88 1200.57 2974.05 1487.89 2974.05C1775.23 2974.05 2088.54 2973.88 2387.37 2944.56C2387.37 2921.38 2387.29 2898.03 2387.29 2874.85C2386.32 2365.68 2385.35 1856.52 2384.3 1347.35H2384.21Z" fill="white"/>
</mask>
<g mask="url(#mask2_2218_16)">
<path d="M2212.15 707.465C2229.79 755.573 2254.99 800.959 2282.2 843.975C2273.07 884.181 2268.24 925.266 2267.89 966.526" stroke="#E4E5EB" stroke-linecap="round" stroke-linejoin="round"/>
<path d="M2296.34 703.164C2319.16 604.754 2351.56 508.538 2392.82 416.362" stroke="#E4E5EB" stroke-linecap="round" stroke-linejoin="round"/>
<path d="M763.561 707.465C745.915 755.573 720.72 800.959 693.506 843.975C702.636 884.181 707.464 925.266 707.816 966.526" stroke="#E4E5EB" stroke-linecap="round" stroke-linejoin="round"/>
<path d="M679.283 703.164C656.459 604.754 624.065 508.538 582.805 416.362" stroke="#E4E5EB" stroke-linecap="round" stroke-linejoin="round"/>
<path d="M990.229 1332.25C990.229 1332.25 1467.36 1537.93 2067.56 1499.48" stroke="#E4E5EB" stroke-linecap="round" stroke-linejoin="round"/>
<path d="M1259.56 2179.13C1259.56 2179.13 1214.44 2748.52 1121.56 3061.49" stroke="#E4E5EB" stroke-linecap="round" stroke-linejoin="round"/>
<path d="M1876.97 2471.56C1876.97 2471.56 1936.75 2799.88 2008.56 3061.49" stroke="#E4E5EB" stroke-linecap="round" stroke-linejoin="round"/>
</g>
<path d="M588.514 2874.85C887.256 2904.18 1200.57 2904.35 1487.82 2904.35C1775.05 2904.35 2088.46 2904.18 2387.2 2874.85" stroke="#797E91" stroke-linecap="round" stroke-linejoin="round"/>
<path d="M1876.97 29.1309C1751.61 97.0789 1633.45 126.048 1487.81 126.048C1342.17 126.048 1224.01 97.0789 1098.73 29.1309" stroke="#797E91" stroke-linecap="round" stroke-linejoin="round"/>
<g style="mix-blend-mode:multiply" opacity="0.09">
<path d="M589.566 1095.84V1096.02C591.41 1180.12 591.498 1264.13 591.322 1347.35C590.444 1856.52 589.391 2365.68 588.514 2874.85C588.426 2898.03 588.426 2921.38 588.426 2944.56C607.826 2946.49 627.316 2948.25 646.892 2949.92V1459.45C646.892 1081.62 617.132 819.395 617.132 819.395C603.964 837.215 591.147 854.509 578.418 871.54C584.563 945.984 587.899 1020.95 589.654 1095.93L589.566 1095.84Z" fill="#383838"/>
</g>
<g style="mix-blend-mode:multiply" opacity="0.09">
<path d="M2387.11 2874.85C2386.14 2365.69 2385.18 1856.52 2384.12 1347.35C2383.95 1264.04 2384.04 1180.03 2385.97 1095.93C2387.55 1028.59 2390.45 961.26 2395.35 894.278C2302.48 801.926 2233.74 748.287 2233.74 748.287C2233.74 748.287 2168.52 1507.47 2161.58 2026.21C2156.4 2417.92 2172.73 2797.78 2181.06 2960.36C2250.07 2956.33 2318.89 2951.23 2387.11 2944.56C2387.11 2921.38 2387.02 2898.03 2387.02 2874.85H2387.11Z" fill="#383838"/>
</g>
<path d="M2384.21 1347.35C2384.04 1264.04 2384.12 1180.03 2386.06 1095.93C2392.64 815.972 2420.82 535.753 2535.11 285.558C2534.5 284.943 2533.8 284.505 2533.18 283.891C2503.51 259.397 2466.73 245.703 2430.65 232.447C2246.12 164.674 2061.5 96.8148 1876.97 29.1305L1801.47 1.38965C1734.06 22.7221 1584.64 53.0088 1487.8 53.0088C1390.98 53.0088 1241.74 22.7221 1174.23 1.38965L1098.73 29.1305C914.117 96.9026 729.499 164.762 544.97 232.447C508.977 245.703 472.106 259.397 442.521 283.891C441.82 284.505 441.117 284.943 440.59 285.558C554.802 535.753 583.07 815.884 589.653 1095.84C591.497 1180.03 591.585 1264.04 591.409 1347.35C590.531 1856.52 589.478 2365.68 588.601 2874.85C588.513 2898.03 588.513 2921.38 588.513 2944.56C887.254 2973.88 1200.57 2974.05 1487.89 2974.05C1775.23 2974.05 2088.54 2973.88 2387.37 2944.56C2387.37 2921.38 2387.29 2898.03 2387.29 2874.85C2386.32 2365.68 2385.35 1856.52 2384.3 1347.35H2384.21Z" stroke="#292F44" stroke-linecap="round" stroke-linejoin="round"/>
<rect x="1188" y="326" width="600" height="600" fill="#6E48D8"/>
<rect x="791.5" y="329.5" width="1393" height="1743" stroke="black" stroke-width="7"/>
</svg>
