<svg width="160" height="160" viewBox="0 0 160 160" fill="none" xmlns="http://www.w3.org/2000/svg">
<g clip-path="url(#clip0_2401_814)">
<path d="M23.6909 15.3574C21.7363 17.0193 20.5512 19.4084 19.4228 21.7266C13.422 34.087 7.41639 46.4522 1.51 58.6145C1.02842 59.6009 0.551564 60.5835 0.074707 61.5602C6.48156 67.0373 13.795 71.4613 21.944 74.4973C22.6664 73.5669 23.3793 72.6133 24.0686 71.6501C26.9581 67.6321 29.5123 63.3833 31.703 58.9501V58.9405C31.349 43.8838 29.8334 28.818 23.6862 15.3622L23.6909 15.3574Z" fill="white"/>
<mask id="mask0_2401_814" style="mask-type:luminance" maskUnits="userSpaceOnUse" x="0" y="15" width="32" height="60">
<path d="M23.6909 15.3574C21.7363 17.0193 20.5512 19.4084 19.4228 21.7266C13.422 34.087 7.41639 46.4522 1.51 58.6145C1.02842 59.6009 0.551564 60.5835 0.074707 61.5602C6.48156 67.0373 13.795 71.4613 21.944 74.4973C22.6664 73.5669 23.3793 72.6133 24.0686 71.6501C26.9581 67.6321 29.5123 63.3833 31.703 58.9501V58.9405C31.349 43.8838 29.8334 28.818 23.6862 15.3622L23.6909 15.3574Z" fill="white"/>
</mask>
<g mask="url(#mask0_2401_814)">
<path d="M30.0031 68.2751C27.0522 67.1226 24.2619 65.5554 21.7407 63.6338" stroke="#E4E5EB" stroke-linecap="round" stroke-linejoin="round"/>
<path d="M26.7455 70.6921C22.9022 68.841 19.196 66.6929 15.6738 64.2803" stroke="#E4E5EB" stroke-linecap="round" stroke-linejoin="round"/>
<path d="M30.8387 26.0371C27.7226 30.1069 25.4517 34.8188 24.21 39.7904" stroke="#E4E5EB" stroke-linecap="round" stroke-linejoin="round"/>
</g>
<path d="M1.51025 58.6201C8.32792 64.0494 15.9623 68.4589 24.0736 71.6508" stroke="#797E91" stroke-linecap="round" stroke-linejoin="round"/>
<g style="mix-blend-mode:multiply" opacity="0.09">
<path d="M21.9438 74.4929C22.6662 73.5625 23.3791 72.6089 24.0684 71.6457C26.9579 67.6282 29.5122 63.3789 31.7029 58.9457V58.936C31.6084 54.9035 31.429 50.8718 31.0985 46.8682C23.0297 57.713 16.8401 65.7776 13.1479 70.5222C15.9572 72.0281 18.8891 73.3597 21.9391 74.4929H21.9438Z" fill="#383838"/>
</g>
<path d="M23.6909 15.3574C21.7363 17.0193 20.5512 19.4084 19.4228 21.7266C13.422 34.087 7.41639 46.4522 1.51 58.6145C1.02842 59.6009 0.551564 60.5835 0.074707 61.5602C6.48156 67.0373 13.795 71.4613 21.944 74.4973C22.6664 73.5669 23.3793 72.6133 24.0686 71.6501C26.9581 67.6321 29.5123 63.3833 31.703 58.9501V58.9405C31.349 43.8838 29.8334 28.818 23.6862 15.3622L23.6909 15.3574Z" stroke="#292F44" stroke-linecap="round" stroke-linejoin="round"/>
<path d="M136.342 15.3574C138.297 17.0193 139.482 19.4084 140.61 21.7266C146.612 34.0918 152.622 46.4522 158.528 58.6145C159.009 59.6009 159.486 60.5835 159.963 61.5602C153.556 67.0373 146.243 71.4613 138.094 74.4973C137.372 73.5669 136.659 72.6133 135.969 71.6501C133.08 67.6321 130.525 63.3833 128.335 58.9501V58.9405C128.689 43.8838 130.204 28.818 136.352 15.3622L136.342 15.3574Z" fill="white"/>
<mask id="mask1_2401_814" style="mask-type:luminance" maskUnits="userSpaceOnUse" x="128" y="15" width="32" height="60">
<path d="M136.342 15.3574C138.297 17.0193 139.482 19.4084 140.61 21.7266C146.612 34.0918 152.622 46.4522 158.528 58.6145C159.009 59.6009 159.486 60.5835 159.963 61.5602C153.556 67.0373 146.243 71.4613 138.094 74.4973C137.372 73.5669 136.659 72.6133 135.969 71.6501C133.08 67.6321 130.525 63.3833 128.335 58.9501V58.9405C128.689 43.8838 130.204 28.818 136.352 15.3622L136.342 15.3574Z" fill="white"/>
</mask>
<g mask="url(#mask1_2401_814)">
<path d="M130.03 68.2751C132.981 67.1226 135.772 65.5554 138.293 63.6338" stroke="#E4E5EB" stroke-linecap="round" stroke-linejoin="round"/>
<path d="M133.288 70.6921C137.132 68.841 140.838 66.6929 144.36 64.2803" stroke="#E4E5EB" stroke-linecap="round" stroke-linejoin="round"/>
<path d="M129.194 26.0371C132.31 30.1069 134.582 34.8188 135.823 39.7904" stroke="#E4E5EB" stroke-linecap="round" stroke-linejoin="round"/>
</g>
<path d="M158.528 58.6201C151.711 64.0494 144.076 68.4589 135.965 71.6508" stroke="#797E91" stroke-linecap="round" stroke-linejoin="round"/>
<g style="mix-blend-mode:multiply" opacity="0.09">
<path d="M128.831 48.0957C128.562 51.6934 128.411 55.3144 128.326 58.9361V58.9457C130.522 63.3838 133.076 67.6282 135.96 71.6457C136.654 72.6089 137.363 73.5576 138.084 74.4929C141.045 73.3877 143.897 72.0991 146.635 70.6497C141.196 61.3396 134.251 53.4875 128.831 48.0957Z" fill="#383838"/>
</g>
<path d="M136.342 15.3574C138.297 17.0193 139.482 19.4084 140.61 21.7266C146.612 34.0918 152.622 46.4522 158.528 58.6145C159.009 59.6009 159.486 60.5835 159.963 61.5602C153.556 67.0373 146.243 71.4613 138.094 74.4973C137.372 73.5669 136.659 72.6133 135.969 71.6501C133.08 67.6321 130.525 63.3833 128.335 58.9501V58.9405C128.689 43.8838 130.204 28.818 136.352 15.3622L136.342 15.3574Z" stroke="#292F44" stroke-linecap="round" stroke-linejoin="round"/>
<path d="M128.227 72.463C128.217 67.9824 128.222 63.4643 128.326 58.9412C128.68 43.8847 130.196 28.8141 136.342 15.3582C136.309 15.3251 136.272 15.3016 136.238 15.2685C134.643 13.9512 132.665 13.2147 130.724 12.5018C120.8 8.85688 110.871 5.2073 100.947 1.56714L96.8859 0.0751953C93.2605 1.22249 85.2245 2.85135 80.0168 2.85135C74.8092 2.85135 66.7828 1.22249 63.152 0.0751953L59.092 1.56714C49.1628 5.21203 39.2338 8.86161 29.3095 12.5018C27.3738 13.2147 25.3908 13.9512 23.7997 15.2685C23.762 15.3016 23.7241 15.3251 23.6958 15.3582C29.8383 28.8141 31.3586 43.8799 31.7126 58.9364C31.8118 63.4643 31.8165 67.9824 31.8071 72.463C31.7599 99.8469 31.7032 127.23 31.6561 154.614C31.6513 155.861 31.6513 157.117 31.6513 158.363C47.718 159.94 64.5686 159.949 80.0217 159.949C95.4747 159.949 112.325 159.94 128.397 158.363C128.397 157.117 128.392 155.861 128.392 154.614C128.34 127.23 128.288 99.8469 128.231 72.463H128.227Z" fill="white"/>
<mask id="mask2_2401_814" style="mask-type:luminance" maskUnits="userSpaceOnUse" x="23" y="0" width="114" height="160">
<path d="M128.227 72.463C128.217 67.9824 128.222 63.4643 128.326 58.9412C128.68 43.8847 130.196 28.8141 136.342 15.3582C136.309 15.3251 136.272 15.3016 136.238 15.2685C134.643 13.9512 132.665 13.2147 130.724 12.5018C120.8 8.85688 110.871 5.2073 100.947 1.56714L96.8859 0.0751953C93.2605 1.22249 85.2245 2.85135 80.0168 2.85135C74.8092 2.85135 66.7828 1.22249 63.152 0.0751953L59.092 1.56714C49.1628 5.21203 39.2338 8.86161 29.3095 12.5018C27.3738 13.2147 25.3908 13.9512 23.7997 15.2685C23.762 15.3016 23.7241 15.3251 23.6958 15.3582C29.8383 28.8141 31.3586 43.8799 31.7126 58.9364C31.8118 63.4643 31.8165 67.9824 31.8071 72.463C31.7599 99.8469 31.7032 127.23 31.6561 154.614C31.6513 155.861 31.6513 157.117 31.6513 158.363C47.718 159.94 64.5686 159.949 80.0217 159.949C95.4747 159.949 112.325 159.94 128.397 158.363C128.397 157.117 128.392 155.861 128.392 154.614C128.34 127.23 128.288 99.8469 128.231 72.463H128.227Z" fill="white"/>
</mask>
<g mask="url(#mask2_2401_814)">
<path d="M118.973 38.0488C119.921 40.6361 121.277 43.0771 122.74 45.3905C122.249 47.5529 121.99 49.7625 121.971 51.9815" stroke="#E4E5EB" stroke-linecap="round" stroke-linejoin="round"/>
<path d="M123.501 37.8172C124.728 32.5246 126.471 27.3499 128.69 22.3926" stroke="#E4E5EB" stroke-linecap="round" stroke-linejoin="round"/>
<path d="M41.0655 38.0488C40.1165 40.6361 38.7615 43.0771 37.2979 45.3905C37.7889 47.5529 38.0485 49.7625 38.0674 51.9815" stroke="#E4E5EB" stroke-linecap="round" stroke-linejoin="round"/>
<path d="M36.533 37.8172C35.3055 32.5246 33.5633 27.3499 31.3442 22.3926" stroke="#E4E5EB" stroke-linecap="round" stroke-linejoin="round"/>
<path d="M53.2559 71.6504C53.2559 71.6504 78.9166 82.7122 111.196 80.6443" stroke="#E4E5EB" stroke-linecap="round" stroke-linejoin="round"/>
<path d="M67.7412 117.197C67.7412 117.197 65.3146 147.82 60.3193 164.652" stroke="#E4E5EB" stroke-linecap="round" stroke-linejoin="round"/>
<path d="M100.947 132.924C100.947 132.924 104.162 150.581 108.024 164.651" stroke="#E4E5EB" stroke-linecap="round" stroke-linejoin="round"/>
</g>
<path d="M31.6514 154.614C47.7182 156.192 64.5687 156.201 80.0174 156.201C95.4651 156.201 112.321 156.192 128.387 154.614" stroke="#797E91" stroke-linecap="round" stroke-linejoin="round"/>
<path d="M100.946 1.56641C94.2042 5.22075 87.8494 6.77875 80.0166 6.77875C72.1839 6.77875 65.8291 5.22075 59.0913 1.56641" stroke="#797E91" stroke-linecap="round" stroke-linejoin="round"/>
<g style="mix-blend-mode:multiply" opacity="0.09">
<path d="M31.708 58.936V58.9457C31.8071 63.4687 31.8119 67.9869 31.8024 72.4626C31.7552 99.8465 31.6985 127.23 31.6514 154.614C31.6466 155.86 31.6466 157.116 31.6466 158.363C32.69 158.467 33.7382 158.561 34.791 158.651V78.4915C34.791 58.1712 33.1905 44.0684 33.1905 44.0684C32.4823 45.0267 31.793 45.9568 31.1084 46.8728C31.4389 50.8765 31.6183 54.9083 31.7127 58.9408L31.708 58.936Z" fill="#383838"/>
</g>
<g style="mix-blend-mode:multiply" opacity="0.09">
<path d="M128.382 154.614C128.33 127.231 128.278 99.8466 128.221 72.4627C128.212 67.9821 128.217 63.4639 128.321 58.9409C128.406 55.3193 128.562 51.6982 128.825 48.0958C123.831 43.1289 120.134 40.2441 120.134 40.2441C120.134 40.2441 116.626 81.0742 116.253 108.973C115.974 130.04 116.852 150.469 117.3 159.213C121.012 158.996 124.713 158.722 128.382 158.363C128.382 157.116 128.377 155.861 128.377 154.614H128.382Z" fill="#383838"/>
</g>
<path d="M128.227 72.463C128.217 67.9824 128.222 63.4643 128.326 58.9412C128.68 43.8847 130.196 28.8141 136.342 15.3582C136.309 15.3251 136.272 15.3016 136.238 15.2685C134.643 13.9512 132.665 13.2147 130.724 12.5018C120.8 8.85688 110.871 5.2073 100.947 1.56714L96.8859 0.0751953C93.2605 1.22249 85.2245 2.85135 80.0168 2.85135C74.8092 2.85135 66.7828 1.22249 63.152 0.0751953L59.092 1.56714C49.1628 5.21203 39.2338 8.86161 29.3095 12.5018C27.3738 13.2147 25.3908 13.9512 23.7997 15.2685C23.762 15.3016 23.7241 15.3251 23.6958 15.3582C29.8383 28.8141 31.3586 43.8799 31.7126 58.9364C31.8118 63.4643 31.8165 67.9824 31.8071 72.463C31.7599 99.8469 31.7032 127.23 31.6561 154.614C31.6513 155.861 31.6513 157.117 31.6513 158.363C47.7181 159.94 64.5686 159.949 80.0217 159.949C95.4747 159.949 112.325 159.94 128.397 158.363C128.397 157.117 128.392 155.861 128.392 154.614C128.34 127.23 128.288 99.8469 128.231 72.463H128.227Z" stroke="#292F44" stroke-linecap="round" stroke-linejoin="round"/>
<path d="M117.674 17.5332H42.3799V44.424H117.674V17.5332Z" fill="#6E48D8"/>
</g>
<defs>
<clipPath id="clip0_2401_814">
<rect width="160" height="160" fill="white"/>
</clipPath>
</defs>
</svg>
