<svg width="2975" height="2975" viewBox="0 0 2975 2975" fill="none" xmlns="http://www.w3.org/2000/svg">
<path d="M440.503 285.558C404.16 316.459 382.125 360.88 361.144 403.984C249.566 633.812 137.899 863.727 28.0771 1089.87C19.1227 1108.21 10.2562 1126.48 1.38965 1144.64C120.517 1246.48 256.501 1328.74 408.022 1385.19C421.454 1367.89 434.71 1350.16 447.527 1332.25C501.252 1257.54 548.745 1178.54 589.479 1096.11V1095.93C582.896 815.971 554.715 535.841 440.415 285.646L440.503 285.558Z" fill="white"/>
<mask id="mask0_2218_38" style="mask-type:luminance" maskUnits="userSpaceOnUse" x="1" y="285" width="589" height="1101">
<path d="M440.503 285.558C404.16 316.459 382.125 360.88 361.144 403.984C249.566 633.812 137.899 863.727 28.0771 1089.87C19.1227 1108.21 10.2562 1126.48 1.38965 1144.64C120.517 1246.48 256.501 1328.74 408.022 1385.19C421.454 1367.89 434.71 1350.16 447.527 1332.25C501.252 1257.54 548.745 1178.54 589.479 1096.11V1095.93C582.896 815.971 554.715 535.841 440.415 285.646L440.503 285.558Z" fill="white"/>
</mask>
<g mask="url(#mask0_2218_38)">
<path d="M557.876 1269.49C503.008 1248.06 451.125 1218.92 404.247 1183.19" stroke="#E4E5EB" stroke-linecap="round" stroke-linejoin="round"/>
<path d="M497.302 1314.43C425.842 1280.01 356.929 1240.07 291.439 1195.21" stroke="#E4E5EB" stroke-linecap="round" stroke-linejoin="round"/>
<path d="M573.413 484.134C515.473 559.807 473.247 647.419 450.159 739.859" stroke="#E4E5EB" stroke-linecap="round" stroke-linejoin="round"/>
</g>
<path d="M28.0771 1089.96C154.843 1190.91 296.795 1272.9 447.614 1332.25" stroke="#797E91" stroke-linecap="round" stroke-linejoin="round"/>
<g style="mix-blend-mode:multiply" opacity="0.09">
<path d="M408.022 1385.1C421.454 1367.8 434.71 1350.07 447.527 1332.16C501.253 1257.46 548.746 1178.45 589.48 1096.02V1095.84C587.723 1020.86 584.388 945.896 578.242 871.453C428.213 1073.1 313.124 1223.05 244.474 1311.27C296.708 1339.27 351.224 1364.03 407.935 1385.1H408.022Z" fill="#383838"/>
</g>
<path d="M440.503 285.558C404.16 316.459 382.125 360.88 361.144 403.984C249.566 633.812 137.899 863.727 28.0771 1089.87C19.1227 1108.21 10.2562 1126.48 1.38965 1144.64C120.517 1246.48 256.501 1328.74 408.022 1385.19C421.454 1367.89 434.71 1350.16 447.527 1332.25C501.252 1257.54 548.745 1178.54 589.479 1096.11V1095.93C582.896 815.971 554.715 535.841 440.415 285.646L440.503 285.558Z" stroke="#292F44" stroke-linecap="round" stroke-linejoin="round"/>
<path d="M2535.11 285.558C2571.46 316.459 2593.5 360.88 2614.47 403.984C2726.06 633.9 2837.81 863.727 2947.63 1089.87C2956.59 1108.21 2965.45 1126.48 2974.32 1144.64C2855.19 1246.48 2719.21 1328.74 2567.69 1385.19C2554.26 1367.89 2541 1350.16 2528.18 1332.25C2474.46 1257.54 2426.96 1178.54 2386.23 1096.11V1095.93C2392.82 815.971 2420.99 535.841 2535.29 285.646L2535.11 285.558Z" fill="white"/>
<mask id="mask1_2218_38" style="mask-type:luminance" maskUnits="userSpaceOnUse" x="2386" y="285" width="589" height="1101">
<path d="M2535.11 285.558C2571.46 316.459 2593.5 360.88 2614.47 403.984C2726.06 633.9 2837.81 863.727 2947.63 1089.87C2956.59 1108.21 2965.45 1126.48 2974.32 1144.64C2855.19 1246.48 2719.21 1328.74 2567.69 1385.19C2554.26 1367.89 2541 1350.16 2528.18 1332.25C2474.46 1257.54 2426.96 1178.54 2386.23 1096.11V1095.93C2392.82 815.971 2420.99 535.841 2535.29 285.646L2535.11 285.558Z" fill="white"/>
</mask>
<g mask="url(#mask1_2218_38)">
<path d="M2417.74 1269.49C2472.61 1248.06 2524.5 1218.92 2571.37 1183.19" stroke="#E4E5EB" stroke-linecap="round" stroke-linejoin="round"/>
<path d="M2478.32 1314.43C2549.78 1280.01 2618.69 1240.07 2684.18 1195.21" stroke="#E4E5EB" stroke-linecap="round" stroke-linejoin="round"/>
<path d="M2402.2 484.134C2460.14 559.807 2502.37 647.419 2525.46 739.859" stroke="#E4E5EB" stroke-linecap="round" stroke-linejoin="round"/>
</g>
<path d="M2947.63 1089.96C2820.87 1190.91 2678.91 1272.9 2528.09 1332.25" stroke="#797E91" stroke-linecap="round" stroke-linejoin="round"/>
<g style="mix-blend-mode:multiply" opacity="0.09">
<path d="M2395.45 894.277C2390.45 961.172 2387.64 1028.5 2386.06 1095.84V1096.02C2426.88 1178.54 2474.37 1257.46 2528 1332.16C2540.91 1350.07 2554.08 1367.71 2567.51 1385.1C2622.55 1364.55 2675.58 1340.59 2726.49 1313.64C2625.36 1140.53 2496.22 994.531 2395.45 894.277Z" fill="#383838"/>
</g>
<path d="M2535.11 285.558C2571.46 316.459 2593.5 360.88 2614.47 403.984C2726.06 633.9 2837.81 863.727 2947.63 1089.87C2956.59 1108.21 2965.45 1126.48 2974.32 1144.64C2855.19 1246.48 2719.21 1328.74 2567.69 1385.19C2554.26 1367.89 2541 1350.16 2528.18 1332.25C2474.46 1257.54 2426.96 1178.54 2386.23 1096.11V1095.93C2392.82 815.971 2420.99 535.841 2535.29 285.646L2535.11 285.558Z" stroke="#292F44" stroke-linecap="round" stroke-linejoin="round"/>
<path d="M2384.21 1347.35C2384.04 1264.04 2384.12 1180.03 2386.06 1095.93C2392.64 815.972 2420.82 535.753 2535.11 285.558C2534.5 284.943 2533.8 284.505 2533.18 283.891C2503.51 259.397 2466.73 245.702 2430.65 232.447C2246.12 164.674 2061.5 96.8148 1876.98 29.1305L1801.47 1.38965C1734.06 22.7221 1584.64 53.0088 1487.81 53.0088C1390.98 53.0088 1241.74 22.7221 1174.23 1.38965L1098.74 29.1305C914.118 96.9026 729.5 164.762 544.971 232.447C508.978 245.702 472.107 259.397 442.522 283.891C441.821 284.505 441.118 284.943 440.591 285.558C554.803 535.753 583.071 815.884 589.654 1095.84C591.498 1180.03 591.586 1264.04 591.41 1347.35C590.532 1856.52 589.479 2365.68 588.602 2874.85C588.514 2898.03 588.514 2921.38 588.514 2944.56C887.254 2973.88 1200.57 2974.05 1487.9 2974.05C1775.23 2974.05 2088.54 2973.88 2387.37 2944.56C2387.37 2921.38 2387.29 2898.03 2387.29 2874.85C2386.32 2365.68 2385.35 1856.52 2384.3 1347.35H2384.21Z" fill="white"/>
<mask id="mask2_2218_38" style="mask-type:luminance" maskUnits="userSpaceOnUse" x="440" y="1" width="2096" height="2974">
<path d="M2384.21 1347.35C2384.04 1264.04 2384.12 1180.03 2386.06 1095.93C2392.64 815.972 2420.82 535.753 2535.11 285.558C2534.5 284.943 2533.8 284.505 2533.18 283.891C2503.51 259.397 2466.73 245.702 2430.65 232.447C2246.12 164.674 2061.5 96.8148 1876.98 29.1305L1801.47 1.38965C1734.06 22.7221 1584.64 53.0088 1487.81 53.0088C1390.98 53.0088 1241.74 22.7221 1174.23 1.38965L1098.74 29.1305C914.118 96.9026 729.5 164.762 544.971 232.447C508.978 245.702 472.107 259.397 442.522 283.891C441.821 284.505 441.118 284.943 440.591 285.558C554.803 535.753 583.071 815.884 589.654 1095.84C591.498 1180.03 591.586 1264.04 591.41 1347.35C590.532 1856.52 589.479 2365.68 588.602 2874.85C588.514 2898.03 588.514 2921.38 588.514 2944.56C887.254 2973.88 1200.57 2974.05 1487.9 2974.05C1775.23 2974.05 2088.54 2973.88 2387.37 2944.56C2387.37 2921.38 2387.29 2898.03 2387.29 2874.85C2386.32 2365.68 2385.35 1856.52 2384.3 1347.35H2384.21Z" fill="white"/>
</mask>
<g mask="url(#mask2_2218_38)">
<path d="M2212.15 707.465C2229.79 755.573 2254.99 800.959 2282.2 843.975C2273.07 884.181 2268.24 925.266 2267.89 966.526" stroke="#E4E5EB" stroke-linecap="round" stroke-linejoin="round"/>
<path d="M2296.34 703.164C2319.16 604.754 2351.56 508.538 2392.82 416.362" stroke="#E4E5EB" stroke-linecap="round" stroke-linejoin="round"/>
<path d="M763.562 707.465C745.916 755.573 720.721 800.959 693.507 843.975C702.637 884.181 707.465 925.266 707.817 966.526" stroke="#E4E5EB" stroke-linecap="round" stroke-linejoin="round"/>
<path d="M679.284 703.164C656.46 604.754 624.066 508.538 582.806 416.362" stroke="#E4E5EB" stroke-linecap="round" stroke-linejoin="round"/>
<path d="M990.229 1332.25C990.229 1332.25 1467.36 1537.93 2067.56 1499.48" stroke="#E4E5EB" stroke-linecap="round" stroke-linejoin="round"/>
<path d="M1259.56 2179.13C1259.56 2179.13 1214.44 2748.52 1121.56 3061.49" stroke="#E4E5EB" stroke-linecap="round" stroke-linejoin="round"/>
<path d="M1876.98 2471.56C1876.98 2471.56 1936.75 2799.88 2008.57 3061.49" stroke="#E4E5EB" stroke-linecap="round" stroke-linejoin="round"/>
</g>
<path d="M588.514 2874.85C887.256 2904.18 1200.57 2904.35 1487.82 2904.35C1775.05 2904.35 2088.46 2904.18 2387.2 2874.85" stroke="#797E91" stroke-linecap="round" stroke-linejoin="round"/>
<path d="M1876.98 29.1309C1751.61 97.0789 1633.45 126.048 1487.82 126.048C1342.17 126.048 1224.01 97.0789 1098.74 29.1309" stroke="#797E91" stroke-linecap="round" stroke-linejoin="round"/>
<g style="mix-blend-mode:multiply" opacity="0.09">
<path d="M589.566 1095.84V1096.02C591.41 1180.12 591.498 1264.13 591.322 1347.35C590.444 1856.52 589.391 2365.68 588.514 2874.85C588.426 2898.03 588.426 2921.38 588.426 2944.56C607.826 2946.49 627.316 2948.25 646.892 2949.92V1459.45C646.892 1081.62 617.132 819.395 617.132 819.395C603.964 837.215 591.147 854.509 578.418 871.54C584.563 945.984 587.899 1020.95 589.654 1095.93L589.566 1095.84Z" fill="#383838"/>
</g>
<g style="mix-blend-mode:multiply" opacity="0.09">
<path d="M2387.11 2874.85C2386.14 2365.69 2385.18 1856.52 2384.12 1347.35C2383.95 1264.04 2384.04 1180.03 2385.97 1095.93C2387.55 1028.59 2390.45 961.26 2395.36 894.278C2302.48 801.926 2233.74 748.287 2233.74 748.287C2233.74 748.287 2168.52 1507.47 2161.58 2026.21C2156.4 2417.92 2172.73 2797.78 2181.06 2960.36C2250.07 2956.33 2318.89 2951.23 2387.11 2944.56C2387.11 2921.38 2387.02 2898.03 2387.02 2874.85H2387.11Z" fill="#383838"/>
</g>
<path d="M2384.21 1347.35C2384.04 1264.04 2384.12 1180.03 2386.06 1095.93C2392.64 815.972 2420.82 535.753 2535.11 285.558C2534.5 284.943 2533.8 284.505 2533.18 283.891C2503.51 259.397 2466.73 245.703 2430.65 232.447C2246.12 164.674 2061.5 96.8148 1876.98 29.1305L1801.47 1.38965C1734.06 22.7221 1584.64 53.0088 1487.81 53.0088C1390.98 53.0088 1241.74 22.7221 1174.23 1.38965L1098.74 29.1305C914.118 96.9026 729.5 164.762 544.971 232.447C508.978 245.703 472.107 259.397 442.522 283.891C441.821 284.505 441.118 284.943 440.591 285.558C554.803 535.753 583.071 815.884 589.654 1095.84C591.498 1180.03 591.586 1264.04 591.41 1347.35C590.532 1856.52 589.479 2365.68 588.602 2874.85C588.514 2898.03 588.514 2921.38 588.514 2944.56C887.255 2973.88 1200.57 2974.05 1487.9 2974.05C1775.23 2974.05 2088.54 2973.88 2387.37 2944.56C2387.37 2921.38 2387.29 2898.03 2387.29 2874.85C2386.32 2365.68 2385.35 1856.52 2384.3 1347.35H2384.21Z" stroke="#292F44" stroke-linecap="round" stroke-linejoin="round"/>
<rect x="791.5" y="329.5" width="1393" height="1746" fill="#6E48D8" stroke="black" stroke-width="7"/>
</svg>
