<svg width="160" height="160" viewBox="0 0 160 160" fill="none" xmlns="http://www.w3.org/2000/svg">
<g clip-path="url(#clip0_2401_210)">
<path d="M128.222 72.4558C128.212 67.9743 128.217 63.4547 128.321 58.9309C128.675 43.8719 130.191 28.7985 136.339 15.3401C136.305 15.3071 136.268 15.2834 136.235 15.2504C134.643 13.9329 132.66 13.1962 130.719 12.4832C121.705 9.17286 112.691 5.86256 103.677 2.55228C102.336 2.06117 100.99 1.57006 99.6491 1.07894C99.4839 1.52755 99.2995 1.96672 99.092 2.40117C97.6234 5.52256 95.2625 8.21897 92.3392 10.0606C88.7413 12.3273 83.7783 12.6721 80.1285 12.6721H79.8925C76.2421 12.6721 71.2748 12.3273 67.6813 10.0606C64.7633 8.21897 62.3976 5.52256 60.929 2.40117C60.7209 1.96672 60.537 1.52284 60.3719 1.07422C59.0309 1.57006 57.685 2.06117 56.344 2.557C47.325 5.86728 38.3108 9.17758 29.2966 12.4879C27.3605 13.201 25.3773 13.9376 23.786 15.2551C23.7482 15.2881 23.7104 15.3118 23.6821 15.3448C29.8254 28.8032 31.3459 43.8719 31.7 58.9309V58.9405C31.7992 63.4644 31.8039 67.9834 31.7945 72.4601C31.7472 99.8494 31.6905 127.238 31.6434 154.627C31.6386 155.874 31.6386 157.13 31.6386 158.376C47.7027 159.954 64.4325 159.964 79.8877 159.964H80.1472C95.6024 159.964 112.332 159.954 128.396 158.376C128.396 157.13 128.392 155.874 128.392 154.627C128.34 127.238 128.288 99.8494 128.231 72.4601L128.222 72.4558Z" fill="white"/>
<mask id="mask0_2401_210" style="mask-type:luminance" maskUnits="userSpaceOnUse" x="23" y="2" width="114" height="155">
<path d="M128.423 72.7276C128.475 100.116 128.527 127.506 128.584 154.894C112.529 156.472 95.7899 156.481 80.3395 156.481H80.08C64.6296 156.481 47.8951 156.472 31.8357 154.894C31.8829 127.506 31.9396 100.116 31.9868 72.7276C31.9963 68.2509 31.9916 63.7318 31.8924 59.208V59.1983C31.5383 44.1391 30.0225 29.0704 23.8745 15.6121C23.9075 15.579 23.9453 15.5554 23.9784 15.5223C25.5697 14.2048 27.5529 13.4681 29.4889 12.7551C38.5031 9.44481 47.5174 6.13452 56.5363 2.82422C58.0805 7.28203 61.5556 10.9701 65.7063 13.2273C70.1025 15.6168 75.1266 16.3912 80.1931 16.3912H80.2124C85.2837 16.3912 90.3079 15.6168 94.6993 13.2273C98.8542 10.9701 102.33 7.28203 103.874 2.82422C112.888 6.13452 121.903 9.44481 130.916 12.7551C132.857 13.4681 134.84 14.2048 136.432 15.5223C136.47 15.5554 136.507 15.579 136.536 15.6121C130.393 29.0704 128.872 44.1485 128.518 59.2032C128.414 63.727 128.404 68.246 128.419 72.7276H128.423Z" fill="white"/>
</mask>
<g mask="url(#mask0_2401_210)">
<path d="M30.7793 51.7006C34.2688 48.0361 38.7358 45.3066 43.59 43.8711" stroke="#E4E5EB" stroke-linecap="round" stroke-linejoin="round"/>
<path d="M31.0342 56.4142C34.859 54.8796 38.9387 53.9873 43.0563 53.7793" stroke="#E4E5EB" stroke-linecap="round" stroke-linejoin="round"/>
<path d="M37.6874 73.2676C37.1255 87.1089 37.0689 100.968 37.5175 114.814" stroke="#E4E5EB" stroke-linecap="round" stroke-linejoin="round"/>
<path d="M30.189 147.59C39.3685 147.906 48.5527 148.223 57.7324 148.539" stroke="#E4E5EB" stroke-linecap="round" stroke-linejoin="round"/>
<path d="M126.338 15.2783C119.331 11.6139 111.78 9.00249 104.008 7.55273" stroke="#E4E5EB" stroke-linecap="round" stroke-linejoin="round"/>
<path d="M129.228 51.7006C125.738 48.0361 121.271 45.3066 116.417 43.8711" stroke="#E4E5EB" stroke-linecap="round" stroke-linejoin="round"/>
<path d="M128.973 56.4142C125.148 54.8796 121.068 53.9873 116.95 53.7793" stroke="#E4E5EB" stroke-linecap="round" stroke-linejoin="round"/>
<path d="M122.324 73.2676C122.886 87.1089 122.942 100.968 122.494 114.814" stroke="#E4E5EB" stroke-linecap="round" stroke-linejoin="round"/>
<path d="M129.818 147.59C120.638 147.906 111.454 148.223 102.274 148.539" stroke="#E4E5EB" stroke-linecap="round" stroke-linejoin="round"/>
<path d="M33.6738 15.2783C40.6812 11.6139 48.2316 9.00249 56.0037 7.55273" stroke="#E4E5EB" stroke-linecap="round" stroke-linejoin="round"/>
</g>
<path d="M103.677 2.55078C102.133 7.00858 98.6573 10.6966 94.5024 12.9539C90.1109 15.3433 85.0868 16.1177 80.015 16.1177H79.9962C74.9297 16.1177 69.9056 15.3433 65.5093 12.9539C61.3587 10.6966 57.8836 7.00858 56.3394 2.55078" stroke="#797E91" stroke-linecap="round" stroke-linejoin="round"/>
<path d="M31.6343 154.621C47.6889 156.198 64.4281 156.208 79.8785 156.208H80.138C95.5884 156.208 112.323 156.198 128.383 154.621" stroke="#797E91" stroke-linecap="round" stroke-linejoin="round"/>
<g style="mix-blend-mode:multiply" opacity="0.09">
<path d="M31.6905 58.9253V58.9344C31.7896 63.4582 31.7944 67.9778 31.7849 72.4545C31.7377 99.8432 31.6811 127.232 31.6338 154.621C31.6291 155.868 31.6291 157.124 31.6291 158.371C32.6726 158.474 33.721 158.569 34.7739 158.659V78.4845C34.7739 58.1601 33.1732 44.0547 33.1732 44.0547C32.4649 45.0133 31.7755 45.9436 31.0908 46.8597C31.4213 50.8642 31.6008 54.8968 31.6952 58.9295L31.6905 58.9253Z" fill="#383838"/>
</g>
<g style="mix-blend-mode:multiply" opacity="0.09">
<path d="M128.378 154.622C128.326 127.233 128.274 99.844 128.217 72.4553C128.208 67.9738 128.212 63.4542 128.316 58.9304C128.401 55.3084 128.557 51.6866 128.822 48.0836C123.826 43.1158 120.128 40.2305 120.128 40.2305C120.128 40.2305 116.62 81.0682 116.247 108.972C115.968 130.043 116.847 150.476 117.295 159.222C121.007 159.004 124.708 158.73 128.378 158.372C128.378 157.125 128.373 155.869 128.373 154.622H128.378Z" fill="#383838"/>
</g>
<path d="M128.222 72.4558C128.212 67.9743 128.217 63.4547 128.321 58.9309C128.675 43.8719 130.191 28.7985 136.339 15.3401C136.305 15.3071 136.268 15.2834 136.235 15.2504C134.643 13.9329 132.66 13.1962 130.719 12.4832C121.705 9.17286 112.691 5.86256 103.677 2.55228C102.336 2.06117 100.99 1.57006 99.6491 1.07894C99.4839 1.52755 99.2995 1.96672 99.092 2.40117C97.6234 5.52256 95.2625 8.21897 92.3392 10.0606C88.7413 12.3273 83.7783 12.6721 80.1285 12.6721H79.8925C76.2421 12.6721 71.2748 12.3273 67.6813 10.0606C64.7633 8.21897 62.3976 5.52256 60.929 2.40117C60.7209 1.96672 60.537 1.52284 60.3719 1.07422C59.0309 1.57006 57.685 2.06117 56.344 2.557C47.325 5.86728 38.3108 9.17757 29.2966 12.4879C27.3605 13.201 25.3773 13.9376 23.786 15.2551C23.7482 15.2881 23.7104 15.3118 23.6821 15.3448C29.8254 28.8032 31.3459 43.8719 31.7 58.9309V58.9405C31.7992 63.4644 31.8039 67.9834 31.7945 72.4601C31.7472 99.8494 31.6905 127.238 31.6434 154.627C31.6386 155.874 31.6386 157.13 31.6386 158.376C47.7027 159.954 64.4325 159.964 79.8877 159.964H80.1472C95.6024 159.964 112.332 159.954 128.396 158.376C128.396 157.13 128.392 155.874 128.392 154.627C128.34 127.238 128.288 99.8494 128.231 72.4601L128.222 72.4558Z" stroke="#292F44" stroke-linecap="round" stroke-linejoin="round"/>
<path d="M99.0922 2.39648C97.6236 5.51788 95.2627 8.21429 92.3394 10.056C88.7415 12.3226 83.7785 12.6674 80.1287 12.6674H79.8927C76.2423 12.6674 71.275 12.3226 67.6815 10.056C64.7635 8.21429 62.3978 5.51788 60.9292 2.39648C66.9356 4.99371 73.919 6.15064 79.9587 6.15064H80.0627C86.1067 6.15064 93.0906 4.99371 99.0965 2.39648H99.0922Z" fill="#D5DCDE"/>
<path d="M99.0922 2.39648C97.6236 5.51788 95.2627 8.21429 92.3394 10.056C88.7415 12.3226 83.7785 12.6674 80.1287 12.6674H79.8927C76.2423 12.6674 71.275 12.3226 67.6815 10.056C64.7635 8.21429 62.3978 5.51788 60.9292 2.39648C66.9356 4.99371 73.919 6.15064 79.9587 6.15064H80.0627C86.1067 6.15064 93.0906 4.99371 99.0965 2.39648H99.0922Z" stroke="#292F44" stroke-linecap="round" stroke-linejoin="round"/>
<path d="M99.6443 1.07274C99.4792 1.52135 99.2947 1.96052 99.0872 2.39496C93.0808 4.9922 86.0969 6.14914 80.0529 6.14914H79.9489C73.9098 6.14914 66.9258 4.9922 60.9194 2.39496C60.7119 1.96052 60.5275 1.51663 60.3623 1.06802C61.2878 0.728016 62.2084 0.392735 63.1344 0.0527344C68.7012 2.06441 74.7929 2.57913 80.0009 2.57913C85.2095 2.57913 91.3006 2.05968 96.8728 0.0527344C97.7982 0.392735 98.7189 0.728016 99.6443 1.07274Z" fill="#B3BFC2"/>
<path d="M99.6443 1.07274C99.4792 1.52135 99.2947 1.96052 99.0872 2.39496C93.0808 4.9922 86.0969 6.14914 80.0529 6.14914H79.9489C73.9098 6.14914 66.9258 4.9922 60.9194 2.39496C60.7119 1.96052 60.5275 1.51663 60.3623 1.06802C61.2878 0.728016 62.2084 0.392735 63.1344 0.0527344C68.7012 2.06441 74.7929 2.57913 80.0009 2.57913C85.2095 2.57913 91.3006 2.05968 96.8728 0.0527344C97.7982 0.392735 98.7189 0.728016 99.6443 1.07274Z" stroke="#292F44" stroke-linecap="round" stroke-linejoin="round"/>
<path d="M23.673 15.3398C21.7181 17.002 20.5329 19.3915 19.4043 21.7101C13.4027 34.0729 7.39634 46.4405 1.48919 58.6051C1.00754 59.5917 0.530629 60.574 0.0537109 61.5515C6.46143 67.0292 13.7757 71.4544 21.9258 74.4904C22.6483 73.5601 23.3613 72.6062 24.0507 71.6432C26.9406 67.6244 29.4952 63.3745 31.6861 58.9402V58.9306C31.332 43.8716 29.8162 28.8029 23.6682 15.3446L23.673 15.3398Z" fill="white"/>
<mask id="mask1_2401_210" style="mask-type:luminance" maskUnits="userSpaceOnUse" x="1" y="15" width="31" height="57">
<path d="M31.6909 58.9252V58.9343C29.4952 63.3734 26.9406 67.6185 24.0555 71.6373C15.9432 68.4496 8.30778 64.0394 1.48926 58.604C7.39642 46.4346 13.4027 34.0671 19.4091 21.7043C20.5377 19.3857 21.7181 16.9962 23.6778 15.334C29.821 28.7924 31.3415 43.861 31.6956 58.9204L31.6909 58.9252Z" fill="white"/>
</mask>
<g mask="url(#mask1_2401_210)">
<path d="M17.8223 37.3681C20.1408 31.5834 23.2714 26.1245 27.0867 21.1992" stroke="#E4E5EB" stroke-linecap="round" stroke-linejoin="round"/>
<path d="M10.6875 57.6074C14.2904 61.3903 18.5779 64.5114 23.2857 66.7736" stroke="#E4E5EB" stroke-linecap="round" stroke-linejoin="round"/>
<path d="M24.0882 63.8075C21.4014 62.5469 19.0357 60.6156 17.2603 58.2402" stroke="#E4E5EB" stroke-linecap="round" stroke-linejoin="round"/>
</g>
<path d="M1.48926 58.6094C8.30778 64.0399 15.9432 68.4501 24.0555 71.6426" stroke="#797E91" stroke-linecap="round" stroke-linejoin="round"/>
<g style="mix-blend-mode:multiply" opacity="0.09">
<path d="M21.9259 74.4855C22.6484 73.5553 23.3613 72.6014 24.0508 71.6378C26.9406 67.6191 29.4952 63.3692 31.6862 58.9349V58.9258C31.5917 54.8925 31.4123 50.8599 31.0818 46.8555C23.012 57.7027 16.8215 65.7681 13.1289 70.514C15.9385 72.0201 18.8708 73.352 21.9212 74.4855H21.9259Z" fill="#383838"/>
</g>
<path d="M23.673 15.3398C21.7181 17.002 20.5329 19.3915 19.4043 21.7101C13.4027 34.0729 7.39634 46.4405 1.48919 58.6051C1.00754 59.5917 0.530629 60.574 0.0537109 61.5515C6.46143 67.0292 13.7757 71.4544 21.9258 74.4904C22.6483 73.5601 23.3613 72.6062 24.0507 71.6432C26.9406 67.6244 29.4951 63.3745 31.6861 58.9402V58.9306C31.332 43.8716 29.8162 28.8029 23.6682 15.3446L23.673 15.3398Z" stroke="#292F44" stroke-linecap="round" stroke-linejoin="round"/>
<path d="M136.339 15.3398C138.294 17.0021 139.479 19.3915 140.607 21.7101C146.609 34.0777 152.62 46.4405 158.527 58.6051C159.009 59.5917 159.486 60.5741 159.963 61.5515C153.555 67.0293 146.241 71.4539 138.09 74.4904C137.368 73.5601 136.655 72.6062 135.965 71.6432C133.076 67.6245 130.521 63.3746 128.33 58.9403V58.9306C128.685 43.8716 130.2 28.803 136.348 15.3446L136.339 15.3398Z" fill="white"/>
<mask id="mask2_2401_210" style="mask-type:luminance" maskUnits="userSpaceOnUse" x="128" y="15" width="31" height="57">
<path d="M128.321 58.9252V58.9343C130.517 63.3734 133.071 67.6185 135.957 71.6373C144.069 68.4496 151.704 64.0394 158.523 58.604C152.616 46.4346 146.609 34.0671 140.603 21.7043C139.474 19.3857 138.294 16.9962 136.334 15.334C130.191 28.7924 128.67 43.861 128.316 58.9204L128.321 58.9252Z" fill="white"/>
</mask>
<g mask="url(#mask2_2401_210)">
<path d="M142.19 37.3681C139.871 31.5834 136.74 26.1245 132.925 21.1992" stroke="#E4E5EB" stroke-linecap="round" stroke-linejoin="round"/>
<path d="M149.324 57.6074C145.722 61.3903 141.434 64.5114 136.727 66.7736" stroke="#E4E5EB" stroke-linecap="round" stroke-linejoin="round"/>
<path d="M135.923 63.8075C138.61 62.5469 140.975 60.6156 142.751 58.2402" stroke="#E4E5EB" stroke-linecap="round" stroke-linejoin="round"/>
</g>
<path d="M158.527 58.6094C151.709 64.0399 144.074 68.4501 135.961 71.6426" stroke="#797E91" stroke-linecap="round" stroke-linejoin="round"/>
<g style="mix-blend-mode:multiply" opacity="0.09">
<path d="M128.826 48.084C128.557 51.6823 128.406 55.3045 128.321 58.9264V58.9356C130.517 63.3747 133.071 67.6198 135.957 71.6385C136.651 72.6021 137.359 73.5511 138.082 74.4862C141.042 73.3811 143.894 72.0916 146.633 70.6423C141.193 61.3297 134.247 53.4767 128.826 48.084Z" fill="#383838"/>
</g>
<path d="M136.339 15.3398C138.294 17.0021 139.479 19.3915 140.607 21.7101C146.609 34.0777 152.62 46.4405 158.527 58.6051C159.009 59.5917 159.486 60.5741 159.963 61.5515C153.555 67.0293 146.241 71.4545 138.09 74.4904C137.368 73.5601 136.655 72.6062 135.965 71.6432C133.076 67.6245 130.521 63.3746 128.33 58.9403V58.9306C128.685 43.8716 130.2 28.803 136.348 15.3446L136.339 15.3398Z" stroke="#292F44" stroke-linecap="round" stroke-linejoin="round"/>
<path d="M117.748 40.2148H42.6812V61.6626H117.748V40.2148Z" fill="#6E48D8"/>
</g>
<defs>
<clipPath id="clip0_2401_210">
<rect width="160" height="160" fill="white"/>
</clipPath>
</defs>
</svg>
