<svg width="2984" height="2984" viewBox="0 0 2984 2984" fill="none" xmlns="http://www.w3.org/2000/svg">
<path d="M2391.26 1351.29C2391.08 1267.71 2391.17 1183.42 2393.11 1099.05C2399.71 818.199 2427.98 537.081 2542.64 286.082C2542.02 285.466 2541.32 285.025 2540.7 284.409C2511.02 259.837 2474.04 246.098 2437.84 232.8C2269.73 171.063 2101.61 109.326 1933.5 47.5892C1908.49 38.43 1883.39 29.2707 1858.38 20.1114C1855.3 28.4781 1851.86 36.6686 1847.99 44.771C1820.6 102.985 1776.57 153.273 1722.05 187.62C1654.95 229.894 1562.39 236.323 1494.32 236.323H1489.92C1421.84 236.323 1329.2 229.894 1262.18 187.62C1207.76 153.273 1163.64 102.985 1136.25 44.771C1132.37 36.6686 1128.94 28.39 1125.86 20.0234C1100.85 29.2707 1075.75 38.43 1050.74 47.6773C882.535 109.414 714.42 171.151 546.304 232.888C510.198 246.186 473.211 259.925 443.533 284.497C442.829 285.113 442.124 285.554 441.596 286.17C556.168 537.169 584.524 818.199 591.129 1099.05V1099.23C592.979 1183.6 593.067 1267.88 592.891 1351.37C592.01 1862.18 590.953 2372.98 590.073 2883.79C589.984 2907.04 589.984 2930.46 589.984 2953.71C889.58 2983.13 1201.59 2983.31 1489.83 2983.31H1494.67C1782.91 2983.31 2094.92 2983.13 2394.51 2953.71C2394.51 2930.46 2394.43 2907.04 2394.43 2883.79C2393.46 2372.98 2392.49 1862.18 2391.43 1351.37L2391.26 1351.29Z" fill="white"/>
<mask id="mask0_2218_14" style="mask-type:luminance" maskUnits="userSpaceOnUse" x="445" y="52" width="2102" height="2867">
<path d="M2395.01 1356.38C2395.98 1867.18 2396.95 2377.99 2398.01 2888.79C2098.59 2918.21 1786.4 2918.38 1498.25 2918.38H1493.41C1205.26 2918.38 893.162 2918.21 593.655 2888.79C594.535 2377.99 595.592 1867.18 596.473 1356.38C596.649 1272.89 596.561 1188.61 594.711 1104.24V1104.06C588.106 823.205 559.838 542.174 445.178 291.176C445.794 290.559 446.499 290.119 447.115 289.502C476.793 264.931 513.78 251.192 549.886 237.893C718.002 176.157 886.117 114.42 1054.32 52.6828C1083.12 135.821 1147.93 204.603 1225.34 246.7C1307.33 291.264 1401.03 305.707 1495.52 305.707H1495.88C1590.46 305.707 1684.16 291.264 1766.06 246.7C1843.55 204.603 1908.37 135.821 1937.17 52.6828C2105.28 114.42 2273.4 176.157 2441.51 237.893C2477.71 251.192 2514.69 264.931 2544.37 289.502C2545.08 290.119 2545.78 290.559 2546.31 291.176C2431.74 542.174 2403.38 823.381 2396.78 1104.15C2394.84 1188.52 2394.66 1272.8 2394.93 1356.38H2395.01Z" fill="white"/>
</mask>
<g mask="url(#mask0_2218_14)">
<path d="M573.955 964.219C639.035 895.877 722.344 844.973 812.874 818.2" stroke="#E4E5EB" stroke-linecap="round" stroke-linejoin="round"/>
<path d="M578.709 1052.11C650.041 1023.49 726.129 1006.84 802.921 1002.97" stroke="#E4E5EB" stroke-linecap="round" stroke-linejoin="round"/>
<path d="M702.79 1366.43C692.31 1624.57 691.254 1883.05 699.62 2141.27" stroke="#E4E5EB" stroke-linecap="round" stroke-linejoin="round"/>
<path d="M562.945 2752.56C734.143 2758.46 905.428 2764.36 1076.63 2770.26" stroke="#E4E5EB" stroke-linecap="round" stroke-linejoin="round"/>
<path d="M2356.12 284.937C2225.43 216.595 2084.61 167.893 1939.66 140.855" stroke="#E4E5EB" stroke-linecap="round" stroke-linejoin="round"/>
<path d="M2410.01 964.219C2344.93 895.877 2261.62 844.973 2171.09 818.2" stroke="#E4E5EB" stroke-linecap="round" stroke-linejoin="round"/>
<path d="M2405.26 1052.11C2333.92 1023.49 2257.84 1006.84 2181.04 1002.97" stroke="#E4E5EB" stroke-linecap="round" stroke-linejoin="round"/>
<path d="M2281.26 1366.43C2291.74 1624.57 2292.79 1883.05 2284.43 2141.27" stroke="#E4E5EB" stroke-linecap="round" stroke-linejoin="round"/>
<path d="M2421.02 2752.56C2249.82 2758.46 2078.54 2764.36 1907.34 2770.26" stroke="#E4E5EB" stroke-linecap="round" stroke-linejoin="round"/>
<path d="M627.938 284.937C758.625 216.595 899.441 167.893 1044.39 140.855" stroke="#E4E5EB" stroke-linecap="round" stroke-linejoin="round"/>
</g>
<path d="M1933.5 47.5891C1904.7 130.727 1839.88 199.509 1762.39 241.607C1680.49 286.17 1586.79 300.613 1492.2 300.613H1491.85C1397.36 300.613 1303.66 286.17 1221.67 241.607C1144.26 199.509 1079.45 130.727 1050.65 47.5891" stroke="#797E91" stroke-linecap="round" stroke-linejoin="round"/>
<path d="M589.895 2883.7C889.314 2913.11 1201.5 2913.29 1489.65 2913.29H1494.49C1782.64 2913.29 2094.74 2913.11 2394.25 2883.7" stroke="#797E91" stroke-linecap="round" stroke-linejoin="round"/>
<g style="mix-blend-mode:multiply" opacity="0.09">
<path d="M590.952 1098.97V1099.14C592.801 1183.51 592.889 1267.8 592.713 1351.29C591.832 1862.09 590.776 2372.89 589.895 2883.7C589.807 2906.95 589.807 2930.38 589.807 2953.63C609.269 2955.56 628.819 2957.33 648.458 2959V1463.75C648.458 1084.7 618.604 821.634 618.604 821.634C605.394 839.512 592.537 856.862 579.768 873.948C585.932 948.631 589.279 1023.84 591.04 1099.05L590.952 1098.97Z" fill="#383838"/>
</g>
<g style="mix-blend-mode:multiply" opacity="0.09">
<path d="M2394.16 2883.7C2393.19 2372.89 2392.22 1862.09 2391.17 1351.29C2390.99 1267.71 2391.08 1183.42 2393.01 1099.05C2394.6 1031.5 2397.51 963.954 2402.44 896.757C2309.27 804.108 2240.31 750.297 2240.31 750.297C2240.31 750.297 2174.88 1511.92 2167.92 2032.33C2162.73 2425.3 2179.11 2806.37 2187.47 2969.48C2256.69 2965.43 2325.73 2960.32 2394.16 2953.63C2394.16 2930.38 2394.07 2906.95 2394.07 2883.7H2394.16Z" fill="#383838"/>
</g>
<path d="M2391.26 1351.29C2391.08 1267.71 2391.17 1183.42 2393.11 1099.05C2399.71 818.199 2427.98 537.081 2542.64 286.082C2542.02 285.466 2541.32 285.025 2540.7 284.409C2511.02 259.837 2474.04 246.098 2437.84 232.8C2269.73 171.063 2101.61 109.326 1933.5 47.5892C1908.49 38.43 1883.39 29.2707 1858.38 20.1114C1855.3 28.4781 1851.86 36.6686 1847.99 44.771C1820.6 102.985 1776.57 153.273 1722.05 187.62C1654.95 229.894 1562.39 236.323 1494.32 236.323H1489.92C1421.84 236.323 1329.2 229.894 1262.18 187.62C1207.76 153.273 1163.64 102.985 1136.25 44.771C1132.37 36.6686 1128.94 28.39 1125.86 20.0234C1100.85 29.2707 1075.75 38.43 1050.74 47.6773C882.535 109.414 714.42 171.151 546.304 232.888C510.198 246.186 473.211 259.925 443.533 284.497C442.829 285.113 442.124 285.554 441.596 286.17C556.168 537.169 584.524 818.199 591.129 1099.05V1099.23C592.979 1183.6 593.067 1267.88 592.891 1351.37C592.01 1862.18 590.953 2372.98 590.073 2883.79C589.984 2907.04 589.984 2930.46 589.984 2953.71C889.58 2983.13 1201.59 2983.31 1489.83 2983.31H1494.67C1782.91 2983.31 2094.92 2983.13 2394.51 2953.71C2394.51 2930.46 2394.43 2907.04 2394.43 2883.79C2393.46 2372.98 2392.49 1862.18 2391.43 1351.37L2391.26 1351.29Z" stroke="#292F44" stroke-linecap="round" stroke-linejoin="round"/>
<path d="M1847.99 44.683C1820.6 102.897 1776.57 153.185 1722.06 187.532C1654.95 229.806 1562.39 236.235 1494.32 236.235H1489.92C1421.84 236.235 1329.2 229.806 1262.18 187.532C1207.76 153.185 1163.64 102.897 1136.25 44.683C1248.27 93.1213 1378.52 114.698 1491.15 114.698H1493.09C1605.81 114.698 1736.06 93.1213 1848.08 44.683H1847.99Z" fill="#D5DCDE"/>
<path d="M1847.99 44.683C1820.6 102.897 1776.57 153.185 1722.06 187.532C1654.95 229.806 1562.39 236.235 1494.32 236.235H1489.92C1421.84 236.235 1329.2 229.806 1262.18 187.532C1207.76 153.185 1163.64 102.897 1136.25 44.683C1248.27 93.1213 1378.52 114.698 1491.15 114.698H1493.09C1605.81 114.698 1736.06 93.1213 1848.08 44.683H1847.99Z" stroke="#292F44" stroke-linecap="round" stroke-linejoin="round"/>
<path d="M1858.29 20.0231C1855.21 28.3897 1851.77 36.5802 1847.9 44.6826C1735.88 93.121 1605.63 114.698 1492.91 114.698H1490.97C1378.34 114.698 1248.09 93.121 1136.07 44.6826C1132.2 36.5802 1128.76 28.3016 1125.68 19.935C1142.94 13.594 1160.11 7.34102 1177.38 1C1281.2 38.5177 1394.81 48.1173 1491.94 48.1173C1589.08 48.1173 1702.68 38.4296 1806.6 1C1823.86 7.34102 1841.03 13.594 1858.29 20.0231Z" fill="#B3BFC2"/>
<path d="M1858.29 20.0231C1855.21 28.3897 1851.77 36.5802 1847.9 44.6826C1735.88 93.121 1605.63 114.698 1492.91 114.698H1490.97C1378.34 114.698 1248.09 93.121 1136.07 44.6826C1132.2 36.5802 1128.76 28.3016 1125.68 19.935C1142.94 13.594 1160.11 7.34102 1177.38 1C1281.2 38.5177 1394.81 48.1173 1491.94 48.1173C1589.08 48.1173 1702.68 38.4296 1806.6 1C1823.86 7.34102 1841.03 13.594 1858.29 20.0231Z" stroke="#292F44" stroke-linecap="round" stroke-linejoin="round"/>
<path d="M441.419 286.082C404.96 317.083 382.856 361.646 361.808 404.889C249.878 635.455 137.86 866.11 27.6915 1092.98C18.709 1111.38 9.81444 1129.7 0.919922 1147.93C120.424 1250.09 256.836 1332.62 408.835 1389.24C422.309 1371.89 435.607 1354.1 448.464 1336.14C502.359 1261.19 550.002 1181.93 590.864 1099.23V1099.05C584.26 818.2 555.991 537.169 441.331 286.171L441.419 286.082Z" fill="white"/>
<mask id="mask1_2218_14" style="mask-type:luminance" maskUnits="userSpaceOnUse" x="27" y="285" width="565" height="1052">
<path d="M590.952 1098.97V1099.14C550.002 1181.93 502.359 1261.1 448.552 1336.05C297.257 1276.6 154.857 1194.35 27.6914 1092.98C137.86 866.021 249.878 635.367 361.896 404.8C382.944 361.558 404.96 316.995 441.507 285.994C556.079 536.993 584.435 818.023 591.04 1098.88L590.952 1098.97Z" fill="white"/>
</mask>
<g mask="url(#mask1_2218_14)">
<path d="M332.301 696.927C375.54 589.042 433.927 487.233 505.083 395.377" stroke="#E4E5EB" stroke-linecap="round" stroke-linejoin="round"/>
<path d="M199.236 1074.39C266.43 1144.94 346.392 1203.15 434.193 1245.34" stroke="#E4E5EB" stroke-linecap="round" stroke-linejoin="round"/>
<path d="M449.164 1190.03C399.055 1166.52 354.935 1130.5 321.822 1086.2" stroke="#E4E5EB" stroke-linecap="round" stroke-linejoin="round"/>
</g>
<path d="M27.6914 1093.07C154.857 1194.35 297.257 1276.6 448.552 1336.14" stroke="#797E91" stroke-linecap="round" stroke-linejoin="round"/>
<g style="mix-blend-mode:multiply" opacity="0.09">
<path d="M408.836 1389.16C422.31 1371.81 435.607 1354.02 448.465 1336.05C502.36 1261.1 550.003 1181.84 590.865 1099.14V1098.97C589.104 1023.75 585.757 948.542 579.593 873.859C429.091 1076.16 313.638 1226.58 244.771 1315.09C297.17 1343.18 351.858 1368.02 408.748 1389.16H408.836Z" fill="#383838"/>
</g>
<path d="M441.419 286.082C404.96 317.083 382.856 361.646 361.808 404.889C249.878 635.455 137.86 866.11 27.6915 1092.98C18.709 1111.38 9.81444 1129.7 0.919922 1147.93C120.424 1250.09 256.836 1332.62 408.835 1389.24C422.309 1371.89 435.607 1354.1 448.464 1336.14C502.36 1261.19 550.002 1181.93 590.864 1099.23V1099.05C584.26 818.2 555.991 537.169 441.331 286.171L441.419 286.082Z" stroke="#292F44" stroke-linecap="round" stroke-linejoin="round"/>
<path d="M2542.64 286.082C2579.1 317.083 2601.2 361.646 2622.25 404.888C2734.18 635.543 2846.29 866.11 2956.46 1092.98C2965.44 1111.38 2974.33 1129.7 2983.23 1147.93C2863.72 1250.09 2727.31 1332.62 2575.31 1389.24C2561.84 1371.89 2548.54 1354.1 2535.68 1336.14C2481.79 1261.19 2434.15 1181.93 2393.28 1099.23V1099.05C2399.89 818.2 2428.16 537.169 2542.82 286.17L2542.64 286.082Z" fill="white"/>
<mask id="mask2_2218_14" style="mask-type:luminance" maskUnits="userSpaceOnUse" x="2393" y="285" width="564" height="1052">
<path d="M2393.11 1098.97V1099.14C2434.06 1181.93 2481.7 1261.1 2535.51 1336.05C2686.8 1276.6 2829.2 1194.35 2956.37 1092.98C2846.2 866.021 2734.18 635.367 2622.16 404.8C2601.11 361.558 2579.1 316.995 2542.55 285.994C2427.98 536.993 2399.62 818.023 2393.02 1098.88L2393.11 1098.97Z" fill="white"/>
</mask>
<g mask="url(#mask2_2218_14)">
<path d="M2651.76 696.927C2608.52 589.042 2550.13 487.233 2478.97 395.377" stroke="#E4E5EB" stroke-linecap="round" stroke-linejoin="round"/>
<path d="M2784.82 1074.39C2717.63 1144.94 2637.67 1203.15 2549.87 1245.34" stroke="#E4E5EB" stroke-linecap="round" stroke-linejoin="round"/>
<path d="M2534.89 1190.03C2585 1166.52 2629.12 1130.5 2662.24 1086.2" stroke="#E4E5EB" stroke-linecap="round" stroke-linejoin="round"/>
</g>
<path d="M2956.45 1093.07C2829.29 1194.35 2686.89 1276.6 2535.59 1336.14" stroke="#797E91" stroke-linecap="round" stroke-linejoin="round"/>
<g style="mix-blend-mode:multiply" opacity="0.09">
<path d="M2402.53 896.758C2397.51 963.867 2394.69 1031.42 2393.11 1098.97V1099.14C2434.06 1181.93 2481.7 1261.1 2535.51 1336.05C2548.45 1354.02 2561.66 1371.72 2575.14 1389.16C2630.35 1368.55 2683.54 1344.5 2734.62 1317.47C2633.17 1143.79 2503.63 997.333 2402.53 896.758Z" fill="#383838"/>
</g>
<path d="M2542.64 286.082C2579.1 317.083 2601.2 361.646 2622.25 404.888C2734.18 635.543 2846.29 866.11 2956.46 1092.98C2965.44 1111.38 2974.33 1129.7 2983.23 1147.93C2863.72 1250.09 2727.31 1332.62 2575.31 1389.24C2561.84 1371.89 2548.54 1354.1 2535.68 1336.14C2481.79 1261.19 2434.15 1181.93 2393.28 1099.23V1099.05C2399.89 818.2 2428.16 537.169 2542.82 286.17L2542.64 286.082Z" stroke="#292F44" stroke-linecap="round" stroke-linejoin="round"/>
<rect x="795.42" y="504.5" width="1393" height="1743" stroke="black" stroke-width="7"/>
<rect x="1841.92" y="601" width="300" height="100" fill="#6E48D8"/>
</svg>
