<svg width="161" height="160" viewBox="0 0 161 160" fill="none" xmlns="http://www.w3.org/2000/svg">
<g clip-path="url(#clip0_2401_522)">
<path d="M128.255 72.4558C128.245 67.9743 128.25 63.4547 128.354 58.9309C128.708 43.8718 130.224 28.7985 136.372 15.3401C136.339 15.3071 136.301 15.2834 136.268 15.2504C134.677 13.9329 132.693 13.1962 130.753 12.4832C121.738 9.17286 112.724 5.86256 103.71 2.55228C102.369 2.06117 101.023 1.57005 99.6821 1.07894C99.517 1.52755 99.3326 1.96672 99.125 2.40117C97.6564 5.52256 95.2955 8.21897 92.3728 10.0606C88.7744 12.3273 83.8119 12.6721 80.1615 12.6721H79.9256C76.2757 12.6721 71.3079 12.3273 67.7143 10.0606C64.7963 8.21897 62.4307 5.52256 60.962 2.40117C60.7545 1.96672 60.5701 1.52283 60.4049 1.07422C59.0639 1.57005 57.7181 2.06117 56.3771 2.557C47.3582 5.86728 38.344 9.17758 29.3298 12.4879C27.3937 13.2009 25.4105 13.9376 23.8192 15.2551C23.7814 15.2881 23.7436 15.3118 23.7153 15.3448C29.8586 28.8032 31.3791 43.8718 31.7332 58.9309V58.9405C31.8324 63.4644 31.8371 67.9834 31.8277 72.4601C31.7804 99.8494 31.7238 127.238 31.6766 154.627C31.6718 155.874 31.6718 157.13 31.6718 158.376C47.7359 159.954 64.4661 159.964 79.9207 159.964H80.1803C95.6355 159.964 112.365 159.954 128.43 158.376C128.43 157.13 128.425 155.874 128.425 154.627C128.373 127.238 128.321 99.8494 128.264 72.4601L128.255 72.4558Z" fill="white"/>
<mask id="mask0_2401_522" style="mask-type:luminance" maskUnits="userSpaceOnUse" x="23" y="2" width="114" height="155">
<path d="M128.456 72.7276C128.508 100.116 128.56 127.506 128.617 154.894C112.562 156.472 95.8225 156.481 80.3726 156.481H80.1125C64.6627 156.481 47.9278 156.472 31.8685 154.894C31.9157 127.506 31.9723 100.116 32.0196 72.7276C32.029 68.2509 32.0243 63.7318 31.9251 59.208V59.1983C31.571 44.1391 30.0552 29.0704 23.9072 15.6121C23.9403 15.579 23.9781 15.5554 24.0111 15.5223C25.6024 14.2048 27.5856 13.4681 29.5217 12.7551C38.5359 9.44482 47.5501 6.13452 56.5688 2.82422C58.1131 7.28203 61.5887 10.9701 65.7388 13.2273C70.1351 15.6168 75.1592 16.3912 80.2262 16.3912H80.245C85.3163 16.3912 90.3404 15.6168 94.7318 13.2273C98.8873 10.9701 102.362 7.28203 103.907 2.82422C112.921 6.13452 121.935 9.44482 130.95 12.7551C132.89 13.4681 134.873 14.2048 136.465 15.5223C136.502 15.5554 136.54 15.579 136.568 15.6121C130.425 29.0704 128.904 44.1485 128.551 59.2032C128.447 63.727 128.437 68.2461 128.451 72.7276H128.456Z" fill="white"/>
</mask>
<g mask="url(#mask0_2401_522)">
<path d="M30.812 51.7005C34.3016 48.0361 38.7685 45.3066 43.6227 43.8711" stroke="#E4E5EB" stroke-linecap="round" stroke-linejoin="round"/>
<path d="M31.0669 56.4142C34.8917 54.8796 38.9715 53.9868 43.089 53.7793" stroke="#E4E5EB" stroke-linecap="round" stroke-linejoin="round"/>
<path d="M37.7201 73.2676C37.1583 87.1089 37.1016 100.968 37.5502 114.814" stroke="#E4E5EB" stroke-linecap="round" stroke-linejoin="round"/>
<path d="M30.2217 147.59C39.4011 147.906 48.5854 148.223 57.7649 148.539" stroke="#E4E5EB" stroke-linecap="round" stroke-linejoin="round"/>
<path d="M126.37 15.2783C119.363 11.6139 111.813 9.00249 104.04 7.55273" stroke="#E4E5EB" stroke-linecap="round" stroke-linejoin="round"/>
<path d="M129.26 51.7005C125.77 48.0361 121.303 45.3066 116.449 43.8711" stroke="#E4E5EB" stroke-linecap="round" stroke-linejoin="round"/>
<path d="M129.005 56.4142C125.181 54.8796 121.101 53.9868 116.983 53.7793" stroke="#E4E5EB" stroke-linecap="round" stroke-linejoin="round"/>
<path d="M122.356 73.2676C122.918 87.1089 122.975 100.968 122.526 114.814" stroke="#E4E5EB" stroke-linecap="round" stroke-linejoin="round"/>
<path d="M129.85 147.59C120.67 147.906 111.486 148.223 102.307 148.539" stroke="#E4E5EB" stroke-linecap="round" stroke-linejoin="round"/>
<path d="M33.7065 15.2783C40.7139 11.6139 48.2643 9.00249 56.0368 7.55273" stroke="#E4E5EB" stroke-linecap="round" stroke-linejoin="round"/>
</g>
<path d="M103.71 2.55078C102.166 7.00858 98.6906 10.6966 94.5351 12.9539C90.1437 15.3433 85.1195 16.1177 80.0482 16.1177H80.0294C74.9624 16.1177 69.9383 15.3433 65.542 12.9539C61.3914 10.6966 57.9163 7.00858 56.3721 2.55078" stroke="#797E91" stroke-linecap="round" stroke-linejoin="round"/>
<path d="M31.667 154.621C47.7216 156.198 64.4612 156.208 79.9111 156.208H80.1711C95.621 156.208 112.356 156.198 128.415 154.621" stroke="#797E91" stroke-linecap="round" stroke-linejoin="round"/>
<g style="mix-blend-mode:multiply" opacity="0.09">
<path d="M31.7237 58.9253V58.9344C31.8228 63.4582 31.8276 67.9778 31.8181 72.4545C31.7709 99.8432 31.7143 127.232 31.667 154.621C31.6623 155.868 31.6623 157.124 31.6623 158.371C32.7059 158.474 33.7542 158.569 34.8071 158.659V78.4845C34.8071 58.1601 33.2064 44.0547 33.2064 44.0547C32.4981 45.0133 31.8087 45.9436 31.124 46.8597C31.4545 50.8642 31.634 54.8968 31.7284 58.9295L31.7237 58.9253Z" fill="#383838"/>
</g>
<g style="mix-blend-mode:multiply" opacity="0.09">
<path d="M128.41 154.622C128.358 127.233 128.306 99.844 128.249 72.4553C128.24 67.9738 128.245 63.4542 128.349 58.9304C128.433 55.3084 128.589 51.6866 128.854 48.0836C123.858 43.1158 120.16 40.2305 120.16 40.2305C120.16 40.2305 116.652 81.0682 116.279 108.972C116.001 130.043 116.879 150.476 117.328 159.222C121.039 159.004 124.741 158.73 128.41 158.372C128.41 157.125 128.405 155.869 128.405 154.622H128.41Z" fill="#383838"/>
</g>
<path d="M128.255 72.4558C128.245 67.9743 128.25 63.4547 128.354 58.9309C128.708 43.8718 130.224 28.7985 136.372 15.3401C136.339 15.3071 136.301 15.2834 136.268 15.2504C134.677 13.9329 132.693 13.1962 130.753 12.4832C121.738 9.17286 112.724 5.86256 103.71 2.55228C102.369 2.06117 101.023 1.57005 99.6821 1.07894C99.517 1.52755 99.3325 1.96672 99.125 2.40117C97.6564 5.52256 95.2955 8.21897 92.3728 10.0606C88.7744 12.3273 83.8119 12.6721 80.1615 12.6721H79.9256C76.2757 12.6721 71.3079 12.3273 67.7143 10.0606C64.7964 8.21897 62.4307 5.52256 60.962 2.40117C60.7545 1.96672 60.5701 1.52283 60.4049 1.07422C59.0639 1.57005 57.7181 2.06117 56.3771 2.557C47.3582 5.86728 38.344 9.17757 29.3298 12.4879C27.3937 13.2009 25.4105 13.9376 23.8192 15.2551C23.7814 15.2881 23.7436 15.3118 23.7153 15.3448C29.8586 28.8032 31.3791 43.8718 31.7332 58.9309V58.9405C31.8324 63.4644 31.8371 67.9834 31.8277 72.4601C31.7804 99.8494 31.7238 127.238 31.6766 154.627C31.6718 155.874 31.6718 157.13 31.6718 158.376C47.7359 159.954 64.4661 159.964 79.9207 159.964H80.1803C95.6355 159.964 112.365 159.954 128.43 158.376C128.43 157.13 128.425 155.874 128.425 154.627C128.373 127.238 128.321 99.8494 128.264 72.4601L128.255 72.4558Z" stroke="#292F44" stroke-linecap="round" stroke-linejoin="round"/>
<path d="M99.1249 2.39648C97.6563 5.51788 95.2954 8.21429 92.3726 10.0559C88.7743 12.3226 83.8118 12.6674 80.1614 12.6674H79.9255C76.2751 12.6674 71.3078 12.3226 67.7142 10.0559C64.7962 8.21429 62.4305 5.51788 60.9619 2.39648C66.9683 4.99371 73.9523 6.15064 79.9914 6.15064H80.0954C86.1394 6.15064 93.1233 4.99371 99.1297 2.39648H99.1249Z" fill="#D5DCDE"/>
<path d="M99.1249 2.39648C97.6563 5.51788 95.2954 8.21429 92.3726 10.0559C88.7742 12.3227 83.8118 12.6674 80.1614 12.6674H79.9255C76.2751 12.6674 71.3078 12.3227 67.7142 10.0559C64.7962 8.21429 62.4305 5.51788 60.9619 2.39648C66.9683 4.99371 73.9523 6.15064 79.9914 6.15064H80.0954C86.1394 6.15064 93.1233 4.99371 99.1297 2.39648H99.1249Z" stroke="#292F44" stroke-linecap="round" stroke-linejoin="round"/>
<path d="M99.6775 1.07274C99.5124 1.52135 99.3284 1.96052 99.1204 2.39496C93.114 4.9922 86.1306 6.14914 80.0861 6.14914H79.9826C73.9429 6.14914 66.959 4.9922 60.9531 2.39496C60.7451 1.96052 60.5611 1.51663 60.396 1.06802C61.3215 0.728016 62.2421 0.392735 63.1676 0.0527344C68.7349 2.06441 74.826 2.57913 80.0346 2.57913C85.2426 2.57913 91.3338 2.05968 96.9059 0.0527344C97.8314 0.392735 98.752 0.728016 99.6775 1.07274Z" fill="#B3BFC2"/>
<path d="M99.6775 1.07274C99.5124 1.52135 99.3284 1.96052 99.1204 2.39496C93.114 4.9922 86.1306 6.14914 80.0861 6.14914H79.9826C73.9429 6.14914 66.959 4.9922 60.9531 2.39496C60.7451 1.96052 60.5611 1.51663 60.396 1.06802C61.3215 0.728016 62.2421 0.392735 63.1676 0.0527344C68.7349 2.06441 74.826 2.57913 80.0346 2.57913C85.2426 2.57913 91.3338 2.05968 96.9059 0.0527344C97.8314 0.392735 98.752 0.728016 99.6775 1.07274Z" stroke="#292F44" stroke-linecap="round" stroke-linejoin="round"/>
<path d="M23.7057 15.3398C21.7508 17.0021 20.5656 19.3915 19.437 21.7102C13.4354 34.073 7.42909 46.4405 1.5219 58.6051C1.04026 59.5917 0.563344 60.5741 0.0864258 61.5515C6.49413 67.0293 13.8084 71.4545 21.9585 74.4904C22.681 73.5601 23.394 72.6062 24.0834 71.6432C26.9733 67.6245 29.5279 63.3746 31.7188 58.9403V58.9306C31.3647 43.8716 29.8489 28.803 23.7009 15.3446L23.7057 15.3398Z" fill="white"/>
<mask id="mask1_2401_522" style="mask-type:luminance" maskUnits="userSpaceOnUse" x="1" y="15" width="31" height="57">
<path d="M31.7236 58.9252V58.9343C29.5279 63.3734 26.9734 67.6185 24.0882 71.6373C15.9759 68.4496 8.34048 64.0394 1.52197 58.604C7.42917 46.4346 13.4355 34.0671 19.4418 21.7043C20.5703 19.3857 21.7508 16.9962 23.7105 15.334C29.8537 28.7924 31.3742 43.861 31.7284 58.9204L31.7236 58.9252Z" fill="white"/>
</mask>
<g mask="url(#mask1_2401_522)">
<path d="M17.855 37.3681C20.1735 31.5834 23.3042 26.1245 27.1195 21.1992" stroke="#E4E5EB" stroke-linecap="round" stroke-linejoin="round"/>
<path d="M10.7202 57.6074C14.3231 61.3903 18.6106 64.5114 23.3184 66.7736" stroke="#E4E5EB" stroke-linecap="round" stroke-linejoin="round"/>
<path d="M24.1209 63.8075C21.4341 62.5469 19.0684 60.6156 17.293 58.2402" stroke="#E4E5EB" stroke-linecap="round" stroke-linejoin="round"/>
</g>
<path d="M1.52197 58.6094C8.34048 64.0399 15.9759 68.4501 24.0882 71.6426" stroke="#797E91" stroke-linecap="round" stroke-linejoin="round"/>
<g style="mix-blend-mode:multiply" opacity="0.09">
<path d="M21.9586 74.4855C22.6811 73.5553 23.3941 72.6014 24.0835 71.6378C26.9734 67.6191 29.5279 63.3692 31.7189 58.9349V58.9258C31.6245 54.8925 31.4451 50.8599 31.1145 46.8555C23.0447 57.7027 16.8542 65.7681 13.1616 70.514C15.9712 72.0201 18.9035 73.352 21.9539 74.4855H21.9586Z" fill="#383838"/>
</g>
<path d="M23.7057 15.3398C21.7508 17.0021 20.5656 19.3915 19.437 21.7102C13.4354 34.073 7.42909 46.4405 1.5219 58.6051C1.04026 59.5917 0.563344 60.5741 0.0864258 61.5515C6.49413 67.0293 13.8084 71.4545 21.9585 74.4904C22.681 73.5601 23.394 72.6062 24.0834 71.6432C26.9733 67.6245 29.5279 63.3746 31.7188 58.9403V58.9306C31.3647 43.8716 29.8489 28.803 23.7009 15.3446L23.7057 15.3398Z" stroke="#292F44" stroke-linecap="round" stroke-linejoin="round"/>
<path d="M136.371 15.3398C138.326 17.0021 139.512 19.3915 140.64 21.7101C146.642 34.0777 152.653 46.4405 158.56 58.6051C159.042 59.5917 159.519 60.5741 159.995 61.5515C153.588 67.0293 146.274 71.4545 138.124 74.4904C137.401 73.5601 136.688 72.6062 135.999 71.6432C133.109 67.6245 130.554 63.3746 128.363 58.9403V58.9306C128.717 43.8716 130.233 28.803 136.381 15.3446L136.371 15.3398Z" fill="white"/>
<mask id="mask2_2401_522" style="mask-type:luminance" maskUnits="userSpaceOnUse" x="128" y="15" width="31" height="57">
<path d="M128.354 58.9252V58.9343C130.55 63.3734 133.105 67.6185 135.99 71.6373C144.102 68.4496 151.737 64.0394 158.556 58.604C152.649 46.4346 146.642 34.0671 140.636 21.7043C139.508 19.3857 138.327 16.9962 136.367 15.334C130.224 28.7924 128.704 43.861 128.35 58.9204L128.354 58.9252Z" fill="white"/>
</mask>
<g mask="url(#mask2_2401_522)">
<path d="M142.223 37.3681C139.905 31.5834 136.774 26.1245 132.959 21.1992" stroke="#E4E5EB" stroke-linecap="round" stroke-linejoin="round"/>
<path d="M149.358 57.6074C145.755 61.3903 141.468 64.5114 136.76 66.7736" stroke="#E4E5EB" stroke-linecap="round" stroke-linejoin="round"/>
<path d="M135.957 63.8075C138.644 62.5469 141.01 60.6156 142.785 58.2402" stroke="#E4E5EB" stroke-linecap="round" stroke-linejoin="round"/>
</g>
<path d="M158.56 58.6094C151.742 64.0399 144.106 68.4501 135.994 71.6426" stroke="#797E91" stroke-linecap="round" stroke-linejoin="round"/>
<g style="mix-blend-mode:multiply" opacity="0.09">
<path d="M128.859 48.084C128.589 51.6823 128.439 55.3045 128.354 58.9264V58.9356C130.549 63.3747 133.104 67.6198 135.989 71.6385C136.683 72.6021 137.392 73.5511 138.114 74.4862C141.075 73.3811 143.927 72.0916 146.666 70.6423C141.225 61.3297 134.28 53.4767 128.859 48.084Z" fill="#383838"/>
</g>
<path d="M136.371 15.3398C138.326 17.0021 139.512 19.3915 140.64 21.7101C146.642 34.0777 152.653 46.4405 158.56 58.6051C159.042 59.5917 159.519 60.5741 159.995 61.5515C153.588 67.0293 146.274 71.4545 138.124 74.4904C137.401 73.5601 136.688 72.6062 135.999 71.6432C133.109 67.6245 130.554 63.3746 128.363 58.9403V58.9306C128.717 43.8716 130.233 28.803 136.381 15.3446L136.371 15.3398Z" stroke="#292F44" stroke-linecap="round" stroke-linejoin="round"/>
<path d="M114.886 32.2246H90.7568V40.2675H114.886V32.2246Z" fill="#6E48D8"/>
</g>
<defs>
<clipPath id="clip0_2401_522">
<rect width="160" height="160" fill="white" transform="translate(0.0537109)"/>
</clipPath>
</defs>
</svg>
