<svg width="160" height="160" viewBox="0 0 160 160" fill="none" xmlns="http://www.w3.org/2000/svg">
<g clip-path="url(#clip0_2401_366)">
<path d="M128.222 72.4558C128.213 67.9743 128.217 63.4547 128.321 58.9309C128.675 43.8719 130.191 28.7985 136.339 15.3401C136.306 15.3071 136.268 15.2834 136.235 15.2504C134.644 13.9329 132.661 13.1962 130.72 12.4832C121.706 9.17286 112.691 5.86256 103.677 2.55228C102.336 2.06117 100.991 1.57006 99.6496 1.07894C99.4844 1.52755 99.3 1.96672 99.0925 2.40117C97.6238 5.52256 95.263 8.21897 92.3397 10.0606C88.7418 12.3273 83.7788 12.6721 80.1289 12.6721H79.893C76.2426 12.6721 71.2753 12.3273 67.6818 10.0606C64.7638 8.21897 62.3981 5.52256 60.9295 2.40117C60.7214 1.96672 60.5375 1.52284 60.3724 1.07422C59.0314 1.57006 57.6855 2.06117 56.3445 2.557C47.3255 5.86728 38.3113 9.17758 29.297 12.4879C27.361 13.201 25.3778 13.9376 23.7865 15.2551C23.7487 15.2881 23.7109 15.3118 23.6826 15.3448C29.8259 28.8032 31.3464 43.8719 31.7005 58.9309V58.9405C31.7997 63.4644 31.8044 67.9834 31.795 72.4601C31.7477 99.8494 31.691 127.238 31.6439 154.627C31.6391 155.874 31.6391 157.13 31.6391 158.376C47.7032 159.954 64.433 159.964 79.8882 159.964H80.1477C95.6029 159.964 112.333 159.954 128.397 158.376C128.397 157.13 128.392 155.874 128.392 154.627C128.34 127.238 128.288 99.8494 128.231 72.4601L128.222 72.4558Z" fill="white"/>
<mask id="mask0_2401_366" style="mask-type:luminance" maskUnits="userSpaceOnUse" x="23" y="2" width="114" height="155">
<path d="M128.423 72.7276C128.475 100.116 128.527 127.506 128.584 154.894C112.529 156.472 95.7894 156.481 80.339 156.481H80.0795C64.6291 156.481 47.8946 156.472 31.8353 154.894C31.8824 127.506 31.9391 100.116 31.9864 72.7276C31.9958 68.2509 31.9911 63.7318 31.8919 59.208V59.1983C31.5378 44.1391 30.022 29.0704 23.874 15.6121C23.9071 15.579 23.9449 15.5554 23.9779 15.5223C25.5692 14.2048 27.5524 13.4681 29.4884 12.7551C38.5027 9.44481 47.5169 6.13452 56.5358 2.82422C58.08 7.28203 61.5551 10.9701 65.7058 13.2273C70.102 15.6168 75.1261 16.3912 80.1926 16.3912H80.2119C85.2832 16.3912 90.3074 15.6168 94.6988 13.2273C98.8538 10.9701 102.329 7.28203 103.874 2.82422C112.888 6.13452 121.902 9.44481 130.916 12.7551C132.857 13.4681 134.84 14.2048 136.431 15.5223C136.469 15.5554 136.507 15.579 136.535 15.6121C130.392 29.0704 128.871 44.1485 128.518 59.2032C128.414 63.727 128.404 68.246 128.418 72.7276H128.423Z" fill="white"/>
</mask>
<g mask="url(#mask0_2401_366)">
<path d="M30.7793 51.7006C34.2688 48.0361 38.7358 45.3066 43.59 43.8711" stroke="#E4E5EB" stroke-linecap="round" stroke-linejoin="round"/>
<path d="M31.0342 56.4142C34.859 54.8796 38.9387 53.9873 43.0563 53.7793" stroke="#E4E5EB" stroke-linecap="round" stroke-linejoin="round"/>
<path d="M37.6865 73.2676C37.1245 87.1089 37.0679 100.968 37.5165 114.814" stroke="#E4E5EB" stroke-linecap="round" stroke-linejoin="round"/>
<path d="M30.1885 147.59C39.368 147.906 48.5522 148.223 57.7319 148.539" stroke="#E4E5EB" stroke-linecap="round" stroke-linejoin="round"/>
<path d="M126.337 15.2783C119.33 11.6139 111.779 9.00249 104.007 7.55273" stroke="#E4E5EB" stroke-linecap="round" stroke-linejoin="round"/>
<path d="M129.227 51.7006C125.737 48.0361 121.27 45.3066 116.416 43.8711" stroke="#E4E5EB" stroke-linecap="round" stroke-linejoin="round"/>
<path d="M128.972 56.4142C125.147 54.8796 121.067 53.9873 116.949 53.7793" stroke="#E4E5EB" stroke-linecap="round" stroke-linejoin="round"/>
<path d="M122.323 73.2676C122.885 87.1089 122.941 100.968 122.493 114.814" stroke="#E4E5EB" stroke-linecap="round" stroke-linejoin="round"/>
<path d="M129.818 147.59C120.638 147.906 111.454 148.223 102.274 148.539" stroke="#E4E5EB" stroke-linecap="round" stroke-linejoin="round"/>
<path d="M33.6738 15.2783C40.6812 11.6139 48.2316 9.00249 56.0037 7.55273" stroke="#E4E5EB" stroke-linecap="round" stroke-linejoin="round"/>
</g>
<path d="M103.678 2.55078C102.133 7.00858 98.6578 10.6966 94.5028 12.9539C90.1114 15.3433 85.0873 16.1177 80.0154 16.1177H79.9967C74.9302 16.1177 69.9061 15.3433 65.5098 12.9539C61.3591 10.6966 57.8841 7.00858 56.3398 2.55078" stroke="#797E91" stroke-linecap="round" stroke-linejoin="round"/>
<path d="M31.6338 154.621C47.6884 156.198 64.4276 156.208 79.878 156.208H80.1375C95.5879 156.208 112.323 156.198 128.382 154.621" stroke="#797E91" stroke-linecap="round" stroke-linejoin="round"/>
<g style="mix-blend-mode:multiply" opacity="0.09">
<path d="M31.6905 58.9253V58.9344C31.7896 63.4582 31.7944 67.9778 31.7849 72.4545C31.7377 99.8432 31.6811 127.232 31.6338 154.621C31.6291 155.868 31.6291 157.124 31.6291 158.371C32.6726 158.474 33.721 158.569 34.7739 158.659V78.4845C34.7739 58.1601 33.1732 44.0547 33.1732 44.0547C32.4649 45.0133 31.7755 45.9436 31.0908 46.8597C31.4213 50.8642 31.6008 54.8968 31.6952 58.9295L31.6905 58.9253Z" fill="#383838"/>
</g>
<g style="mix-blend-mode:multiply" opacity="0.09">
<path d="M128.378 154.622C128.326 127.233 128.274 99.844 128.217 72.4553C128.208 67.9738 128.212 63.4542 128.316 58.9304C128.401 55.3084 128.557 51.6866 128.822 48.0836C123.826 43.1158 120.128 40.2305 120.128 40.2305C120.128 40.2305 116.62 81.0682 116.247 108.972C115.968 130.043 116.847 150.476 117.295 159.222C121.007 159.004 124.708 158.73 128.378 158.372C128.378 157.125 128.373 155.869 128.373 154.622H128.378Z" fill="#383838"/>
</g>
<path d="M128.222 72.4558C128.213 67.9743 128.217 63.4547 128.321 58.9309C128.675 43.8719 130.191 28.7985 136.339 15.3401C136.306 15.3071 136.268 15.2834 136.235 15.2504C134.644 13.9329 132.661 13.1962 130.72 12.4832C121.706 9.17286 112.691 5.86256 103.677 2.55228C102.336 2.06117 100.991 1.57006 99.6496 1.07894C99.4844 1.52755 99.3 1.96672 99.0925 2.40117C97.6238 5.52256 95.263 8.21897 92.3397 10.0606C88.7418 12.3273 83.7788 12.6721 80.1289 12.6721H79.893C76.2426 12.6721 71.2753 12.3273 67.6818 10.0606C64.7638 8.21897 62.3981 5.52256 60.9295 2.40117C60.7214 1.96672 60.5375 1.52284 60.3724 1.07422C59.0314 1.57006 57.6855 2.06117 56.3445 2.557C47.3255 5.86728 38.3113 9.17757 29.297 12.4879C27.361 13.201 25.3778 13.9376 23.7865 15.2551C23.7487 15.2881 23.7109 15.3118 23.6826 15.3448C29.8259 28.8032 31.3464 43.8719 31.7005 58.9309V58.9405C31.7997 63.4644 31.8044 67.9834 31.795 72.4601C31.7477 99.8494 31.691 127.238 31.6439 154.627C31.6391 155.874 31.6391 157.13 31.6391 158.376C47.7032 159.954 64.433 159.964 79.8882 159.964H80.1477C95.6029 159.964 112.333 159.954 128.397 158.376C128.397 157.13 128.392 155.874 128.392 154.627C128.34 127.238 128.288 99.8494 128.231 72.4601L128.222 72.4558Z" stroke="#292F44" stroke-linecap="round" stroke-linejoin="round"/>
<path d="M99.0927 2.39648C97.6241 5.51788 95.2632 8.21429 92.3399 10.056C88.742 12.3226 83.779 12.6674 80.1292 12.6674H79.8932C76.2428 12.6674 71.2755 12.3226 67.682 10.056C64.764 8.21429 62.3983 5.51788 60.9297 2.39648C66.9361 4.99371 73.9195 6.15064 79.9592 6.15064H80.0632C86.1072 6.15064 93.0911 4.99371 99.097 2.39648H99.0927Z" fill="#D5DCDE"/>
<path d="M99.0927 2.39648C97.6241 5.51788 95.2632 8.21429 92.3399 10.056C88.742 12.3226 83.779 12.6674 80.1292 12.6674H79.8932C76.2428 12.6674 71.2755 12.3226 67.682 10.056C64.764 8.21429 62.3983 5.51788 60.9297 2.39648C66.9361 4.99371 73.9195 6.15064 79.9592 6.15064H80.0632C86.1072 6.15064 93.0911 4.99371 99.097 2.39648H99.0927Z" stroke="#292F44" stroke-linecap="round" stroke-linejoin="round"/>
<path d="M99.6443 1.07274C99.4792 1.52135 99.2947 1.96052 99.0872 2.39496C93.0808 4.9922 86.0969 6.14914 80.0529 6.14914H79.9489C73.9098 6.14914 66.9258 4.9922 60.9194 2.39496C60.7119 1.96052 60.5275 1.51663 60.3623 1.06802C61.2878 0.728016 62.2084 0.392735 63.1344 0.0527344C68.7012 2.06441 74.7929 2.57913 80.0009 2.57913C85.2095 2.57913 91.3006 2.05968 96.8728 0.0527344C97.7982 0.392735 98.7189 0.728016 99.6443 1.07274Z" fill="#B3BFC2"/>
<path d="M99.6443 1.07274C99.4792 1.52135 99.2947 1.96052 99.0872 2.39496C93.0808 4.9922 86.0969 6.14914 80.0529 6.14914H79.9489C73.9098 6.14914 66.9258 4.9922 60.9194 2.39496C60.7119 1.96052 60.5275 1.51663 60.3623 1.06802C61.2878 0.728016 62.2084 0.392735 63.1344 0.0527344C68.7012 2.06441 74.7929 2.57913 80.0009 2.57913C85.2095 2.57913 91.3006 2.05968 96.8728 0.0527344C97.7982 0.392735 98.7189 0.728016 99.6443 1.07274Z" stroke="#292F44" stroke-linecap="round" stroke-linejoin="round"/>
<path d="M23.673 15.3398C21.7181 17.002 20.5329 19.3915 19.4043 21.7101C13.4027 34.0729 7.39634 46.4405 1.48919 58.6051C1.00754 59.5917 0.530629 60.574 0.0537109 61.5515C6.46143 67.0292 13.7757 71.4544 21.9258 74.4904C22.6483 73.5601 23.3613 72.6062 24.0507 71.6432C26.9406 67.6244 29.4952 63.3745 31.6861 58.9402V58.9306C31.332 43.8716 29.8162 28.8029 23.6682 15.3446L23.673 15.3398Z" fill="white"/>
<mask id="mask1_2401_366" style="mask-type:luminance" maskUnits="userSpaceOnUse" x="1" y="15" width="31" height="57">
<path d="M31.6909 58.9252V58.9343C29.4952 63.3734 26.9406 67.6185 24.0555 71.6373C15.9432 68.4496 8.30778 64.0394 1.48926 58.604C7.39642 46.4346 13.4027 34.0671 19.4091 21.7043C20.5377 19.3857 21.7181 16.9962 23.6778 15.334C29.821 28.7924 31.3415 43.861 31.6956 58.9204L31.6909 58.9252Z" fill="white"/>
</mask>
<g mask="url(#mask1_2401_366)">
<path d="M17.8223 37.3681C20.1408 31.5834 23.2714 26.1245 27.0867 21.1992" stroke="#E4E5EB" stroke-linecap="round" stroke-linejoin="round"/>
<path d="M10.6875 57.6074C14.2904 61.3903 18.5779 64.5114 23.2857 66.7736" stroke="#E4E5EB" stroke-linecap="round" stroke-linejoin="round"/>
<path d="M24.0887 63.8075C21.4019 62.5469 19.0362 60.6156 17.2607 58.2402" stroke="#E4E5EB" stroke-linecap="round" stroke-linejoin="round"/>
</g>
<path d="M1.48926 58.6094C8.30778 64.0399 15.9432 68.4501 24.0555 71.6426" stroke="#797E91" stroke-linecap="round" stroke-linejoin="round"/>
<g style="mix-blend-mode:multiply" opacity="0.09">
<path d="M21.9259 74.4855C22.6484 73.5553 23.3613 72.6014 24.0508 71.6378C26.9406 67.6191 29.4952 63.3692 31.6862 58.9349V58.9258C31.5917 54.8925 31.4123 50.8599 31.0818 46.8555C23.012 57.7027 16.8215 65.7681 13.1289 70.514C15.9385 72.0201 18.8708 73.352 21.9212 74.4855H21.9259Z" fill="#383838"/>
</g>
<path d="M23.673 15.3398C21.7181 17.002 20.5329 19.3915 19.4043 21.7101C13.4027 34.0729 7.39634 46.4405 1.48919 58.6051C1.00754 59.5917 0.530629 60.574 0.0537109 61.5515C6.46143 67.0292 13.7757 71.4544 21.9258 74.4904C22.6483 73.5601 23.3613 72.6062 24.0507 71.6432C26.9406 67.6244 29.4951 63.3745 31.6861 58.9402V58.9306C31.332 43.8716 29.8162 28.8029 23.6682 15.3446L23.673 15.3398Z" stroke="#292F44" stroke-linecap="round" stroke-linejoin="round"/>
<path d="M136.339 15.3398C138.294 17.0021 139.479 19.3915 140.607 21.7101C146.609 34.0777 152.62 46.4405 158.527 58.6051C159.009 59.5917 159.486 60.5741 159.963 61.5515C153.555 67.0293 146.241 71.4539 138.09 74.4904C137.368 73.5601 136.655 72.6062 135.965 71.6432C133.076 67.6245 130.521 63.3746 128.33 58.9403V58.9306C128.685 43.8716 130.2 28.803 136.348 15.3446L136.339 15.3398Z" fill="white"/>
<mask id="mask2_2401_366" style="mask-type:luminance" maskUnits="userSpaceOnUse" x="128" y="15" width="31" height="57">
<path d="M128.321 58.9252V58.9343C130.517 63.3734 133.071 67.6185 135.957 71.6373C144.069 68.4496 151.704 64.0394 158.523 58.604C152.616 46.4346 146.609 34.0671 140.603 21.7043C139.474 19.3857 138.294 16.9962 136.334 15.334C130.191 28.7924 128.67 43.861 128.316 58.9204L128.321 58.9252Z" fill="white"/>
</mask>
<g mask="url(#mask2_2401_366)">
<path d="M142.19 37.3681C139.871 31.5834 136.74 26.1245 132.925 21.1992" stroke="#E4E5EB" stroke-linecap="round" stroke-linejoin="round"/>
<path d="M149.324 57.6074C145.722 61.3903 141.434 64.5114 136.727 66.7736" stroke="#E4E5EB" stroke-linecap="round" stroke-linejoin="round"/>
<path d="M135.923 63.8075C138.61 62.5469 140.975 60.6156 142.751 58.2402" stroke="#E4E5EB" stroke-linecap="round" stroke-linejoin="round"/>
</g>
<path d="M158.527 58.6094C151.709 64.0399 144.074 68.4501 135.961 71.6426" stroke="#797E91" stroke-linecap="round" stroke-linejoin="round"/>
<g style="mix-blend-mode:multiply" opacity="0.09">
<path d="M128.826 48.084C128.557 51.6823 128.406 55.3045 128.321 58.9264V58.9356C130.517 63.3747 133.071 67.6198 135.957 71.6385C136.651 72.6021 137.359 73.5511 138.082 74.4862C141.042 73.3811 143.894 72.0916 146.633 70.6423C141.193 61.3297 134.247 53.4767 128.826 48.084Z" fill="#383838"/>
</g>
<path d="M136.339 15.3398C138.294 17.0021 139.479 19.3915 140.607 21.7101C146.609 34.0777 152.62 46.4405 158.527 58.6051C159.009 59.5917 159.486 60.5741 159.963 61.5515C153.555 67.0293 146.241 71.4545 138.09 74.4904C137.368 73.5601 136.655 72.6062 135.965 71.6432C133.076 67.6245 130.521 63.3746 128.33 58.9403V58.9306C128.685 43.8716 130.2 28.803 136.348 15.3446L136.339 15.3398Z" stroke="#292F44" stroke-linecap="round" stroke-linejoin="round"/>
<path d="M117.748 35.4961H42.6807V46.22H117.748V35.4961Z" fill="#6E48D8"/>
</g>
<defs>
<clipPath id="clip0_2401_366">
<rect width="160" height="160" fill="white"/>
</clipPath>
</defs>
</svg>
