<svg width="2984" height="2984" viewBox="0 0 2984 2984" fill="none" xmlns="http://www.w3.org/2000/svg">
<path d="M2390.95 1351.29C2390.77 1267.71 2390.86 1183.42 2392.8 1099.05C2399.4 818.199 2427.67 537.081 2542.33 286.082C2541.72 285.466 2541.01 285.025 2540.4 284.409C2510.72 259.837 2473.73 246.098 2437.54 232.8C2269.42 171.063 2101.31 109.326 1933.19 47.5892C1908.18 38.43 1883.08 29.2707 1858.07 20.1114C1854.99 28.4781 1851.55 36.6686 1847.68 44.771C1820.29 102.985 1776.26 153.273 1721.75 187.62C1654.64 229.894 1562.09 236.323 1494.01 236.323H1489.61C1421.54 236.323 1328.89 229.894 1261.87 187.62C1207.45 153.273 1163.33 102.985 1135.94 44.771C1132.07 36.6686 1128.63 28.39 1125.55 20.0234C1100.54 29.2707 1075.44 38.43 1050.43 47.6773C882.228 109.414 714.113 171.151 545.998 232.888C509.891 246.186 472.904 259.925 443.226 284.497C442.522 285.113 441.817 285.554 441.289 286.17C555.861 537.169 584.218 818.199 590.823 1099.05V1099.23C592.672 1183.6 592.76 1267.88 592.584 1351.37C591.703 1862.18 590.647 2372.98 589.766 2883.79C589.678 2907.04 589.678 2930.46 589.678 2953.71C889.273 2983.13 1201.29 2983.31 1489.52 2983.31H1494.36C1782.6 2983.31 2094.61 2983.13 2394.21 2953.71C2394.21 2930.46 2394.12 2907.04 2394.12 2883.79C2393.15 2372.98 2392.18 1862.18 2391.13 1351.37L2390.95 1351.29Z" fill="white"/>
<mask id="mask0_2218_13" style="mask-type:luminance" maskUnits="userSpaceOnUse" x="444" y="52" width="2103" height="2867">
<path d="M2394.71 1356.38C2395.68 1867.18 2396.65 2377.99 2397.7 2888.79C2098.28 2918.21 1786.09 2918.38 1497.95 2918.38H1493.1C1204.96 2918.38 892.855 2918.21 593.348 2888.79C594.229 2377.99 595.285 1867.18 596.166 1356.38C596.342 1272.89 596.254 1188.61 594.405 1104.24V1104.06C587.8 823.205 559.531 542.174 444.871 291.176C445.488 290.559 446.192 290.119 446.809 289.502C476.486 264.931 513.473 251.192 549.58 237.893C717.695 176.157 885.81 114.42 1054.01 52.6828C1082.81 135.821 1147.63 204.603 1225.03 246.7C1307.02 291.264 1400.72 305.707 1495.22 305.707H1495.57C1590.15 305.707 1683.85 291.264 1765.75 246.7C1843.25 204.603 1908.06 135.821 1936.86 52.6828C2104.98 114.42 2273.09 176.157 2441.21 237.893C2477.4 251.192 2514.39 264.931 2544.07 289.502C2544.77 290.119 2545.47 290.559 2546 291.176C2431.43 542.174 2403.07 823.381 2396.47 1104.15C2394.53 1188.52 2394.36 1272.8 2394.62 1356.38H2394.71Z" fill="white"/>
</mask>
<g mask="url(#mask0_2218_13)">
<path d="M573.648 964.219C638.728 895.877 722.037 844.973 812.568 818.2" stroke="#E4E5EB" stroke-linecap="round" stroke-linejoin="round"/>
<path d="M578.402 1052.11C649.735 1023.49 725.822 1006.84 802.615 1002.97" stroke="#E4E5EB" stroke-linecap="round" stroke-linejoin="round"/>
<path d="M702.483 1366.43C692.004 1624.57 690.947 1883.05 699.313 2141.27" stroke="#E4E5EB" stroke-linecap="round" stroke-linejoin="round"/>
<path d="M562.639 2752.56C733.836 2758.46 905.122 2764.36 1076.32 2770.26" stroke="#E4E5EB" stroke-linecap="round" stroke-linejoin="round"/>
<path d="M2355.81 284.937C2225.12 216.595 2084.31 167.893 1939.35 140.855" stroke="#E4E5EB" stroke-linecap="round" stroke-linejoin="round"/>
<path d="M2409.71 964.219C2344.63 895.877 2261.32 844.973 2170.79 818.2" stroke="#E4E5EB" stroke-linecap="round" stroke-linejoin="round"/>
<path d="M2404.95 1052.11C2333.62 1023.49 2257.53 1006.84 2180.74 1002.97" stroke="#E4E5EB" stroke-linecap="round" stroke-linejoin="round"/>
<path d="M2280.95 1366.43C2291.43 1624.57 2292.49 1883.05 2284.12 2141.27" stroke="#E4E5EB" stroke-linecap="round" stroke-linejoin="round"/>
<path d="M2420.71 2752.56C2249.51 2758.46 2078.23 2764.36 1907.03 2770.26" stroke="#E4E5EB" stroke-linecap="round" stroke-linejoin="round"/>
<path d="M627.631 284.937C758.319 216.595 899.134 167.893 1044.09 140.855" stroke="#E4E5EB" stroke-linecap="round" stroke-linejoin="round"/>
</g>
<path d="M1933.19 47.5891C1904.39 130.727 1839.58 199.509 1762.08 241.607C1680.18 286.17 1586.48 300.613 1491.9 300.613H1491.55C1397.05 300.613 1303.35 286.17 1221.36 241.607C1143.95 199.509 1079.14 130.727 1050.34 47.5891" stroke="#797E91" stroke-linecap="round" stroke-linejoin="round"/>
<path d="M589.588 2883.7C889.007 2913.11 1201.2 2913.29 1489.34 2913.29H1494.19C1782.33 2913.29 2094.43 2913.11 2393.94 2883.7" stroke="#797E91" stroke-linecap="round" stroke-linejoin="round"/>
<g style="mix-blend-mode:multiply" opacity="0.09">
<path d="M590.645 1098.97V1099.14C592.494 1183.51 592.582 1267.8 592.406 1351.29C591.526 1862.09 590.469 2372.89 589.588 2883.7C589.5 2906.95 589.5 2930.38 589.5 2953.63C608.963 2955.56 628.513 2957.33 648.151 2959V1463.75C648.151 1084.7 618.297 821.634 618.297 821.634C605.088 839.512 592.23 856.862 579.461 873.948C585.625 948.631 588.972 1023.84 590.733 1099.05L590.645 1098.97Z" fill="#383838"/>
</g>
<g style="mix-blend-mode:multiply" opacity="0.09">
<path d="M2393.85 2883.7C2392.88 2372.89 2391.92 1862.09 2390.86 1351.29C2390.68 1267.71 2390.77 1183.42 2392.71 1099.05C2394.29 1031.5 2397.2 963.954 2402.13 896.757C2308.96 804.108 2240 750.297 2240 750.297C2240 750.297 2174.57 1511.92 2167.61 2032.33C2162.42 2425.3 2178.8 2806.37 2187.17 2969.48C2256.38 2965.43 2325.43 2960.32 2393.85 2953.63C2393.85 2930.38 2393.76 2906.95 2393.76 2883.7H2393.85Z" fill="#383838"/>
</g>
<path d="M2390.95 1351.29C2390.77 1267.71 2390.86 1183.42 2392.8 1099.05C2399.4 818.199 2427.67 537.081 2542.33 286.082C2541.72 285.466 2541.01 285.025 2540.4 284.409C2510.72 259.837 2473.73 246.098 2437.54 232.8C2269.42 171.063 2101.31 109.326 1933.19 47.5892C1908.18 38.43 1883.08 29.2707 1858.07 20.1114C1854.99 28.4781 1851.55 36.6686 1847.68 44.771C1820.29 102.985 1776.26 153.273 1721.75 187.62C1654.64 229.894 1562.09 236.323 1494.01 236.323H1489.61C1421.54 236.323 1328.89 229.894 1261.87 187.62C1207.45 153.273 1163.33 102.985 1135.94 44.771C1132.07 36.6686 1128.63 28.39 1125.55 20.0234C1100.54 29.2707 1075.44 38.43 1050.43 47.6773C882.228 109.414 714.113 171.151 545.998 232.888C509.891 246.186 472.904 259.925 443.226 284.497C442.522 285.113 441.817 285.554 441.289 286.17C555.861 537.169 584.218 818.199 590.823 1099.05V1099.23C592.672 1183.6 592.76 1267.88 592.584 1351.37C591.703 1862.18 590.647 2372.98 589.766 2883.79C589.678 2907.04 589.678 2930.46 589.678 2953.71C889.273 2983.13 1201.29 2983.31 1489.52 2983.31H1494.36C1782.6 2983.31 2094.61 2983.13 2394.21 2953.71C2394.21 2930.46 2394.12 2907.04 2394.12 2883.79C2393.15 2372.98 2392.18 1862.18 2391.13 1351.37L2390.95 1351.29Z" stroke="#292F44" stroke-linecap="round" stroke-linejoin="round"/>
<path d="M1847.68 44.683C1820.29 102.897 1776.26 153.185 1721.75 187.532C1654.64 229.806 1562.09 236.235 1494.01 236.235H1489.61C1421.53 236.235 1328.89 229.806 1261.87 187.532C1207.45 153.185 1163.33 102.897 1135.94 44.683C1247.96 93.1213 1378.21 114.698 1490.84 114.698H1492.78C1605.5 114.698 1735.75 93.1213 1847.77 44.683H1847.68Z" fill="#D5DCDE"/>
<path d="M1847.68 44.683C1820.29 102.897 1776.26 153.185 1721.75 187.532C1654.64 229.806 1562.09 236.235 1494.01 236.235H1489.61C1421.53 236.235 1328.89 229.806 1261.87 187.532C1207.45 153.185 1163.33 102.897 1135.94 44.683C1247.96 93.1213 1378.21 114.698 1490.84 114.698H1492.78C1605.5 114.698 1735.75 93.1213 1847.77 44.683H1847.68Z" stroke="#292F44" stroke-linecap="round" stroke-linejoin="round"/>
<path d="M1857.98 20.0231C1854.9 28.3897 1851.47 36.5802 1847.59 44.6826C1735.57 93.121 1605.33 114.698 1492.6 114.698H1490.67C1378.03 114.698 1247.78 93.121 1135.77 44.6826C1131.89 36.5802 1128.46 28.3016 1125.38 19.935C1142.64 13.594 1159.81 7.34102 1177.07 1C1280.9 38.5177 1394.5 48.1173 1491.64 48.1173C1588.77 48.1173 1702.37 38.4296 1806.29 1C1823.55 7.34102 1840.72 13.594 1857.98 20.0231Z" fill="#B3BFC2"/>
<path d="M1857.98 20.0231C1854.9 28.3897 1851.47 36.5802 1847.59 44.6826C1735.57 93.121 1605.33 114.698 1492.6 114.698H1490.67C1378.03 114.698 1247.78 93.121 1135.77 44.6826C1131.89 36.5802 1128.46 28.3016 1125.38 19.935C1142.64 13.594 1159.81 7.34102 1177.07 1C1280.9 38.5177 1394.5 48.1173 1491.64 48.1173C1588.77 48.1173 1702.37 38.4296 1806.29 1C1823.55 7.34102 1840.72 13.594 1857.98 20.0231Z" stroke="#292F44" stroke-linecap="round" stroke-linejoin="round"/>
<path d="M441.112 286.082C404.653 317.083 382.549 361.646 361.502 404.889C249.572 635.455 137.554 866.11 27.3849 1092.98C18.4023 1111.38 9.5078 1129.7 0.613281 1147.93C120.117 1250.09 256.529 1332.62 408.528 1389.24C422.002 1371.89 435.3 1354.1 448.157 1336.14C502.053 1261.19 549.696 1181.93 590.558 1099.23V1099.05C583.953 818.2 555.684 537.169 441.024 286.171L441.112 286.082Z" fill="white"/>
<mask id="mask1_2218_13" style="mask-type:luminance" maskUnits="userSpaceOnUse" x="27" y="285" width="564" height="1052">
<path d="M590.646 1098.97V1099.14C549.696 1181.93 502.053 1261.1 448.245 1336.05C296.95 1276.6 154.55 1194.35 27.3848 1092.98C137.554 866.021 249.572 635.367 361.59 404.8C382.637 361.558 404.653 316.995 441.2 285.994C555.772 536.993 584.129 818.023 590.734 1098.88L590.646 1098.97Z" fill="white"/>
</mask>
<g mask="url(#mask1_2218_13)">
<path d="M331.994 696.927C375.234 589.042 433.621 487.233 504.777 395.377" stroke="#E4E5EB" stroke-linecap="round" stroke-linejoin="round"/>
<path d="M198.93 1074.39C266.123 1144.94 346.086 1203.15 433.886 1245.34" stroke="#E4E5EB" stroke-linecap="round" stroke-linejoin="round"/>
<path d="M448.857 1190.03C398.748 1166.52 354.628 1130.5 321.516 1086.2" stroke="#E4E5EB" stroke-linecap="round" stroke-linejoin="round"/>
</g>
<path d="M27.3848 1093.07C154.55 1194.35 296.95 1276.6 448.245 1336.14" stroke="#797E91" stroke-linecap="round" stroke-linejoin="round"/>
<g style="mix-blend-mode:multiply" opacity="0.09">
<path d="M408.529 1389.16C422.003 1371.81 435.301 1354.02 448.158 1336.05C502.054 1261.1 549.697 1181.84 590.559 1099.14V1098.97C588.797 1023.75 585.451 948.542 579.286 873.859C428.784 1076.16 313.331 1226.58 244.465 1315.09C296.863 1343.18 351.551 1368.02 408.441 1389.16H408.529Z" fill="#383838"/>
</g>
<path d="M441.112 286.082C404.653 317.083 382.549 361.646 361.502 404.889C249.572 635.455 137.554 866.11 27.3849 1092.98C18.4023 1111.38 9.5078 1129.7 0.613281 1147.93C120.117 1250.09 256.529 1332.62 408.528 1389.24C422.002 1371.89 435.3 1354.1 448.157 1336.14C502.053 1261.19 549.696 1181.93 590.558 1099.23V1099.05C583.953 818.2 555.684 537.169 441.024 286.171L441.112 286.082Z" stroke="#292F44" stroke-linecap="round" stroke-linejoin="round"/>
<path d="M2542.33 286.082C2578.79 317.083 2600.9 361.646 2621.94 404.888C2733.87 635.543 2845.98 866.11 2956.15 1092.98C2965.13 1111.38 2974.03 1129.7 2982.92 1147.93C2863.42 1250.09 2727.01 1332.62 2575.01 1389.24C2561.53 1371.89 2548.23 1354.1 2535.38 1336.14C2481.48 1261.19 2433.84 1181.93 2392.98 1099.23V1099.05C2399.58 818.2 2427.85 537.169 2542.51 286.17L2542.33 286.082Z" fill="white"/>
<mask id="mask2_2218_13" style="mask-type:luminance" maskUnits="userSpaceOnUse" x="2392" y="285" width="565" height="1052">
<path d="M2392.8 1098.97V1099.14C2433.75 1181.93 2481.39 1261.1 2535.2 1336.05C2686.49 1276.6 2828.89 1194.35 2956.06 1092.98C2845.89 866.021 2733.87 635.367 2621.85 404.8C2600.81 361.558 2578.79 316.995 2542.24 285.994C2427.67 536.993 2399.32 818.023 2392.71 1098.88L2392.8 1098.97Z" fill="white"/>
</mask>
<g mask="url(#mask2_2218_13)">
<path d="M2651.45 696.927C2608.21 589.042 2549.82 487.233 2478.67 395.377" stroke="#E4E5EB" stroke-linecap="round" stroke-linejoin="round"/>
<path d="M2784.51 1074.39C2717.32 1144.94 2637.36 1203.15 2549.56 1245.34" stroke="#E4E5EB" stroke-linecap="round" stroke-linejoin="round"/>
<path d="M2534.59 1190.03C2584.7 1166.52 2628.82 1130.5 2661.93 1086.2" stroke="#E4E5EB" stroke-linecap="round" stroke-linejoin="round"/>
</g>
<path d="M2956.15 1093.07C2828.98 1194.35 2686.58 1276.6 2535.29 1336.14" stroke="#797E91" stroke-linecap="round" stroke-linejoin="round"/>
<g style="mix-blend-mode:multiply" opacity="0.09">
<path d="M2402.22 896.758C2397.2 963.867 2394.39 1031.42 2392.8 1098.97V1099.14C2433.75 1181.93 2481.39 1261.1 2535.2 1336.05C2548.15 1354.02 2561.36 1371.72 2574.83 1389.16C2630.05 1368.55 2683.24 1344.5 2734.32 1317.47C2632.86 1143.79 2503.32 997.333 2402.22 896.758Z" fill="#383838"/>
</g>
<path d="M2542.33 286.082C2578.79 317.083 2600.9 361.646 2621.94 404.888C2733.87 635.543 2845.98 866.11 2956.15 1092.98C2965.13 1111.38 2974.03 1129.7 2982.92 1147.93C2863.42 1250.09 2727.01 1332.62 2575.01 1389.24C2561.53 1371.89 2548.23 1354.1 2535.38 1336.14C2481.48 1261.19 2433.84 1181.93 2392.98 1099.23V1099.05C2399.58 818.2 2427.85 537.169 2542.51 286.17L2542.33 286.082Z" stroke="#292F44" stroke-linecap="round" stroke-linejoin="round"/>
<rect x="795.113" y="504.5" width="1393" height="1743" stroke="black" stroke-width="7"/>
<rect x="1691.61" y="601" width="450" height="150" fill="#6E48D8"/>
</svg>
