<svg width="2984" height="2984" viewBox="0 0 2984 2984" fill="none" xmlns="http://www.w3.org/2000/svg">
<path d="M2391.34 1351.29C2391.16 1267.71 2391.25 1183.42 2393.19 1099.05C2399.79 818.2 2428.06 537.081 2542.72 286.082C2542.1 285.466 2541.4 285.025 2540.78 284.409C2511.1 259.837 2474.12 246.098 2437.92 232.8C2269.81 171.063 2101.69 109.326 1933.58 47.5893C1908.57 38.43 1883.47 29.2708 1858.46 20.1115C1855.38 28.4781 1851.94 36.6686 1848.07 44.771C1820.68 102.985 1776.65 153.273 1722.13 187.62C1655.03 229.894 1562.47 236.323 1494.4 236.323H1490C1421.92 236.323 1329.28 229.894 1262.26 187.62C1207.84 153.273 1163.72 102.985 1136.33 44.771C1132.45 36.6686 1129.02 28.3901 1125.94 20.0234C1100.93 29.2708 1075.83 38.43 1050.82 47.6773C882.615 109.414 714.5 171.151 546.385 232.888C510.278 246.187 473.291 259.925 443.613 284.497C442.909 285.113 442.204 285.554 441.676 286.17C556.248 537.169 584.605 818.2 591.209 1099.05V1099.23C593.059 1183.6 593.147 1267.88 592.971 1351.37C592.09 1862.18 591.033 2372.98 590.153 2883.79C590.065 2907.04 590.065 2930.46 590.065 2953.71C889.66 2983.13 1201.67 2983.31 1489.91 2983.31H1494.75C1782.99 2983.31 2095 2983.13 2394.59 2953.71C2394.59 2930.46 2394.51 2907.04 2394.51 2883.79C2393.54 2372.98 2392.57 1862.18 2391.51 1351.37L2391.34 1351.29Z" fill="white"/>
<mask id="mask0_2218_5" style="mask-type:luminance" maskUnits="userSpaceOnUse" x="445" y="52" width="2102" height="2867">
<path d="M2395.09 1356.38C2396.06 1867.18 2397.03 2377.99 2398.09 2888.79C2098.67 2918.21 1786.48 2918.38 1498.33 2918.38H1493.49C1205.34 2918.38 893.242 2918.21 593.735 2888.79C594.615 2377.99 595.672 1867.18 596.553 1356.38C596.729 1272.89 596.641 1188.61 594.791 1104.24V1104.06C588.187 823.205 559.918 542.175 445.258 291.176C445.874 290.559 446.579 290.119 447.195 289.502C476.873 264.931 513.86 251.192 549.967 237.894C718.082 176.157 886.197 114.42 1054.4 52.6829C1083.2 135.821 1148.01 204.603 1225.42 246.701C1307.41 291.264 1401.11 305.707 1495.6 305.707H1495.96C1590.54 305.707 1684.24 291.264 1766.14 246.701C1843.63 204.603 1908.45 135.821 1937.25 52.6829C2105.36 114.42 2273.48 176.157 2441.59 237.894C2477.79 251.192 2514.77 264.931 2544.45 289.502C2545.16 290.119 2545.86 290.559 2546.39 291.176C2431.82 542.175 2403.46 823.381 2396.86 1104.15C2394.92 1188.52 2394.74 1272.8 2395.01 1356.38H2395.09Z" fill="white"/>
</mask>
<g mask="url(#mask0_2218_5)">
<path d="M574.035 964.22C639.115 895.877 722.424 844.973 812.954 818.2" stroke="#E4E5EB" stroke-linecap="round" stroke-linejoin="round"/>
<path d="M578.789 1052.11C650.121 1023.49 726.209 1006.85 803.001 1002.97" stroke="#E4E5EB" stroke-linecap="round" stroke-linejoin="round"/>
<path d="M702.87 1366.43C692.39 1624.57 691.334 1883.05 699.7 2141.27" stroke="#E4E5EB" stroke-linecap="round" stroke-linejoin="round"/>
<path d="M563.025 2752.56C734.223 2758.46 905.508 2764.36 1076.71 2770.26" stroke="#E4E5EB" stroke-linecap="round" stroke-linejoin="round"/>
<path d="M2356.2 284.937C2225.51 216.595 2084.69 167.893 1939.74 140.855" stroke="#E4E5EB" stroke-linecap="round" stroke-linejoin="round"/>
<path d="M2410.09 964.22C2345.01 895.877 2261.7 844.973 2171.17 818.2" stroke="#E4E5EB" stroke-linecap="round" stroke-linejoin="round"/>
<path d="M2405.34 1052.11C2334 1023.49 2257.92 1006.85 2181.12 1002.97" stroke="#E4E5EB" stroke-linecap="round" stroke-linejoin="round"/>
<path d="M2281.34 1366.43C2291.82 1624.57 2292.87 1883.05 2284.51 2141.27" stroke="#E4E5EB" stroke-linecap="round" stroke-linejoin="round"/>
<path d="M2421.1 2752.56C2249.9 2758.46 2078.62 2764.36 1907.42 2770.26" stroke="#E4E5EB" stroke-linecap="round" stroke-linejoin="round"/>
<path d="M628.018 284.937C758.705 216.595 899.521 167.893 1044.47 140.855" stroke="#E4E5EB" stroke-linecap="round" stroke-linejoin="round"/>
</g>
<path d="M1933.58 47.5891C1904.78 130.727 1839.96 199.509 1762.47 241.607C1680.57 286.17 1586.87 300.613 1492.28 300.613H1491.93C1397.44 300.613 1303.74 286.17 1221.75 241.607C1144.34 199.509 1079.53 130.727 1050.73 47.5891" stroke="#797E91" stroke-linecap="round" stroke-linejoin="round"/>
<path d="M589.975 2883.7C889.394 2913.11 1201.58 2913.29 1489.73 2913.29H1494.57C1782.72 2913.29 2094.82 2913.11 2394.33 2883.7" stroke="#797E91" stroke-linecap="round" stroke-linejoin="round"/>
<g style="mix-blend-mode:multiply" opacity="0.09">
<path d="M591.032 1098.97V1099.14C592.881 1183.51 592.969 1267.8 592.793 1351.29C591.912 1862.09 590.856 2372.89 589.975 2883.7C589.887 2906.95 589.887 2930.38 589.887 2953.63C609.349 2955.56 628.9 2957.33 648.538 2959V1463.75C648.538 1084.7 618.684 821.634 618.684 821.634C605.474 839.512 592.617 856.862 579.848 873.948C586.012 948.631 589.359 1023.84 591.12 1099.05L591.032 1098.97Z" fill="#383838"/>
</g>
<g style="mix-blend-mode:multiply" opacity="0.09">
<path d="M2394.24 2883.7C2393.27 2372.89 2392.3 1862.09 2391.25 1351.29C2391.07 1267.71 2391.16 1183.42 2393.09 1099.05C2394.68 1031.5 2397.59 963.954 2402.52 896.757C2309.35 804.108 2240.39 750.297 2240.39 750.297C2240.39 750.297 2174.96 1511.92 2168 2032.33C2162.81 2425.3 2179.19 2806.37 2187.55 2969.48C2256.77 2965.43 2325.81 2960.32 2394.24 2953.63C2394.24 2930.38 2394.15 2906.95 2394.15 2883.7H2394.24Z" fill="#383838"/>
</g>
<path d="M2391.34 1351.29C2391.16 1267.71 2391.25 1183.42 2393.19 1099.05C2399.79 818.2 2428.06 537.081 2542.72 286.082C2542.1 285.466 2541.4 285.025 2540.78 284.409C2511.1 259.837 2474.12 246.098 2437.92 232.8C2269.81 171.063 2101.69 109.326 1933.58 47.5893C1908.57 38.43 1883.47 29.2708 1858.46 20.1115C1855.38 28.4781 1851.94 36.6686 1848.07 44.771C1820.68 102.985 1776.65 153.273 1722.13 187.62C1655.03 229.894 1562.47 236.323 1494.4 236.323H1490C1421.92 236.323 1329.28 229.894 1262.26 187.62C1207.84 153.273 1163.72 102.985 1136.33 44.771C1132.45 36.6686 1129.02 28.3901 1125.94 20.0234C1100.93 29.2708 1075.83 38.43 1050.82 47.6773C882.615 109.414 714.5 171.151 546.385 232.888C510.278 246.187 473.291 259.925 443.613 284.497C442.909 285.113 442.204 285.554 441.676 286.17C556.248 537.169 584.605 818.2 591.209 1099.05V1099.23C593.059 1183.6 593.147 1267.88 592.971 1351.37C592.09 1862.18 591.033 2372.98 590.153 2883.79C590.065 2907.04 590.065 2930.46 590.065 2953.71C889.66 2983.13 1201.67 2983.31 1489.91 2983.31H1494.75C1782.99 2983.31 2095 2983.13 2394.59 2953.71C2394.59 2930.46 2394.51 2907.04 2394.51 2883.79C2393.54 2372.98 2392.57 1862.18 2391.51 1351.37L2391.34 1351.29Z" stroke="#292F44" stroke-linecap="round" stroke-linejoin="round"/>
<path d="M1848.07 44.6829C1820.68 102.897 1776.65 153.185 1722.13 187.532C1655.03 229.805 1562.47 236.235 1494.4 236.235H1490C1421.92 236.235 1329.28 229.805 1262.26 187.532C1207.84 153.185 1163.72 102.897 1136.33 44.6829C1248.35 93.1212 1378.59 114.698 1491.23 114.698H1493.17C1605.89 114.698 1736.14 93.1212 1848.15 44.6829H1848.07Z" fill="#D5DCDE"/>
<path d="M1848.07 44.6829C1820.68 102.897 1776.65 153.185 1722.13 187.532C1655.03 229.805 1562.47 236.235 1494.4 236.235H1490C1421.92 236.235 1329.28 229.805 1262.26 187.532C1207.84 153.185 1163.72 102.897 1136.33 44.6829C1248.35 93.1212 1378.59 114.698 1491.23 114.698H1493.17C1605.89 114.698 1736.14 93.1212 1848.15 44.6829H1848.07Z" stroke="#292F44" stroke-linecap="round" stroke-linejoin="round"/>
<path d="M1858.37 20.0231C1855.29 28.3897 1851.85 36.5802 1847.98 44.6826C1735.96 93.121 1605.71 114.698 1492.99 114.698H1491.05C1378.42 114.698 1248.17 93.121 1136.15 44.6826C1132.28 36.5802 1128.84 28.3016 1125.76 19.935C1143.02 13.594 1160.19 7.34102 1177.46 1C1281.28 38.5177 1394.89 48.1173 1492.02 48.1173C1589.16 48.1173 1702.76 38.4296 1806.68 1C1823.94 7.34102 1841.11 13.594 1858.37 20.0231Z" fill="#B3BFC2"/>
<path d="M1858.37 20.0231C1855.29 28.3897 1851.85 36.5802 1847.98 44.6826C1735.96 93.121 1605.71 114.698 1492.99 114.698H1491.05C1378.42 114.698 1248.17 93.121 1136.15 44.6826C1132.28 36.5802 1128.84 28.3016 1125.76 19.935C1143.02 13.594 1160.19 7.34102 1177.46 1C1281.28 38.5177 1394.89 48.1173 1492.02 48.1173C1589.16 48.1173 1702.76 38.4296 1806.68 1C1823.94 7.34102 1841.11 13.594 1858.37 20.0231Z" stroke="#292F44" stroke-linecap="round" stroke-linejoin="round"/>
<path d="M441.499 286.083C405.04 317.083 382.936 361.646 361.889 404.889C249.958 635.455 137.94 866.11 27.7716 1092.98C18.789 1111.38 9.89452 1129.7 1 1147.93C120.504 1250.09 256.916 1332.62 408.915 1389.24C422.389 1371.89 435.687 1354.1 448.544 1336.14C502.44 1261.19 550.083 1181.93 590.944 1099.23V1099.05C584.34 818.2 556.071 537.169 441.411 286.171L441.499 286.083Z" fill="white"/>
<mask id="mask1_2218_5" style="mask-type:luminance" maskUnits="userSpaceOnUse" x="27" y="285" width="565" height="1052">
<path d="M591.032 1098.97V1099.14C550.082 1181.93 502.439 1261.1 448.632 1336.05C297.337 1276.6 154.937 1194.35 27.7715 1092.98C137.94 866.021 249.958 635.367 361.976 404.8C383.024 361.558 405.04 316.995 441.587 285.994C556.159 536.993 584.516 818.023 591.12 1098.88L591.032 1098.97Z" fill="white"/>
</mask>
<g mask="url(#mask1_2218_5)">
<path d="M332.381 696.927C375.621 589.042 434.007 487.233 505.163 395.377" stroke="#E4E5EB" stroke-linecap="round" stroke-linejoin="round"/>
<path d="M199.316 1074.39C266.51 1144.94 346.472 1203.15 434.273 1245.34" stroke="#E4E5EB" stroke-linecap="round" stroke-linejoin="round"/>
<path d="M449.244 1190.03C399.135 1166.52 355.015 1130.5 321.902 1086.2" stroke="#E4E5EB" stroke-linecap="round" stroke-linejoin="round"/>
</g>
<path d="M27.7715 1093.07C154.937 1194.35 297.337 1276.6 448.632 1336.14" stroke="#797E91" stroke-linecap="round" stroke-linejoin="round"/>
<g style="mix-blend-mode:multiply" opacity="0.09">
<path d="M408.916 1389.16C422.39 1371.81 435.687 1354.02 448.545 1336.05C502.44 1261.1 550.083 1181.84 590.945 1099.14V1098.97C589.184 1023.75 585.837 948.542 579.673 873.859C429.171 1076.16 313.718 1226.58 244.852 1315.09C297.25 1343.18 351.938 1368.02 408.828 1389.16H408.916Z" fill="#383838"/>
</g>
<path d="M441.499 286.083C405.04 317.083 382.936 361.646 361.889 404.889C249.958 635.455 137.94 866.11 27.7716 1092.98C18.789 1111.38 9.89452 1129.7 1 1147.93C120.504 1250.09 256.916 1332.62 408.915 1389.24C422.389 1371.89 435.687 1354.1 448.544 1336.14C502.44 1261.19 550.082 1181.93 590.944 1099.23V1099.05C584.34 818.2 556.071 537.169 441.411 286.171L441.499 286.083Z" stroke="#292F44" stroke-linecap="round" stroke-linejoin="round"/>
<path d="M2542.72 286.082C2579.18 317.083 2601.28 361.646 2622.33 404.888C2734.26 635.543 2846.37 866.109 2956.54 1092.98C2965.52 1111.38 2974.41 1129.7 2983.31 1147.93C2863.8 1250.09 2727.39 1332.61 2575.39 1389.24C2561.92 1371.89 2548.62 1354.1 2535.76 1336.14C2481.87 1261.19 2434.23 1181.93 2393.36 1099.23V1099.05C2399.97 818.2 2428.24 537.169 2542.9 286.17L2542.72 286.082Z" fill="white"/>
<mask id="mask2_2218_5" style="mask-type:luminance" maskUnits="userSpaceOnUse" x="2393" y="285" width="564" height="1052">
<path d="M2393.19 1098.97V1099.14C2434.14 1181.93 2481.78 1261.1 2535.59 1336.05C2686.88 1276.6 2829.28 1194.35 2956.45 1092.98C2846.28 866.021 2734.26 635.367 2622.24 404.8C2601.19 361.558 2579.18 316.995 2542.63 285.994C2428.06 536.993 2399.7 818.023 2393.1 1098.88L2393.19 1098.97Z" fill="white"/>
</mask>
<g mask="url(#mask2_2218_5)">
<path d="M2651.84 696.927C2608.6 589.042 2550.21 487.233 2479.05 395.377" stroke="#E4E5EB" stroke-linecap="round" stroke-linejoin="round"/>
<path d="M2784.9 1074.39C2717.71 1144.94 2637.75 1203.15 2549.95 1245.34" stroke="#E4E5EB" stroke-linecap="round" stroke-linejoin="round"/>
<path d="M2534.97 1190.03C2585.08 1166.52 2629.2 1130.5 2662.32 1086.2" stroke="#E4E5EB" stroke-linecap="round" stroke-linejoin="round"/>
</g>
<path d="M2956.53 1093.07C2829.37 1194.35 2686.97 1276.6 2535.67 1336.14" stroke="#797E91" stroke-linecap="round" stroke-linejoin="round"/>
<g style="mix-blend-mode:multiply" opacity="0.09">
<path d="M2402.61 896.758C2397.59 963.867 2394.77 1031.42 2393.19 1098.97V1099.14C2434.14 1181.93 2481.78 1261.1 2535.59 1336.05C2548.53 1354.02 2561.74 1371.72 2575.22 1389.16C2630.43 1368.55 2683.62 1344.5 2734.7 1317.47C2633.25 1143.79 2503.71 997.333 2402.61 896.758Z" fill="#383838"/>
</g>
<path d="M2542.72 286.082C2579.18 317.083 2601.28 361.646 2622.33 404.888C2734.26 635.543 2846.37 866.11 2956.54 1092.98C2965.52 1111.38 2974.41 1129.7 2983.31 1147.93C2863.8 1250.09 2727.39 1332.62 2575.39 1389.24C2561.92 1371.89 2548.62 1354.1 2535.76 1336.14C2481.87 1261.19 2434.23 1181.93 2393.36 1099.23V1099.05C2399.97 818.2 2428.24 537.169 2542.9 286.17L2542.72 286.082Z" stroke="#292F44" stroke-linecap="round" stroke-linejoin="round"/>
<rect x="795.5" y="504.5" width="1393" height="1746" stroke="black" stroke-width="7"/>
<rect x="796" y="750" width="1400" height="400" fill="#6E48D8"/>
</svg>
