<svg width="160" height="160" viewBox="0 0 160 160" fill="none" xmlns="http://www.w3.org/2000/svg">
<g clip-path="url(#clip0_2401_626)">
<path d="M128.195 72.4558C128.186 67.9743 128.191 63.4547 128.294 58.9309C128.649 43.8718 130.164 28.7985 136.31 15.3401C136.277 15.3071 136.239 15.2834 136.206 15.2504C134.615 13.9329 132.632 13.1962 130.692 12.4832C121.681 9.17286 112.67 5.86256 103.659 2.55228C102.318 2.06117 100.973 1.57005 99.6321 1.07894C99.467 1.52755 99.2832 1.96672 99.0752 2.40117C97.6076 5.52256 95.247 8.21897 92.3252 10.0606C88.7285 12.3273 83.7672 12.6721 80.1185 12.6721H79.8822C76.2335 12.6721 71.2674 12.3273 67.6755 10.0606C64.758 8.21897 62.3931 5.52256 60.9255 2.40117C60.7175 1.96672 60.5337 1.52283 60.3681 1.07422C59.0275 1.57005 57.6826 2.06117 56.3415 2.557C47.3259 5.86728 38.3146 9.17758 29.3035 12.4879C27.3681 13.2009 25.3856 13.9376 23.7948 15.2551C23.757 15.2881 23.7193 15.3118 23.6909 15.3448C29.8321 28.8032 31.3521 43.8718 31.7061 58.9309V58.9405C31.8052 63.4644 31.81 67.9834 31.8005 72.4601C31.7534 99.8494 31.6967 127.238 31.6495 154.627C31.6448 155.874 31.6448 157.13 31.6448 158.376C47.7035 159.954 64.4278 159.964 79.8773 159.964H80.1373C95.5868 159.964 112.312 159.954 128.37 158.376C128.37 157.13 128.365 155.874 128.365 154.627C128.314 127.238 128.262 99.8494 128.205 72.4601L128.195 72.4558Z" fill="white"/>
<mask id="mask0_2401_626" style="mask-type:luminance" maskUnits="userSpaceOnUse" x="23" y="2" width="114" height="155">
<path d="M128.397 72.7276C128.449 100.116 128.501 127.506 128.557 154.894C112.508 156.472 95.7743 156.481 80.3291 156.481H80.0697C64.6244 156.481 47.8954 156.472 31.8414 154.894C31.8886 127.506 31.9453 100.116 31.9924 72.7276C32.0019 68.2509 31.9971 63.7318 31.898 59.208V59.1983C31.544 44.1391 30.0287 29.0704 23.8828 15.6121C23.9159 15.579 23.9536 15.5554 23.9867 15.5223C25.5775 14.2048 27.56 13.4681 29.4954 12.7551C38.5065 9.44482 47.5178 6.13452 56.5339 2.82422C58.077 7.28203 61.5515 10.9701 65.7008 13.2273C70.0955 15.6168 75.118 16.3912 80.1828 16.3912H80.2015C85.2711 16.3912 90.2936 15.6168 94.6835 13.2273C98.8376 10.9701 102.312 7.28203 103.855 2.82422C112.867 6.13452 121.878 9.44482 130.889 12.7551C132.829 13.4681 134.812 14.2048 136.403 15.5223C136.44 15.5554 136.478 15.579 136.507 15.6121C130.365 29.0704 128.845 44.1485 128.491 59.2032C128.388 63.727 128.378 68.2461 128.392 72.7276H128.397Z" fill="white"/>
</mask>
<g mask="url(#mask0_2401_626)">
<path d="M30.7856 51.7005C34.274 48.0361 38.7395 45.3066 43.592 43.8711" stroke="#E4E5EB" stroke-linecap="round" stroke-linejoin="round"/>
<path d="M31.0405 56.4142C34.864 54.8796 38.9424 53.9868 43.0586 53.7793" stroke="#E4E5EB" stroke-linecap="round" stroke-linejoin="round"/>
<path d="M37.6912 73.2676C37.1295 87.1089 37.0728 100.968 37.5213 114.814" stroke="#E4E5EB" stroke-linecap="round" stroke-linejoin="round"/>
<path d="M30.1953 147.59C39.3718 147.906 48.5529 148.223 57.7291 148.539" stroke="#E4E5EB" stroke-linecap="round" stroke-linejoin="round"/>
<path d="M126.312 15.2783C119.306 11.6139 111.759 9.00249 103.989 7.55273" stroke="#E4E5EB" stroke-linecap="round" stroke-linejoin="round"/>
<path d="M129.2 51.7005C125.712 48.0361 121.247 45.3066 116.394 43.8711" stroke="#E4E5EB" stroke-linecap="round" stroke-linejoin="round"/>
<path d="M128.946 56.4142C125.122 54.8796 121.044 53.9868 116.928 53.7793" stroke="#E4E5EB" stroke-linecap="round" stroke-linejoin="round"/>
<path d="M122.299 73.2676C122.861 87.1089 122.917 100.968 122.469 114.814" stroke="#E4E5EB" stroke-linecap="round" stroke-linejoin="round"/>
<path d="M129.791 147.59C120.614 147.906 111.433 148.223 102.256 148.539" stroke="#E4E5EB" stroke-linecap="round" stroke-linejoin="round"/>
<path d="M33.6792 15.2783C40.6843 11.6139 48.2321 9.00249 56.0018 7.55273" stroke="#E4E5EB" stroke-linecap="round" stroke-linejoin="round"/>
</g>
<path d="M103.658 2.55078C102.115 7.00858 98.6407 10.6966 94.4866 12.9539C90.0966 15.3433 85.0742 16.1177 80.0046 16.1177H79.9858C74.921 16.1177 69.8981 15.3433 65.5038 12.9539C61.3545 10.6966 57.8801 7.00858 56.3369 2.55078" stroke="#797E91" stroke-linecap="round" stroke-linejoin="round"/>
<path d="M31.6396 154.621C47.689 156.198 64.4228 156.208 79.868 156.208H80.1274C95.5726 156.208 112.302 156.198 128.355 154.621" stroke="#797E91" stroke-linecap="round" stroke-linejoin="round"/>
<g style="mix-blend-mode:multiply" opacity="0.09">
<path d="M31.6966 58.9253V58.9344C31.7958 63.4582 31.8005 67.9778 31.7911 72.4545C31.7439 99.8432 31.6872 127.232 31.64 154.621C31.6353 155.868 31.6353 157.124 31.6353 158.371C32.6785 158.474 33.7264 158.569 34.7791 158.659V78.4845C34.7791 58.1601 33.1789 44.0547 33.1789 44.0547C32.4708 45.0133 31.7817 45.9436 31.0972 46.8597C31.4276 50.8642 31.607 54.8968 31.7014 58.9295L31.6966 58.9253Z" fill="#383838"/>
</g>
<g style="mix-blend-mode:multiply" opacity="0.09">
<path d="M128.351 154.622C128.299 127.233 128.247 99.844 128.19 72.4553C128.181 67.9738 128.186 63.4542 128.29 58.9304C128.375 55.3084 128.53 51.6866 128.795 48.0836C123.8 43.1158 120.105 40.2305 120.105 40.2305C120.105 40.2305 116.598 81.0682 116.224 108.972C115.946 130.043 116.824 150.476 117.272 159.222C120.983 159.004 124.683 158.73 128.351 158.372C128.351 157.125 128.346 155.869 128.346 154.622H128.351Z" fill="#383838"/>
</g>
<path d="M128.195 72.4558C128.186 67.9743 128.191 63.4547 128.294 58.9309C128.649 43.8718 130.164 28.7985 136.31 15.3401C136.277 15.3071 136.239 15.2834 136.206 15.2504C134.615 13.9329 132.632 13.1962 130.692 12.4832C121.681 9.17286 112.67 5.86256 103.659 2.55228C102.318 2.06117 100.973 1.57005 99.6321 1.07894C99.467 1.52755 99.2832 1.96672 99.0752 2.40117C97.6076 5.52256 95.247 8.21897 92.3252 10.0606C88.7285 12.3273 83.7672 12.6721 80.1186 12.6721H79.8822C76.2335 12.6721 71.2674 12.3273 67.6755 10.0606C64.758 8.21897 62.3931 5.52256 60.9255 2.40117C60.7175 1.96672 60.5337 1.52283 60.3681 1.07422C59.0275 1.57005 57.6826 2.06117 56.3415 2.557C47.3259 5.86728 38.3146 9.17757 29.3035 12.4879C27.3681 13.2009 25.3856 13.9376 23.7948 15.2551C23.757 15.2881 23.7193 15.3118 23.6909 15.3448C29.8321 28.8032 31.3521 43.8718 31.7061 58.9309V58.9405C31.8052 63.4644 31.81 67.9834 31.8005 72.4601C31.7534 99.8494 31.6967 127.238 31.6495 154.627C31.6448 155.874 31.6448 157.13 31.6448 158.376C47.7035 159.954 64.4278 159.964 79.8773 159.964H80.1373C95.5868 159.964 112.312 159.954 128.37 158.376C128.37 157.13 128.365 155.874 128.365 154.627C128.314 127.238 128.262 99.8494 128.205 72.4601L128.195 72.4558Z" stroke="#292F44" stroke-linecap="round" stroke-linejoin="round"/>
<path d="M99.075 2.39648C97.6074 5.51788 95.2468 8.21429 92.325 10.0559C88.7283 12.3226 83.767 12.6674 80.1183 12.6674H79.8819C76.2333 12.6674 71.2677 12.3226 67.6753 10.0559C64.7578 8.21429 62.3929 5.51788 60.9253 2.39648C66.9292 4.99371 73.9108 6.15064 79.9484 6.15064H80.0519C86.0943 6.15064 93.0754 4.99371 99.0798 2.39648H99.075Z" fill="#D5DCDE"/>
<path d="M99.075 2.39648C97.6074 5.51788 95.2468 8.21429 92.325 10.0559C88.7283 12.3227 83.767 12.6674 80.1183 12.6674H79.8819C76.2333 12.6674 71.2677 12.3227 67.6753 10.0559C64.7578 8.21429 62.3929 5.51788 60.9253 2.39648C66.9292 4.99371 73.9108 6.15064 79.9484 6.15064H80.0519C86.0943 6.15064 93.0754 4.99371 99.0798 2.39648H99.075Z" stroke="#292F44" stroke-linecap="round" stroke-linejoin="round"/>
<path d="M99.6278 1.07274C99.4627 1.52135 99.2783 1.96052 99.0709 2.39496C93.0664 4.9922 86.0849 6.14914 80.0429 6.14914H79.9389C73.9018 6.14914 66.9202 4.9922 60.9158 2.39496C60.7084 1.96052 60.524 1.51663 60.3589 1.06802C61.284 0.728016 62.2044 0.392735 63.1295 0.0527344C68.695 2.06441 74.7841 2.57913 79.9909 2.57913C85.1972 2.57913 91.2869 2.05968 96.8566 0.0527344C97.7817 0.392735 98.7026 0.728016 99.6278 1.07274Z" fill="#B3BFC2"/>
<path d="M99.6278 1.07274C99.4627 1.52135 99.2783 1.96052 99.0709 2.39496C93.0664 4.9922 86.0849 6.14914 80.0429 6.14914H79.9389C73.9018 6.14914 66.9202 4.9922 60.9158 2.39496C60.7084 1.96052 60.524 1.51663 60.3589 1.06802C61.284 0.728016 62.2044 0.392735 63.1295 0.0527344C68.695 2.06441 74.7841 2.57913 79.9909 2.57913C85.1972 2.57913 91.2869 2.05968 96.8566 0.0527344C97.7817 0.392735 98.7026 0.728016 99.6278 1.07274Z" stroke="#292F44" stroke-linecap="round" stroke-linejoin="round"/>
<path d="M23.6812 15.3398C21.7269 17.0021 20.5421 19.3915 19.4139 21.7102C13.4143 34.073 7.41001 46.4405 1.50482 58.6051C1.02334 59.5917 0.546585 60.5741 0.0698242 61.5515C6.47536 67.0293 13.7872 71.4545 21.9346 74.4904C22.6569 73.5601 23.3696 72.6062 24.0588 71.6432C26.9476 67.6245 29.5014 63.3746 31.6916 58.9403V58.9306C31.3376 43.8716 29.8224 28.803 23.6764 15.3446L23.6812 15.3398Z" fill="white"/>
<mask id="mask1_2401_626" style="mask-type:luminance" maskUnits="userSpaceOnUse" x="1" y="15" width="31" height="57">
<path d="M31.6964 58.9252V58.9343C29.5014 63.3734 26.9477 67.6185 24.0636 71.6373C15.954 68.4496 8.32109 64.0394 1.50488 58.604C7.41008 46.4346 13.4144 34.0671 19.4187 21.7043C20.5469 19.3857 21.727 16.9962 23.6859 15.334C29.8271 28.7924 31.3471 43.861 31.7011 58.9204L31.6964 58.9252Z" fill="white"/>
</mask>
<g mask="url(#mask1_2401_626)">
<path d="M17.8325 37.3681C20.1502 31.5834 23.2798 26.1245 27.0939 21.1992" stroke="#E4E5EB" stroke-linecap="round" stroke-linejoin="round"/>
<path d="M10.7002 57.6074C14.3018 61.3903 18.588 64.5114 23.2942 66.7736" stroke="#E4E5EB" stroke-linecap="round" stroke-linejoin="round"/>
<path d="M24.0966 63.8075C21.4108 62.5469 19.0458 60.6156 17.271 58.2402" stroke="#E4E5EB" stroke-linecap="round" stroke-linejoin="round"/>
</g>
<path d="M1.50488 58.6094C8.32109 64.0399 15.954 68.4501 24.0636 71.6426" stroke="#797E91" stroke-linecap="round" stroke-linejoin="round"/>
<g style="mix-blend-mode:multiply" opacity="0.09">
<path d="M21.9347 74.4855C22.6569 73.5553 23.3697 72.6014 24.0589 71.6378C26.9477 67.6191 29.5015 63.3692 31.6917 58.9349V58.9258C31.5973 54.8925 31.4179 50.8599 31.0875 46.8555C23.0204 57.7027 16.832 65.7681 13.1406 70.514C15.9493 72.0201 18.8806 73.352 21.93 74.4855H21.9347Z" fill="#383838"/>
</g>
<path d="M23.6812 15.3398C21.7269 17.0021 20.5421 19.3915 19.4139 21.7102C13.4143 34.073 7.41001 46.4405 1.50482 58.6051C1.02334 59.5917 0.546585 60.5741 0.0698242 61.5515C6.47536 67.0293 13.7872 71.4545 21.9346 74.4904C22.6569 73.5601 23.3696 72.6062 24.0588 71.6432C26.9476 67.6245 29.5014 63.3746 31.6916 58.9403V58.9306C31.3376 43.8716 29.8224 28.803 23.6764 15.3446L23.6812 15.3398Z" stroke="#292F44" stroke-linecap="round" stroke-linejoin="round"/>
<path d="M136.31 15.3398C138.264 17.0021 139.448 19.3915 140.577 21.7101C146.576 34.0777 152.585 46.4405 158.49 58.6051C158.972 59.5917 159.449 60.5741 159.925 61.5515C153.52 67.0293 146.208 71.4545 138.061 74.4904C137.338 73.5601 136.626 72.6062 135.937 71.6432C133.047 67.6245 130.494 63.3746 128.304 58.9403V58.9306C128.657 43.8716 130.173 28.803 136.319 15.3446L136.31 15.3398Z" fill="white"/>
<mask id="mask2_2401_626" style="mask-type:luminance" maskUnits="userSpaceOnUse" x="128" y="15" width="31" height="57">
<path d="M128.294 58.9252V58.9343C130.489 63.3734 133.043 67.6185 135.927 71.6373C144.037 68.4496 151.67 64.0394 158.486 58.604C152.581 46.4346 146.577 34.0671 140.572 21.7043C139.444 19.3857 138.264 16.9962 136.305 15.334C130.164 28.7924 128.644 43.861 128.29 58.9204L128.294 58.9252Z" fill="white"/>
</mask>
<g mask="url(#mask2_2401_626)">
<path d="M142.158 37.3681C139.84 31.5834 136.711 26.1245 132.897 21.1992" stroke="#E4E5EB" stroke-linecap="round" stroke-linejoin="round"/>
<path d="M149.291 57.6074C145.689 61.3903 141.403 64.5114 136.697 66.7736" stroke="#E4E5EB" stroke-linecap="round" stroke-linejoin="round"/>
<path d="M135.895 63.8075C138.58 62.5469 140.945 60.6156 142.72 58.2402" stroke="#E4E5EB" stroke-linecap="round" stroke-linejoin="round"/>
</g>
<path d="M158.491 58.6094C151.674 64.0399 144.041 68.4501 135.932 71.6426" stroke="#797E91" stroke-linecap="round" stroke-linejoin="round"/>
<g style="mix-blend-mode:multiply" opacity="0.09">
<path d="M128.8 48.084C128.531 51.6823 128.38 55.3045 128.294 58.9264V58.9356C130.489 63.3747 133.044 67.6198 135.927 71.6385C136.621 72.6021 137.329 73.5511 138.051 74.4862C141.011 73.3811 143.862 72.0916 146.6 70.6423C141.163 61.3297 134.218 53.4767 128.8 48.084Z" fill="#383838"/>
</g>
<path d="M136.31 15.3398C138.264 17.0021 139.448 19.3915 140.577 21.7101C146.576 34.0777 152.585 46.4405 158.49 58.6051C158.972 59.5917 159.449 60.5741 159.925 61.5515C153.52 67.0293 146.208 71.4545 138.061 74.4904C137.338 73.5601 136.626 72.6062 135.937 71.6432C133.047 67.6245 130.494 63.3746 128.304 58.9403V58.9306C128.657 43.8716 130.173 28.803 136.319 15.3446L136.31 15.3398Z" stroke="#292F44" stroke-linecap="round" stroke-linejoin="round"/>
<path d="M114.84 32.2246H96.0703V50.9914H114.84V32.2246Z" fill="#6E48D8"/>
</g>
<defs>
<clipPath id="clip0_2401_626">
<rect width="160" height="160" fill="white"/>
</clipPath>
</defs>
</svg>
