<svg width="161" height="160" viewBox="0 0 161 160" fill="none" xmlns="http://www.w3.org/2000/svg">
<g clip-path="url(#clip0_2401_574)">
<path d="M128.271 72.4558C128.261 67.9743 128.266 63.4547 128.37 58.9309C128.724 43.8718 130.24 28.7985 136.388 15.3401C136.355 15.3071 136.317 15.2834 136.284 15.2504C134.693 13.9329 132.71 13.1962 130.769 12.4832C121.755 9.17286 112.74 5.86256 103.726 2.55228C102.385 2.06117 101.039 1.57005 99.6984 1.07894C99.5333 1.52755 99.3488 1.96672 99.1413 2.40117C97.6727 5.52256 95.3118 8.21897 92.3885 10.0606C88.7906 12.3273 83.8276 12.6721 80.1778 12.6721H79.9418C76.2914 12.6721 71.3242 12.3273 67.7306 10.0606C64.8126 8.21897 62.4469 5.52256 60.9783 2.40117C60.7703 1.96672 60.5863 1.52283 60.4212 1.07422C59.0802 1.57005 57.7343 2.06117 56.3933 2.557C47.3743 5.86728 38.3601 9.17758 29.3458 12.4879C27.4098 13.2009 25.4266 13.9376 23.8353 15.2551C23.7976 15.2881 23.7598 15.3118 23.7314 15.3448C29.8747 28.8032 31.3951 43.8718 31.7493 58.9309V58.9405C31.8485 63.4644 31.8532 67.9834 31.8438 72.4601C31.7965 99.8494 31.7399 127.238 31.6927 154.627C31.6879 155.874 31.6879 157.13 31.6879 158.376C47.752 159.954 64.4818 159.964 79.937 159.964H80.1965C95.6518 159.964 112.382 159.954 128.445 158.376C128.445 157.13 128.441 155.874 128.441 154.627C128.389 127.238 128.337 99.8494 128.28 72.4601L128.271 72.4558Z" fill="white"/>
<mask id="mask0_2401_574" style="mask-type:luminance" maskUnits="userSpaceOnUse" x="23" y="2" width="114" height="155">
<path d="M128.472 72.7276C128.524 100.116 128.576 127.506 128.633 154.894C112.579 156.472 95.8392 156.481 80.3888 156.481H80.1293C64.6789 156.481 47.9444 156.472 31.8851 154.894C31.9322 127.506 31.9889 100.116 32.0362 72.7276C32.0456 68.2509 32.0409 63.7318 31.9417 59.208V59.1983C31.5875 44.1391 30.0718 29.0704 23.9238 15.6121C23.9569 15.579 23.9947 15.5554 24.0277 15.5223C25.619 14.2048 27.6022 13.4681 29.5382 12.7551C38.5525 9.44482 47.5667 6.13452 56.5856 2.82422C58.1298 7.28203 61.6049 10.9701 65.7556 13.2273C70.1518 15.6168 75.1759 16.3912 80.2424 16.3912H80.2617C85.3331 16.3912 90.3572 15.6168 94.7486 13.2273C98.9036 10.9701 102.379 7.28203 103.923 2.82422C112.937 6.13452 121.952 9.44482 130.966 12.7551C132.907 13.4681 134.89 14.2048 136.481 15.5223C136.519 15.5554 136.557 15.579 136.585 15.6121C130.442 29.0704 128.921 44.1485 128.567 59.2032C128.463 63.727 128.454 68.2461 128.468 72.7276H128.472Z" fill="white"/>
</mask>
<g mask="url(#mask0_2401_574)">
<path d="M30.8291 51.7005C34.3186 48.0361 38.7856 45.3066 43.6398 43.8711" stroke="#E4E5EB" stroke-linecap="round" stroke-linejoin="round"/>
<path d="M31.084 56.4142C34.9088 54.8796 38.9885 53.9868 43.1061 53.7793" stroke="#E4E5EB" stroke-linecap="round" stroke-linejoin="round"/>
<path d="M37.7363 73.2676C37.1743 87.1089 37.1177 100.968 37.5663 114.814" stroke="#E4E5EB" stroke-linecap="round" stroke-linejoin="round"/>
<path d="M30.2383 147.59C39.4178 147.906 48.602 148.223 57.7817 148.539" stroke="#E4E5EB" stroke-linecap="round" stroke-linejoin="round"/>
<path d="M126.387 15.2783C119.379 11.6139 111.829 9.00249 104.057 7.55273" stroke="#E4E5EB" stroke-linecap="round" stroke-linejoin="round"/>
<path d="M129.277 51.7005C125.787 48.0361 121.32 45.3066 116.466 43.8711" stroke="#E4E5EB" stroke-linecap="round" stroke-linejoin="round"/>
<path d="M129.022 56.4142C125.196 54.8796 121.117 53.9868 116.999 53.7793" stroke="#E4E5EB" stroke-linecap="round" stroke-linejoin="round"/>
<path d="M122.373 73.2676C122.935 87.1089 122.991 100.968 122.543 114.814" stroke="#E4E5EB" stroke-linecap="round" stroke-linejoin="round"/>
<path d="M129.867 147.59C120.688 147.906 111.504 148.223 102.324 148.539" stroke="#E4E5EB" stroke-linecap="round" stroke-linejoin="round"/>
<path d="M33.7236 15.2783C40.731 11.6139 48.2814 9.00249 56.0535 7.55273" stroke="#E4E5EB" stroke-linecap="round" stroke-linejoin="round"/>
</g>
<path d="M103.726 2.55078C102.182 7.00858 98.7066 10.6966 94.5517 12.9539C90.1603 15.3433 85.1361 16.1177 80.0643 16.1177H80.0455C74.979 16.1177 69.9549 15.3433 65.5586 12.9539C61.408 10.6966 57.9329 7.00858 56.3887 2.55078" stroke="#797E91" stroke-linecap="round" stroke-linejoin="round"/>
<path d="M31.6836 154.621C47.7382 156.198 64.4774 156.208 79.9278 156.208H80.1873C95.6377 156.208 112.372 156.198 128.432 154.621" stroke="#797E91" stroke-linecap="round" stroke-linejoin="round"/>
<g style="mix-blend-mode:multiply" opacity="0.09">
<path d="M31.7403 58.9253V58.9344C31.8394 63.4582 31.8442 67.9778 31.8347 72.4545C31.7875 99.8432 31.7309 127.232 31.6836 154.621C31.6789 155.868 31.6789 157.124 31.6789 158.371C32.7224 158.474 33.7707 158.569 34.8237 158.659V78.4845C34.8237 58.1601 33.223 44.0547 33.223 44.0547C32.5147 45.0133 31.8253 45.9436 31.1406 46.8597C31.4711 50.8642 31.6506 54.8968 31.745 58.9295L31.7403 58.9253Z" fill="#383838"/>
</g>
<g style="mix-blend-mode:multiply" opacity="0.09">
<path d="M128.426 154.622C128.374 127.233 128.322 99.844 128.266 72.4553C128.256 67.9738 128.261 63.4542 128.365 58.9304C128.45 55.3084 128.606 51.6866 128.87 48.0836C123.875 43.1158 120.177 40.2305 120.177 40.2305C120.177 40.2305 116.669 81.0682 116.296 108.972C116.017 130.043 116.896 150.476 117.344 159.222C121.055 159.004 124.757 158.73 128.426 158.372C128.426 157.125 128.422 155.869 128.422 154.622H128.426Z" fill="#383838"/>
</g>
<path d="M128.271 72.4558C128.261 67.9743 128.266 63.4547 128.37 58.9309C128.724 43.8718 130.24 28.7985 136.388 15.3401C136.355 15.3071 136.317 15.2834 136.284 15.2504C134.693 13.9329 132.71 13.1962 130.769 12.4832C121.755 9.17286 112.74 5.86256 103.726 2.55228C102.385 2.06117 101.039 1.57005 99.6984 1.07894C99.5333 1.52755 99.3488 1.96672 99.1413 2.40117C97.6727 5.52256 95.3118 8.21897 92.3885 10.0606C88.7906 12.3273 83.8276 12.6721 80.1778 12.6721H79.9418C76.2914 12.6721 71.3242 12.3273 67.7306 10.0606C64.8126 8.21897 62.4469 5.52256 60.9783 2.40117C60.7703 1.96672 60.5864 1.52283 60.4212 1.07422C59.0802 1.57005 57.7343 2.06117 56.3933 2.557C47.3743 5.86728 38.3601 9.17757 29.3458 12.4879C27.4098 13.2009 25.4266 13.9376 23.8353 15.2551C23.7976 15.2881 23.7598 15.3118 23.7314 15.3448C29.8747 28.8032 31.3951 43.8718 31.7493 58.9309V58.9405C31.8485 63.4644 31.8532 67.9834 31.8438 72.4601C31.7965 99.8494 31.7399 127.238 31.6927 154.627C31.6879 155.874 31.6879 157.13 31.6879 158.376C47.752 159.954 64.4818 159.964 79.937 159.964H80.1965C95.6518 159.964 112.382 159.954 128.445 158.376C128.445 157.13 128.441 155.874 128.441 154.627C128.389 127.238 128.337 99.8494 128.28 72.4601L128.271 72.4558Z" stroke="#292F44" stroke-linecap="round" stroke-linejoin="round"/>
<path d="M99.1415 2.39648C97.6729 5.51788 95.312 8.21429 92.3892 10.0559C88.7909 12.3226 83.8278 12.6674 80.178 12.6674H79.9421C76.2917 12.6674 71.3244 12.3226 67.7308 10.0559C64.8128 8.21429 62.4471 5.51788 60.9785 2.39648C66.985 4.99371 73.9689 6.15064 80.008 6.15064H80.112C86.156 6.15064 93.1399 4.99371 99.1463 2.39648H99.1415Z" fill="#D5DCDE"/>
<path d="M99.1415 2.39648C97.6729 5.51788 95.312 8.21429 92.3892 10.0559C88.7909 12.3227 83.8278 12.6674 80.178 12.6674H79.9421C76.2917 12.6674 71.3244 12.3227 67.7308 10.0559C64.8128 8.21429 62.4471 5.51788 60.9785 2.39648C66.985 4.99371 73.9689 6.15064 80.008 6.15064H80.112C86.156 6.15064 93.1399 4.99371 99.1463 2.39648H99.1415Z" stroke="#292F44" stroke-linecap="round" stroke-linejoin="round"/>
<path d="M99.6941 1.07274C99.529 1.52135 99.3445 1.96052 99.137 2.39496C93.1306 4.9922 86.1467 6.14914 80.1027 6.14914H79.9987C73.9596 6.14914 66.9756 4.9922 60.9692 2.39496C60.7617 1.96052 60.5773 1.51663 60.4121 1.06802C61.3376 0.728016 62.2582 0.392735 63.1842 0.0527344C68.751 2.06441 74.8427 2.57913 80.0507 2.57913C85.2593 2.57913 91.3504 2.05968 96.9226 0.0527344C97.848 0.392735 98.7687 0.728016 99.6941 1.07274Z" fill="#B3BFC2"/>
<path d="M99.6941 1.07274C99.529 1.52135 99.3445 1.96052 99.137 2.39496C93.1306 4.9922 86.1467 6.14914 80.1027 6.14914H79.9987C73.9596 6.14914 66.9756 4.9922 60.9692 2.39496C60.7617 1.96052 60.5773 1.51663 60.4121 1.06802C61.3376 0.728016 62.2582 0.392735 63.1842 0.0527344C68.751 2.06441 74.8427 2.57913 80.0507 2.57913C85.2593 2.57913 91.3504 2.05968 96.9226 0.0527344C97.848 0.392735 98.7687 0.728016 99.6941 1.07274Z" stroke="#292F44" stroke-linecap="round" stroke-linejoin="round"/>
<path d="M23.7228 15.3398C21.7679 17.0021 20.5827 19.3915 19.4541 21.7102C13.4525 34.073 7.44615 46.4405 1.53899 58.6051C1.05735 59.5917 0.580433 60.5741 0.103516 61.5515C6.51124 67.0293 13.8256 71.4545 21.9756 74.4904C22.6981 73.5601 23.4111 72.6062 24.1005 71.6432C26.9903 67.6245 29.5449 63.3746 31.7359 58.9403V58.9306C31.3818 43.8716 29.866 28.803 23.7181 15.3446L23.7228 15.3398Z" fill="white"/>
<mask id="mask1_2401_574" style="mask-type:luminance" maskUnits="userSpaceOnUse" x="1" y="15" width="31" height="57">
<path d="M31.7397 58.9252V58.9343C29.544 63.3734 26.9894 67.6185 24.1043 71.6373C15.992 68.4496 8.35662 64.0394 1.53809 58.604C7.44525 46.4346 13.4516 34.0671 19.4579 21.7043C20.5865 19.3857 21.767 16.9962 23.7266 15.334C29.8699 28.7924 31.3903 43.861 31.7444 58.9204L31.7397 58.9252Z" fill="white"/>
</mask>
<g mask="url(#mask1_2401_574)">
<path d="M17.8711 37.3681C20.1895 31.5834 23.3202 26.1245 27.1355 21.1992" stroke="#E4E5EB" stroke-linecap="round" stroke-linejoin="round"/>
<path d="M10.7363 57.6074C14.3392 61.3903 18.6267 64.5114 23.3346 66.7736" stroke="#E4E5EB" stroke-linecap="round" stroke-linejoin="round"/>
<path d="M24.1376 63.8075C21.4508 62.5469 19.0851 60.6156 17.3096 58.2402" stroke="#E4E5EB" stroke-linecap="round" stroke-linejoin="round"/>
</g>
<path d="M1.53809 58.6094C8.35662 64.0399 15.992 68.4501 24.1043 71.6426" stroke="#797E91" stroke-linecap="round" stroke-linejoin="round"/>
<g style="mix-blend-mode:multiply" opacity="0.09">
<path d="M21.9748 74.4855C22.6973 73.5553 23.4102 72.6014 24.0997 71.6378C26.9895 67.6191 29.5441 63.3692 31.7351 58.9349V58.9258C31.6406 54.8925 31.4612 50.8599 31.1307 46.8555C23.0608 57.7027 16.8703 65.7681 13.1777 70.514C15.9873 72.0201 18.9197 73.352 21.9701 74.4855H21.9748Z" fill="#383838"/>
</g>
<path d="M23.7228 15.3398C21.7679 17.0021 20.5827 19.3915 19.4541 21.7102C13.4525 34.073 7.44615 46.4405 1.53899 58.6051C1.05735 59.5917 0.580433 60.5741 0.103516 61.5515C6.51124 67.0293 13.8256 71.4545 21.9756 74.4904C22.6981 73.5601 23.4111 72.6062 24.1005 71.6432C26.9904 67.6245 29.5449 63.3746 31.7359 58.9403V58.9306C31.3818 43.8716 29.866 28.803 23.7181 15.3446L23.7228 15.3398Z" stroke="#292F44" stroke-linecap="round" stroke-linejoin="round"/>
<path d="M136.388 15.3398C138.343 17.0021 139.528 19.3915 140.657 21.7101C146.659 34.0777 152.67 46.4405 158.577 58.6051C159.059 59.5917 159.535 60.5741 160.013 61.5515C153.605 67.0293 146.29 71.4545 138.14 74.4904C137.418 73.5601 136.705 72.6062 136.015 71.6432C133.126 67.6245 130.571 63.3746 128.38 58.9403V58.9306C128.734 43.8716 130.25 28.803 136.398 15.3446L136.388 15.3398Z" fill="white"/>
<mask id="mask2_2401_574" style="mask-type:luminance" maskUnits="userSpaceOnUse" x="128" y="15" width="31" height="57">
<path d="M128.371 58.9252V58.9343C130.567 63.3734 133.121 67.6185 136.006 71.6373C144.118 68.4496 151.754 64.0394 158.573 58.604C152.665 46.4346 146.659 34.0671 140.653 21.7043C139.524 19.3857 138.344 16.9962 136.384 15.334C130.241 28.7924 128.72 43.861 128.366 58.9204L128.371 58.9252Z" fill="white"/>
</mask>
<g mask="url(#mask2_2401_574)">
<path d="M142.239 37.3681C139.921 31.5834 136.79 26.1245 132.975 21.1992" stroke="#E4E5EB" stroke-linecap="round" stroke-linejoin="round"/>
<path d="M149.374 57.6074C145.772 61.3903 141.484 64.5114 136.776 66.7736" stroke="#E4E5EB" stroke-linecap="round" stroke-linejoin="round"/>
<path d="M135.973 63.8075C138.66 62.5469 141.025 60.6156 142.801 58.2402" stroke="#E4E5EB" stroke-linecap="round" stroke-linejoin="round"/>
</g>
<path d="M158.577 58.6094C151.759 64.0399 144.123 68.4501 136.011 71.6426" stroke="#797E91" stroke-linecap="round" stroke-linejoin="round"/>
<g style="mix-blend-mode:multiply" opacity="0.09">
<path d="M128.876 48.084C128.607 51.6823 128.456 55.3045 128.371 58.9264V58.9356C130.567 63.3747 133.121 67.6198 136.006 71.6385C136.7 72.6021 137.409 73.5511 138.131 74.4862C141.092 73.3811 143.944 72.0916 146.683 70.6423C141.243 61.3297 134.297 53.4767 128.876 48.084Z" fill="#383838"/>
</g>
<path d="M136.388 15.3398C138.343 17.0021 139.528 19.3915 140.657 21.7101C146.659 34.0777 152.67 46.4405 158.577 58.6051C159.059 59.5917 159.535 60.5741 160.013 61.5515C153.605 67.0293 146.29 71.4545 138.14 74.4904C137.418 73.5601 136.705 72.6062 136.015 71.6432C133.126 67.6245 130.571 63.3746 128.38 58.9403V58.9306C128.734 43.8716 130.25 28.803 136.398 15.3446L136.388 15.3398Z" stroke="#292F44" stroke-linecap="round" stroke-linejoin="round"/>
<path d="M114.902 32.2246H98.8164V37.5865H114.902V32.2246Z" fill="#6E48D8"/>
</g>
<defs>
<clipPath id="clip0_2401_574">
<rect width="160" height="160" fill="white" transform="translate(0.0537109)"/>
</clipPath>
</defs>
</svg>
