<svg width="2985" height="2984" viewBox="0 0 2985 2984" fill="none" xmlns="http://www.w3.org/2000/svg">
<path d="M2391.64 1351.29C2391.47 1267.71 2391.56 1183.42 2393.49 1099.05C2400.1 818.199 2428.37 537.081 2543.03 286.082C2542.41 285.466 2541.71 285.025 2541.09 284.409C2511.41 259.837 2474.42 246.098 2438.23 232.8C2270.11 171.063 2102 109.326 1933.88 47.5892C1908.87 38.43 1883.78 29.2707 1858.76 20.1114C1855.68 28.4781 1852.25 36.6686 1848.37 44.771C1820.99 102.985 1776.95 153.273 1722.44 187.62C1655.34 229.894 1562.78 236.323 1494.71 236.323H1490.3C1422.23 236.323 1329.58 229.894 1262.57 187.62C1208.14 153.273 1164.02 102.985 1136.64 44.771C1132.76 36.6686 1129.33 28.39 1126.24 20.0234C1101.23 29.2707 1076.14 38.43 1051.12 47.6773C882.922 109.414 714.806 171.151 546.691 232.888C510.585 246.186 473.598 259.925 443.92 284.497C443.215 285.113 442.511 285.554 441.982 286.17C556.554 537.169 584.911 818.199 591.516 1099.05V1099.23C593.365 1183.6 593.453 1267.88 593.277 1351.37C592.397 1862.18 591.34 2372.98 590.459 2883.79C590.371 2907.04 590.371 2930.46 590.371 2953.71C889.967 2983.13 1201.98 2983.31 1490.21 2983.31H1495.06C1783.29 2983.31 2095.31 2983.13 2394.9 2953.71C2394.9 2930.46 2394.81 2907.04 2394.81 2883.79C2393.85 2372.98 2392.88 1862.18 2391.82 1351.37L2391.64 1351.29Z" fill="white"/>
<mask id="mask0_2218_12" style="mask-type:luminance" maskUnits="userSpaceOnUse" x="445" y="52" width="2102" height="2867">
<path d="M2395.4 1356.38C2396.37 1867.18 2397.34 2377.99 2398.4 2888.79C2098.98 2918.21 1786.79 2918.38 1498.64 2918.38H1493.8C1205.65 2918.38 893.549 2918.21 594.041 2888.79C594.922 2377.99 595.979 1867.18 596.859 1356.38C597.035 1272.89 596.947 1188.61 595.098 1104.24V1104.06C588.493 823.205 560.224 542.174 445.564 291.176C446.181 290.559 446.885 290.119 447.502 289.502C477.18 264.931 514.167 251.192 550.273 237.893C718.388 176.157 886.504 114.42 1054.71 52.6828C1083.5 135.821 1148.32 204.603 1225.73 246.7C1307.72 291.264 1401.42 305.707 1495.91 305.707H1496.26C1590.84 305.707 1684.54 291.264 1766.44 246.7C1843.94 204.603 1908.76 135.821 1937.55 52.6828C2105.67 114.42 2273.78 176.157 2441.9 237.893C2478.09 251.192 2515.08 264.931 2544.76 289.502C2545.46 290.119 2546.17 290.559 2546.7 291.176C2432.12 542.174 2403.77 823.381 2397.16 1104.15C2395.23 1188.52 2395.05 1272.8 2395.31 1356.38H2395.4Z" fill="white"/>
</mask>
<g mask="url(#mask0_2218_12)">
<path d="M574.342 964.219C639.421 895.877 722.731 844.973 813.261 818.2" stroke="#E4E5EB" stroke-linecap="round" stroke-linejoin="round"/>
<path d="M579.096 1052.11C650.428 1023.49 726.516 1006.84 803.308 1002.97" stroke="#E4E5EB" stroke-linecap="round" stroke-linejoin="round"/>
<path d="M703.177 1366.43C692.697 1624.57 691.64 1883.05 700.006 2141.27" stroke="#E4E5EB" stroke-linecap="round" stroke-linejoin="round"/>
<path d="M563.332 2752.56C734.53 2758.46 905.815 2764.36 1077.01 2770.26" stroke="#E4E5EB" stroke-linecap="round" stroke-linejoin="round"/>
<path d="M2356.5 284.937C2225.81 216.595 2085 167.893 1940.04 140.855" stroke="#E4E5EB" stroke-linecap="round" stroke-linejoin="round"/>
<path d="M2410.4 964.219C2345.32 895.877 2262.01 844.973 2171.48 818.2" stroke="#E4E5EB" stroke-linecap="round" stroke-linejoin="round"/>
<path d="M2405.64 1052.11C2334.31 1023.49 2258.22 1006.84 2181.43 1002.97" stroke="#E4E5EB" stroke-linecap="round" stroke-linejoin="round"/>
<path d="M2281.65 1366.43C2292.13 1624.57 2293.18 1883.05 2284.82 2141.27" stroke="#E4E5EB" stroke-linecap="round" stroke-linejoin="round"/>
<path d="M2421.41 2752.56C2250.21 2758.46 2078.92 2764.36 1907.72 2770.26" stroke="#E4E5EB" stroke-linecap="round" stroke-linejoin="round"/>
<path d="M628.324 284.937C759.012 216.595 899.827 167.893 1044.78 140.855" stroke="#E4E5EB" stroke-linecap="round" stroke-linejoin="round"/>
</g>
<path d="M1933.88 47.5891C1905.09 130.727 1840.27 199.509 1762.77 241.607C1680.87 286.17 1587.17 300.613 1492.59 300.613H1492.24C1397.75 300.613 1304.04 286.17 1222.06 241.607C1144.65 199.509 1079.83 130.727 1051.04 47.5891" stroke="#797E91" stroke-linecap="round" stroke-linejoin="round"/>
<path d="M590.28 2883.7C889.7 2913.11 1201.89 2913.29 1490.04 2913.29H1494.88C1783.03 2913.29 2095.13 2913.11 2394.63 2883.7" stroke="#797E91" stroke-linecap="round" stroke-linejoin="round"/>
<g style="mix-blend-mode:multiply" opacity="0.09">
<path d="M591.338 1098.97V1099.14C593.188 1183.51 593.276 1267.8 593.1 1351.29C592.219 1862.09 591.162 2372.89 590.282 2883.7C590.194 2906.95 590.194 2930.38 590.194 2953.63C609.656 2955.56 629.206 2957.33 648.845 2959V1463.75C648.845 1084.7 618.991 821.634 618.991 821.634C605.781 839.512 592.924 856.862 580.154 873.948C586.319 948.631 589.665 1023.84 591.427 1099.05L591.338 1098.97Z" fill="#383838"/>
</g>
<g style="mix-blend-mode:multiply" opacity="0.09">
<path d="M2394.55 2883.7C2393.58 2372.89 2392.61 1862.09 2391.55 1351.29C2391.38 1267.71 2391.46 1183.42 2393.4 1099.05C2394.99 1031.5 2397.89 963.954 2402.82 896.757C2309.65 804.108 2240.7 750.297 2240.7 750.297C2240.7 750.297 2175.27 1511.92 2168.31 2032.33C2163.11 2425.3 2179.49 2806.37 2187.86 2969.48C2257.08 2965.43 2326.12 2960.32 2394.55 2953.63C2394.55 2930.38 2394.46 2906.95 2394.46 2883.7H2394.55Z" fill="#383838"/>
</g>
<path d="M2391.64 1351.29C2391.47 1267.71 2391.56 1183.42 2393.49 1099.05C2400.1 818.199 2428.37 537.081 2543.03 286.082C2542.41 285.466 2541.71 285.025 2541.09 284.409C2511.41 259.837 2474.42 246.098 2438.23 232.8C2270.11 171.063 2102 109.326 1933.88 47.5892C1908.87 38.43 1883.78 29.2707 1858.76 20.1114C1855.68 28.4781 1852.25 36.6686 1848.37 44.771C1820.99 102.985 1776.95 153.273 1722.44 187.62C1655.34 229.894 1562.78 236.323 1494.71 236.323H1490.3C1422.23 236.323 1329.58 229.894 1262.57 187.62C1208.14 153.273 1164.02 102.985 1136.64 44.771C1132.76 36.6686 1129.33 28.39 1126.24 20.0234C1101.23 29.2707 1076.14 38.43 1051.12 47.6773C882.922 109.414 714.806 171.151 546.691 232.888C510.585 246.186 473.598 259.925 443.92 284.497C443.215 285.113 442.511 285.554 441.982 286.17C556.554 537.169 584.911 818.199 591.516 1099.05V1099.23C593.365 1183.6 593.453 1267.88 593.277 1351.37C592.397 1862.18 591.34 2372.98 590.459 2883.79C590.371 2907.04 590.371 2930.46 590.371 2953.71C889.967 2983.13 1201.98 2983.31 1490.21 2983.31H1495.06C1783.29 2983.31 2095.31 2983.13 2394.9 2953.71C2394.9 2930.46 2394.81 2907.04 2394.81 2883.79C2393.85 2372.98 2392.88 1862.18 2391.82 1351.37L2391.64 1351.29Z" stroke="#292F44" stroke-linecap="round" stroke-linejoin="round"/>
<path d="M1848.37 44.683C1820.99 102.897 1776.95 153.185 1722.44 187.532C1655.34 229.806 1562.78 236.235 1494.71 236.235H1490.3C1422.23 236.235 1329.59 229.806 1262.57 187.532C1208.14 153.185 1164.02 102.897 1136.64 44.683C1248.65 93.1213 1378.9 114.698 1491.54 114.698H1493.47C1606.2 114.698 1736.44 93.1213 1848.46 44.683H1848.37Z" fill="#D5DCDE"/>
<path d="M1848.37 44.683C1820.99 102.897 1776.95 153.185 1722.44 187.532C1655.34 229.806 1562.78 236.235 1494.71 236.235H1490.3C1422.23 236.235 1329.59 229.806 1262.57 187.532C1208.14 153.185 1164.02 102.897 1136.64 44.683C1248.65 93.1213 1378.9 114.698 1491.54 114.698H1493.47C1606.2 114.698 1736.44 93.1213 1848.46 44.683H1848.37Z" stroke="#292F44" stroke-linecap="round" stroke-linejoin="round"/>
<path d="M1858.68 20.0231C1855.6 28.3897 1852.16 36.5802 1848.29 44.6826C1736.27 93.121 1606.02 114.698 1493.3 114.698H1491.36C1378.73 114.698 1248.48 93.121 1136.46 44.6826C1132.59 36.5802 1129.15 28.3016 1126.07 19.935C1143.33 13.594 1160.5 7.34102 1177.76 1C1281.59 38.5177 1395.19 48.1173 1492.33 48.1173C1589.46 48.1173 1703.07 38.4296 1806.98 1C1824.24 7.34102 1841.42 13.594 1858.68 20.0231Z" fill="#B3BFC2"/>
<path d="M1858.68 20.0231C1855.6 28.3897 1852.16 36.5802 1848.29 44.6826C1736.27 93.121 1606.02 114.698 1493.3 114.698H1491.36C1378.73 114.698 1248.48 93.121 1136.46 44.6826C1132.59 36.5802 1129.15 28.3016 1126.07 19.935C1143.33 13.594 1160.5 7.34102 1177.76 1C1281.59 38.5177 1395.19 48.1173 1492.33 48.1173C1589.46 48.1173 1703.07 38.4296 1806.98 1C1824.24 7.34102 1841.42 13.594 1858.68 20.0231Z" stroke="#292F44" stroke-linecap="round" stroke-linejoin="round"/>
<path d="M441.806 286.082C405.347 317.083 383.243 361.646 362.195 404.889C250.265 635.455 138.247 866.11 28.0783 1092.98C19.0957 1111.38 10.2012 1129.7 1.30664 1147.93C120.81 1250.09 257.222 1332.62 409.222 1389.24C422.696 1371.89 435.993 1354.1 448.851 1336.14C502.746 1261.19 550.389 1181.93 591.251 1099.23V1099.05C584.646 818.2 556.378 537.169 441.717 286.171L441.806 286.082Z" fill="white"/>
<mask id="mask1_2218_12" style="mask-type:luminance" maskUnits="userSpaceOnUse" x="28" y="285" width="564" height="1052">
<path d="M591.339 1098.97V1099.14C550.389 1181.93 502.746 1261.1 448.939 1336.05C297.644 1276.6 155.243 1194.35 28.0781 1092.98C138.247 866.021 250.265 635.367 362.283 404.8C383.331 361.558 405.347 316.995 441.893 285.994C556.465 536.993 584.822 818.023 591.427 1098.88L591.339 1098.97Z" fill="white"/>
</mask>
<g mask="url(#mask1_2218_12)">
<path d="M332.688 696.927C375.927 589.042 434.314 487.233 505.47 395.377" stroke="#E4E5EB" stroke-linecap="round" stroke-linejoin="round"/>
<path d="M199.624 1074.39C266.817 1144.94 346.78 1203.15 434.58 1245.34" stroke="#E4E5EB" stroke-linecap="round" stroke-linejoin="round"/>
<path d="M449.551 1190.03C399.443 1166.52 355.322 1130.5 322.21 1086.2" stroke="#E4E5EB" stroke-linecap="round" stroke-linejoin="round"/>
</g>
<path d="M28.0781 1093.07C155.243 1194.35 297.644 1276.6 448.939 1336.14" stroke="#797E91" stroke-linecap="round" stroke-linejoin="round"/>
<g style="mix-blend-mode:multiply" opacity="0.09">
<path d="M409.221 1389.16C422.695 1371.81 435.993 1354.02 448.851 1336.05C502.746 1261.1 550.389 1181.84 591.251 1099.14V1098.97C589.49 1023.75 586.143 948.542 579.979 873.859C429.476 1076.16 314.024 1226.58 245.157 1315.09C297.556 1343.18 352.244 1368.02 409.133 1389.16H409.221Z" fill="#383838"/>
</g>
<path d="M441.806 286.082C405.347 317.083 383.243 361.646 362.195 404.889C250.265 635.455 138.247 866.11 28.0783 1092.98C19.0957 1111.38 10.2012 1129.7 1.30664 1147.93C120.81 1250.09 257.222 1332.62 409.222 1389.24C422.696 1371.89 435.993 1354.1 448.851 1336.14C502.746 1261.19 550.389 1181.93 591.251 1099.23V1099.05C584.646 818.2 556.378 537.169 441.717 286.171L441.806 286.082Z" stroke="#292F44" stroke-linecap="round" stroke-linejoin="round"/>
<path d="M2543.03 286.082C2579.49 317.083 2601.59 361.646 2622.64 404.888C2734.57 635.543 2846.67 866.11 2956.84 1092.98C2965.82 1111.38 2974.72 1129.7 2983.61 1147.93C2864.11 1250.09 2727.7 1332.62 2575.7 1389.24C2562.22 1371.89 2548.93 1354.1 2536.07 1336.14C2482.17 1261.19 2434.53 1181.93 2393.67 1099.23V1099.05C2400.27 818.2 2428.54 537.169 2543.2 286.17L2543.03 286.082Z" fill="white"/>
<mask id="mask2_2218_12" style="mask-type:luminance" maskUnits="userSpaceOnUse" x="2393" y="285" width="564" height="1052">
<path d="M2393.49 1098.97V1099.14C2434.44 1181.93 2482.09 1261.1 2535.89 1336.05C2687.19 1276.6 2829.59 1194.35 2956.75 1092.98C2846.58 866.021 2734.57 635.367 2622.55 404.8C2601.5 361.558 2579.48 316.995 2542.94 285.994C2428.37 536.993 2400.01 818.023 2393.4 1098.88L2393.49 1098.97Z" fill="white"/>
</mask>
<g mask="url(#mask2_2218_12)">
<path d="M2652.14 696.927C2608.9 589.042 2550.52 487.233 2479.36 395.377" stroke="#E4E5EB" stroke-linecap="round" stroke-linejoin="round"/>
<path d="M2785.21 1074.39C2718.01 1144.94 2638.05 1203.15 2550.25 1245.34" stroke="#E4E5EB" stroke-linecap="round" stroke-linejoin="round"/>
<path d="M2535.28 1190.03C2585.39 1166.52 2629.51 1130.5 2662.62 1086.2" stroke="#E4E5EB" stroke-linecap="round" stroke-linejoin="round"/>
</g>
<path d="M2956.84 1093.07C2829.67 1194.35 2687.27 1276.6 2535.98 1336.14" stroke="#797E91" stroke-linecap="round" stroke-linejoin="round"/>
<g style="mix-blend-mode:multiply" opacity="0.09">
<path d="M2402.92 896.758C2397.9 963.867 2395.08 1031.42 2393.49 1098.97V1099.14C2434.44 1181.93 2482.09 1261.1 2535.89 1336.05C2548.84 1354.02 2562.05 1371.72 2575.52 1389.16C2630.74 1368.55 2683.93 1344.5 2735.01 1317.47C2633.56 1143.79 2504.01 997.333 2402.92 896.758Z" fill="#383838"/>
</g>
<path d="M2543.03 286.082C2579.49 317.083 2601.59 361.646 2622.64 404.888C2734.57 635.543 2846.67 866.11 2956.84 1092.98C2965.82 1111.38 2974.72 1129.7 2983.61 1147.93C2864.11 1250.09 2727.7 1332.62 2575.7 1389.24C2562.22 1371.89 2548.93 1354.1 2536.07 1336.14C2482.17 1261.19 2434.53 1181.93 2393.67 1099.23V1099.05C2400.27 818.2 2428.54 537.169 2543.2 286.17L2543.03 286.082Z" stroke="#292F44" stroke-linecap="round" stroke-linejoin="round"/>
<rect x="795.807" y="504.5" width="1393" height="1743" stroke="black" stroke-width="7"/>
<rect x="1792.31" y="601" width="350" height="350" fill="#6E48D8"/>
</svg>
